<svg xmlns="http://www.w3.org/2000/svg" viewBox="0 0 1000 1000" role="img" aria-hidden="true">
<defs>
<radialGradient id="globe-disc" cx="38%" cy="30%" r="75%">
<stop offset="0%" stop-color="#242424"/>
<stop offset="100%" stop-color="#1d1d1d"/>
</radialGradient>
</defs>
<circle cx="500" cy="500" r="478" fill="url(#globe-disc)"/>
<path d="M559.1,25.7L553.1,27.3L546.5,33.5L539.5,44.4L532.1,59.7L516.3,103.1L500,162M36.2,384.3L45,356.6L57.3,329.9L72.9,304.6L91.9,280.7L113.9,258.5L138.9,238.1L166.7,219.8L196.9,203.6L229.6,189.6L264.2,178.1L300.7,168.9L338.7,162.4L377.9,158.3L418.1,156.9L458.9,158.2L500,162M440.9,974.3L435.5,971.4L430.7,964L426.6,952.2L423.2,936.2L418.6,891.9L417,832.9L418.6,760.5L423.3,678.2L431,589L441.3,496.4L453.9,403.9L468.2,315.1L483.8,233.4L500,162M963.8,615.7L969,587.5L970.7,558.7L968.5,525.3L961.7,491.6L950.5,458L934.9,424.9L915.2,392.4L891.4,361L863.9,330.9L832.9,302.5L798.6,276L761.5,251.6L721.9,229.6L680.1,210.2L636.6,193.6L591.8,179.9L546.1,169.4L500,162M22,500L22.5,514.7L23.8,529.5L26.1,544.1L29.3,558.7L33.3,573.2L38.3,587.5L44.1,601.6L50.8,615.6L58.4,629.3L66.8,642.8L76,656.1L86,669L96.9,681.6L108.4,693.9L120.8,705.8L133.8,717.3L147.6,728.3L162,739L177.1,749.2L192.7,758.9L209,768.2L225.8,776.9L243.2,785.1L261,792.7L279.3,799.8L298,806.3L317.1,812.3L336.5,817.6L356.3,822.4L376.3,826.5L396.5,830L417,832.9L437.6,835.1L458.3,836.7L479.1,837.7L500,838L520.9,837.7L541.7,836.7L562.4,835.1L583,832.9L603.5,830L623.7,826.5L643.7,822.4L663.5,817.6L682.9,812.3L702,806.3L720.7,799.8L739,792.7L756.8,785.1L774.2,776.9L791,768.2L807.3,758.9L822.9,749.2L838,739L852.4,728.3L866.2,717.3L879.2,705.8L891.6,693.9L903.1,681.6L914,669L924,656.1L933.2,642.8L941.6,629.3L949.2,615.6L955.9,601.6L961.7,587.5L966.7,573.2L970.7,558.7L973.9,544.1L976.2,529.5L977.5,514.7L978,500L978,500M500,22L500,44.1L500,108.4M440.9,25.7L445.5,26.5L450.5,30.2L461.4,46L473.2,72.6L485.6,109.3M380.9,37.1L390.2,36.3L400.3,38.4L411,43.6L422.3,51.6L434,62.6L446.2,76.4L471.6,112M319.3,57.5L333.3,53.6L348.5,53L364.8,55.7L382.1,61.6L400.3,70.7L419.1,82.9L438.6,98.1L458.5,116.3M256.1,88.9L274.5,80.4L294.8,75.5L316.8,74.3L340.5,76.7L365.5,82.8L391.7,92.4L418.8,105.6L446.6,122.2M192,134.5L214,119.2L239.1,108.1L266.9,101L297.2,98.2L329.6,99.7L363.9,105.5L399.6,115.4L436.4,129.4M129.7,197.7L141.2,185L153.8,173.4L167.6,162.9L182.5,153.5L198.6,145.3L215.6,138.3L233.6,132.5L252.5,128L292.8,122.8L335.9,122.7L381.2,127.7L428.1,137.8M75,281.2L85.6,262.9L98.1,245.6L112.3,229.5L128.3,214.6L146,200.9L165.2,188.5L185.8,177.6L207.9,168L231.3,160L255.9,153.4L281.6,148.4L308.2,145L335.7,143.1L363.9,142.9L392.7,144.2L422,147.1M22,500L23.8,470.5L29.3,441.3L37,416.1L47.4,391.4L60.4,367.3L76,343.9L94.1,321.5L114.5,300.1L137.2,279.9L162,261L188.8,243.5L217.4,227.4L247.6,213L279.3,200.2L312.3,189.2L346.4,179.9L381.3,172.6L417,167.1M36.2,615.7L31,587.3L29.3,558.3L31.1,528.8L36.4,499.1L44,472.9L54.2,446.9L67.1,421.2L82.5,396L100.2,371.4L120.4,347.5L142.7,324.5L167.1,302.5L193.5,281.7L221.6,262.1L251.4,244L282.6,227.3L315.1,212.2L348.7,198.8L383.1,187.2L418.3,177.3M75,718.8L66.7,700.5L60.1,681.5L55.3,661.8L52.2,641.4L50.9,620.5L51.4,599.1L53.6,577.3L57.7,555.2L64.9,528.1L74.7,500.8L86.9,473.6L101.6,446.5L118.6,419.7L137.8,393.4L159.1,367.7L182.4,342.7L207.5,318.7L234.4,295.8L262.8,274L292.6,253.6L323.6,234.6L355.6,217.1L388.5,201.3L422,187.2M129.7,802.3L116.2,783.3L105,762.5L96.4,740L90.4,715.9L86.9,690.5L86.1,663.9L87.9,636.3L92.3,607.7L99,579.8L108,551.4L119.3,522.7L132.8,493.8L148.5,465L166.2,436.4L185.8,408.2L207.3,380.5L230.5,353.5L255.2,327.4L281.4,302.2L308.9,278.2L337.4,255.5L366.9,234.3L397.2,214.5L428.1,196.5M192,865.5L174.9,848.4L160.6,828.3L149.3,805.3L141,779.6L135.9,751.5L133.9,721.3L135,689.1L139.4,655.3L145.3,626.5L153.3,597.1L163.3,567.1L175.2,536.6L189,506L204.7,475.3L222.1,444.8L241.1,414.6L261.6,384.9L283.5,355.9L306.6,327.7L330.9,300.5L356.2,274.5L382.3,249.8L409.1,226.5L436.4,204.9M256.1,911.1L238.1,897.4L222.9,879.5L210.7,857.5L201.5,831.7L195.6,802.4L192.9,769.8L193.5,734.3L197.4,696.3L202.4,666.9L209.1,636.5L227.5,573.6L252.2,508.9L282.7,444.1L318.3,380.5L358.1,319.7L401.2,263.2L446.6,212.1M319.3,942.5L310.9,938.3L303.1,932.7L289.3,917.6L278.1,897.3L269.6,872.2L264,842.4L261.3,808.4L261.5,770.7L264.6,729.6L273.7,668.5L288,603.6L307.3,536.2L331,468L358.7,400.5L389.6,335.4L423.2,274L458.5,218M380.9,962.9L374.6,960.5L368.7,956.5L358.3,943.9L349.8,925.3L343.3,901L339,871.3L336.8,836.6L336.8,797.3L339,754.1L345.2,692.1L355,625.7L368.2,556.3L384.4,485.6L403.3,415.2L424.5,346.9L447.4,282L471.6,222.3M500,978L500,924L500,774.2L500,643.7L500,500L500,356.3L500,225.8M559.1,974.3L562.5,973.1L565.6,970.1L571.2,959.2L575.8,941.9L579.3,918.2L581.6,888.7L582.8,853.7L581.7,769.1L578.6,706.6L573.6,639.2L558.7,496.4L538.3,353.9L526.7,286.9L514.4,224.9M619.1,962.9L625.4,960.5L631.3,956.5L641.7,943.9L650.2,925.3L656.7,901L661,871.3L663.2,836.6L663.2,797.3L661,754.1L654.8,692.1L645,625.7L631.8,556.3L615.6,485.6L596.7,415.2L575.5,346.9L552.6,282L528.4,222.3M680.7,942.5L689.1,938.3L696.9,932.7L710.7,917.6L721.9,897.3L730.4,872.2L736,842.4L738.7,808.4L738.5,770.7L735.4,729.6L726.3,668.5L712,603.6L692.7,536.2L669,468L641.3,400.5L610.4,335.4L576.8,274L541.5,218M743.9,911.1L761.9,897.4L777.1,879.5L789.3,857.5L798.5,831.7L804.4,802.4L807.1,769.8L806.5,734.3L802.6,696.3L797.6,666.9L790.9,636.5L772.5,573.6L747.8,508.9L717.3,444.1L681.7,380.5L641.9,319.7L598.8,263.2L553.4,212.1M808,865.5L825.1,848.4L839.4,828.3L850.7,805.3L859,779.6L864.1,751.5L866.1,721.3L865,689.1L860.6,655.3L854.7,626.5L846.7,597.1L836.7,567.1L824.8,536.6L811,506L795.3,475.3L777.9,444.8L758.9,414.6L738.4,384.9L716.5,355.9L693.4,327.7L669.1,300.5L643.8,274.5L617.7,249.8L590.9,226.5L563.6,204.9M870.3,802.3L883.8,783.3L895,762.5L903.6,740L909.6,715.9L913.1,690.5L913.9,663.9L912.1,636.3L907.7,607.7L901,579.8L892,551.4L880.7,522.7L867.2,493.8L851.5,465L833.8,436.4L814.2,408.2L792.7,380.5L769.5,353.5L744.8,327.4L718.6,302.2L691.1,278.2L662.6,255.5L633.1,234.3L602.8,214.5L571.9,196.5M925,718.8L933.3,700.5L939.9,681.5L944.7,661.8L947.8,641.4L949.1,620.5L948.6,599.1L946.4,577.3L942.3,555.2L935.1,528.1L925.3,500.8L913.1,473.6L898.4,446.5L881.4,419.7L862.2,393.4L840.9,367.7L817.6,342.7L792.5,318.7L765.6,295.8L737.2,274L707.4,253.6L676.4,234.6L644.4,217.1L611.5,201.3L578,187.2M978,500L976.2,470.5L970.7,441.3L963,416.1L952.6,391.4L939.6,367.3L924,343.9L905.9,321.5L885.5,300.1L862.8,279.9L838,261L811.2,243.5L782.6,227.4L752.4,213L720.7,200.2L687.7,189.2L653.6,179.9L618.7,172.6L583,167.1M963.8,384.3L963.6,383.5L956,359.2L945.8,335.8L932.9,313.3L917.5,291.9L899.8,271.7L879.6,252.8L857.3,235.4L832.9,219.5L806.5,205.2L778.4,192.7L748.6,182L717.4,173.1L684.9,166.1L651.3,161.1L616.9,158L581.7,156.9M925,281.2L914.4,262.9L901.9,245.6L887.7,229.5L871.7,214.6L854,200.9L834.8,188.5L814.2,177.6L792.1,168L768.7,160L744.1,153.4L718.4,148.4L691.8,145L664.3,143.1L636.1,142.9L607.3,144.2L578,147.1M870.3,197.7L858.8,185L846.2,173.4L832.4,162.9L817.5,153.5L801.4,145.3L784.4,138.3L766.4,132.5L747.5,128L707.2,122.8L664.1,122.7L618.8,127.7L571.9,137.8M808,134.5L786,119.2L760.9,108.1L733.1,101L702.8,98.2L670.4,99.7L636.1,105.5L600.4,115.4L563.6,129.4M743.9,88.9L725.5,80.4L705.2,75.5L683.2,74.3L659.5,76.7L634.5,82.8L608.3,92.4L581.2,105.6L553.4,122.2M680.7,57.5L666.7,53.6L651.5,53L635.2,55.7L617.9,61.6L599.7,70.7L580.9,82.9L561.4,98.1L541.5,116.3M619.1,37.1L609.8,36.3L599.7,38.4L589,43.6L577.7,51.6L566,62.6L553.8,76.4L528.4,112M300.9,934.6L303.3,935.6L316.9,941.5L330.9,946.9L345.3,951.9L359.9,956.5L374.8,960.6L389.9,964.2L405.2,967.4L420.7,970L436.4,972.2L452.2,974L468.1,975.2L484,975.9L500,976.2L516,975.9L531.9,975.2L547.8,974L563.6,972.2L579.3,970L594.8,967.4L610.1,964.2L625.2,960.6L640.1,956.5L654.7,951.9L669.1,946.9L683.1,941.5L696.7,935.6L699.1,934.6M162,838L171.6,847.2L182.9,857.2L194.8,866.8L207.3,876L220.3,884.8L233.9,893.2L248,901.2L262.6,908.8L277.6,915.9L293,922.5L308.9,928.6L325.1,934.3L341.6,939.4L358.4,944.1L375.5,948.2L392.9,951.7L410.4,954.8L428.1,957.3L446,959.2L463.9,960.6L481.9,961.4L500,961.7L518.1,961.4L536.1,960.6L554,959.2L571.9,957.3L589.6,954.8L607.1,951.7L624.5,948.2L641.6,944.1L658.4,939.4L674.9,934.3L691.1,928.6L707,922.5L722.4,915.9L737.4,908.8L752,901.2L766.1,893.2L779.7,884.8L792.7,876L805.2,866.8L817.1,857.2L828.4,847.2L838,838M81.7,731.3L85,737.1L92.9,749.8L101.6,762.3L111,774.4L121.2,786.3L132.1,797.8L143.6,809L155.9,819.8L168.8,830.2L182.4,840.2L196.5,849.8L211.3,858.9L226.6,867.6L242.4,875.8L258.7,883.5L275.4,890.7L292.6,897.3L310.2,903.5L328.1,909L346.4,914.1L364.9,918.5L383.7,922.4L402.8,925.7L422,928.4L441.4,930.5L460.9,932L480.4,932.9L500,933.2L519.6,932.9L539.1,932L558.6,930.5L578,928.4L597.2,925.7L616.3,922.4L635.1,918.5L653.6,914.1L671.9,909L689.8,903.5L707.4,897.3L724.6,890.7L741.3,883.5L757.6,875.8L773.4,867.6L788.7,858.9L803.5,849.8L817.6,840.2L831.2,830.2L844.1,819.8L856.4,809L867.9,797.8L878.8,786.3L889,774.4L898.4,762.3L907.1,749.8L915,737.1L918.3,731.3M36.6,617.4L40.4,630.7L45.3,644.8L51,658.8L57.7,672.5L65.1,686.1L73.4,699.4L82.5,712.4L92.3,725.1L103,737.5L114.4,749.6L126.5,761.3L139.4,772.7L152.9,783.6L167.1,794.1L182,804.1L197.4,813.7L213.4,822.8L230,831.4L247.1,839.4L264.6,847L282.6,853.9L301.1,860.4L319.9,866.2L339,871.5L358.4,876.1L378.2,880.2L398.1,883.7L418.3,886.5L438.6,888.7L459,890.3L479.5,891.2L500,891.6L520.5,891.2L541,890.3L561.4,888.7L581.7,886.5L601.9,883.7L621.8,880.2L641.6,876.1L661,871.5L680.1,866.2L698.9,860.4L717.4,853.9L735.4,847L752.9,839.4L770,831.4L786.6,822.8L802.6,813.7L818,804.1L832.9,794.1L847.1,783.6L860.6,772.7L873.5,761.3L885.6,749.6L897,737.5L907.7,725.1L917.5,712.4L926.6,699.4L934.9,686.1L942.3,672.5L949,658.8L954.7,644.8L959.6,630.7L963.4,617.4M36.6,382.6L36.4,383.5L33.3,397.9L31.1,412.3L29.7,426.8L29.3,441.3L29.7,455.8L31.1,470.3L33.3,484.8L36.4,499.1L40.4,513.4L45.3,527.5L51,541.4L57.7,555.2L65.1,568.7L73.4,582L82.5,595L92.3,607.7L103,620.2L114.4,632.2L126.5,643.9L139.4,655.3L152.9,666.2L167.1,676.7L182,686.7L197.4,696.3L213.4,705.4L230,714L247.1,722L264.6,729.6L282.6,736.6L301.1,743L319.9,748.8L339,754.1L358.4,758.8L378.2,762.8L398.1,766.3L418.3,769.1L438.6,771.3L459,772.9L479.5,773.9L500,774.2L520.5,773.9L541,772.9L561.4,771.3L581.7,769.1L601.9,766.3L621.8,762.8L641.6,758.8L661,754.1L680.1,748.8L698.9,743L717.4,736.6L735.4,729.6L752.9,722L770,714L786.6,705.4L802.6,696.3L818,686.7L832.9,676.7L847.1,666.2L860.6,655.3L873.5,643.9L885.6,632.2L897,620.2L907.7,607.7L917.5,595L926.6,582L934.9,568.7L942.3,555.2L949,541.4L954.7,527.5L959.6,513.4L963.6,499.1L966.7,484.8L968.9,470.3L970.3,455.8L970.7,441.3L970.3,426.8L968.9,412.3L966.7,397.9L963.6,383.5L963.4,382.6M81.7,268.7L77.9,275.8L71.6,288.9L66.1,302.2L61.5,315.7L57.7,329.2L54.7,342.9L52.5,356.7L51.3,370.5L50.8,384.4L51.3,398.3L52.5,412.1L54.7,425.9L57.7,439.6L61.5,453.1L66.1,466.6L71.6,479.9L77.9,493L85,505.9L92.9,518.6L101.6,531.1L111,543.2L121.2,555.1L132.1,566.6L143.6,577.7L155.9,588.6L168.8,599L182.4,609L196.5,618.6L211.3,627.7L226.6,636.4L242.4,644.6L258.7,652.3L275.4,659.5L292.6,666.1L310.2,672.3L328.1,677.8L346.4,682.9L364.9,687.3L383.7,691.2L402.8,694.5L422,697.2L441.4,699.3L460.9,700.8L480.4,701.7L500,702L519.6,701.7L539.1,700.8L558.6,699.3L578,697.2L597.2,694.5L616.3,691.2L635.1,687.3L653.6,682.9L671.9,677.8L689.8,672.3L707.4,666.1L724.6,659.5L741.3,652.3L757.6,644.6L773.4,636.4L788.7,627.7L803.5,618.6L817.6,609L831.2,599L844.1,588.6L856.4,577.7L867.9,566.6L878.8,555.1L889,543.2L898.4,531.1L907.1,518.6L915,505.9L922.1,493L928.4,479.9L933.9,466.6L938.5,453.1L942.3,439.6L945.3,425.9L947.5,412.1L948.7,398.3L949.2,384.4L948.7,370.5L947.5,356.7L945.3,342.9L942.3,329.2L938.5,315.7L933.9,302.2L928.4,288.9L922.1,275.8L918.3,268.7M162,162L160.9,163.1L150.9,173.7L141.5,184.6L132.8,195.8L124.8,207.3L117.6,219L111,230.9L105.2,243L100.1,255.2L95.9,267.6L92.3,280.2L89.6,292.8L87.6,305.5L86.4,318.2L86,331L86.4,343.8L87.6,356.5L89.6,369.2L92.3,381.8L95.9,394.4L100.1,406.8L105.2,419L111,431.1L117.6,443L124.8,454.7L132.8,466.2L141.5,477.4L150.9,488.3L160.9,498.9L171.6,509.2L182.9,519.2L194.8,528.8L207.3,538L220.3,546.8L233.9,555.2L248,563.2L262.6,570.8L277.6,577.9L293,584.5L308.9,590.6L325.1,596.3L341.6,601.4L358.4,606.1L375.5,610.2L392.9,613.7L410.4,616.8L428.1,619.3L446,621.2L463.9,622.6L481.9,623.4L500,623.7L518.1,623.4L536.1,622.6L554,621.2L571.9,619.3L589.6,616.8L607.1,613.7L624.5,610.2L641.6,606.1L658.4,601.4L674.9,596.3L691.1,590.6L707,584.5L722.4,577.9L737.4,570.8L752,563.2L766.1,555.2L779.7,546.8L792.7,538L805.2,528.8L817.1,519.2L828.4,509.2L839.1,498.9L849.1,488.3L858.5,477.4L867.2,466.2L875.2,454.7L882.4,443L889,431.1L894.8,419L899.9,406.8L904.1,394.4L907.7,381.8L910.4,369.2L912.4,356.5L913.6,343.8L914,331L913.6,318.2L912.4,305.5L910.4,292.8L907.7,280.2L904.1,267.6L899.9,255.2L894.8,243L889,230.9L882.4,219L875.2,207.3L867.2,195.8L858.5,184.6L849.1,173.7L839.1,163.1L838,162M300.9,65.4L290,70.6L277.1,77.3L264.6,84.4L252.6,91.8L241.1,99.7L230,107.8L219.5,116.3L209.5,125.1L200.1,134.2L191.2,143.6L182.9,153.3L175.2,163.2L168.1,173.3L161.7,183.7L155.9,194.2L150.8,204.9L146.3,215.7L142.5,226.7L139.4,237.8L137,248.9L135.2,260.2L134.2,271.4L133.8,282.7L134.2,294L135.2,305.3L137,316.5L139.4,327.7L142.5,338.8L146.3,349.8L150.8,360.6L155.9,371.3L161.7,381.8L168.1,392.2L175.2,402.3L182.9,412.2L191.2,421.9L200.1,431.3L209.5,440.4L219.5,449.2L230,457.7L241.1,465.8L252.6,473.6L264.6,481.1L277.1,488.2L290,494.8L303.3,501.1L316.9,507L330.9,512.4L345.3,517.4L359.9,522L374.8,526L389.9,529.7L405.2,532.8L420.7,535.5L436.4,537.7L452.2,539.4L468.1,540.7L484,541.4L500,541.7L516,541.4L531.9,540.7L547.8,539.4L563.6,537.7L579.3,535.5L594.8,532.8L610.1,529.7L625.2,526L640.1,522L654.7,517.4L669.1,512.4L683.1,507L696.7,501.1L710,494.8L722.9,488.2L735.4,481.1L747.4,473.6L758.9,465.8L770,457.7L780.5,449.2L790.5,440.4L799.9,431.3L808.8,421.9L817.1,412.2L824.8,402.3L831.9,392.2L838.3,381.8L844.1,371.3L849.2,360.6L853.7,349.8L857.5,338.8L860.6,327.7L863,316.5L864.8,305.3L865.8,294L866.2,282.7L865.8,271.4L864.8,260.2L863,248.9L860.6,237.8L857.5,226.7L853.7,215.7L849.2,204.9L844.1,194.2L838.3,183.7L831.9,173.3L824.8,163.2L817.1,153.3L808.8,143.6L799.9,134.2L790.5,125.1L780.5,116.3L770,107.8L758.9,99.7L747.4,91.8L735.4,84.4L722.9,77.3L710,70.6L699.1,65.4M553.4,27.1L540.1,25.7L526.8,24.6L513.4,24L500,23.8L486.6,24L473.2,24.6L459.9,25.7L446.6,27.1L433.5,29L420.5,31.2L407.6,33.9L394.9,36.9L382.4,40.4L370.1,44.2L358.1,48.4L346.4,52.9L334.9,57.8L323.8,63.1L313,68.7L302.5,74.6L292.4,80.9L282.7,87.5L273.5,94.3L264.6,101.4L256.2,108.8L248.3,116.5L240.9,124.3L233.9,132.4L227.5,140.8L221.5,149.3L216.1,157.9L211.3,166.8L207,175.7L203.2,184.8L200,194.1L197.4,203.4L195.4,212.7L193.9,222.1L193,231.6L192.7,241.1L193,250.6L193.9,260L195.4,269.4L197.4,278.8L200,288.1L203.2,297.3L207,306.4L211.3,315.4L216.1,324.2L221.5,332.9L227.5,341.4L233.9,349.7L240.9,357.8L248.3,365.7L256.2,373.3L264.6,380.7L273.5,387.9L282.7,394.7L292.4,401.3L302.5,407.5L313,413.4L323.8,419L334.9,424.3L346.4,429.2L358.1,433.8L370.1,438L382.4,441.8L394.9,445.2L407.6,448.3L420.5,450.9L433.5,453.2L446.6,455L459.9,456.5L473.2,457.5L486.6,458.1L500,458.3L513.4,458.1L526.8,457.5L540.1,456.5L553.4,455L566.5,453.2L579.5,450.9L592.4,448.3L605.1,445.2L617.6,441.8L629.9,438L641.9,433.8L653.6,429.2L665.1,424.3L676.2,419L687,413.4L697.5,407.5L707.6,401.3L717.3,394.7L726.5,387.9L735.4,380.7L743.8,373.3L751.7,365.7L759.1,357.8L766.1,349.7L772.5,341.4L778.5,332.9L783.9,324.2L788.7,315.4L793,306.4L796.8,297.3L800,288.1L802.6,278.8L804.6,269.4L806.1,260L807,250.6L807.3,241.1L807,231.6L806.1,222.1L804.6,212.7L802.6,203.4L800,194.1L796.8,184.8L793,175.7L788.7,166.8L783.9,157.9L778.5,149.3L772.5,140.8L766.1,132.4L759.1,124.3L751.7,116.5L743.8,108.8L735.4,101.4L726.5,94.3L717.3,87.5L707.6,80.9L697.5,74.6L687,68.7L676.2,63.1L665.1,57.8L653.6,52.9L641.9,48.4L629.9,44.2L617.6,40.4L605.1,36.9L592.4,33.9L579.5,31.2L566.5,29L553.4,27.1M541.5,40.9L531.2,39.7L520.8,38.9L510.4,38.4L500,38.3L489.6,38.4L479.2,38.9L468.8,39.7L458.5,40.9L448.3,42.3L438.1,44L428.1,46.1L418.3,48.5L408.5,51.2L399,54.1L389.6,57.4L380.5,60.9L371.6,64.8L362.9,68.9L354.5,73.2L346.4,77.8L338.5,82.7L331,87.8L323.8,93.1L316.9,98.7L310.4,104.4L304.2,110.4L298.4,116.5L293,122.8L288,129.3L283.4,135.9L279.2,142.6L275.4,149.5L272.1,156.5L269.1,163.5L266.7,170.7L264.6,177.9L263,185.2L261.9,192.6L261.2,199.9L261,207.3L261.2,214.7L261.9,222L263,229.3L264.6,236.6L266.7,243.9L269.1,251L272.1,258.1L275.4,265.1L279.2,272L283.4,278.7L288,285.3L293,291.8L298.4,298.1L304.2,304.2L310.4,310.2L316.9,315.9L323.8,321.5L331,326.8L338.5,331.9L346.4,336.7L354.5,341.4L362.9,345.7L371.6,349.8L380.5,353.6L389.6,357.2L399,360.5L408.5,363.4L418.3,366.1L428.1,368.5L438.1,370.5L448.3,372.3L458.5,373.7L468.8,374.8L479.2,375.6L489.6,376.1L500,376.3L510.4,376.1L520.8,375.6L531.2,374.8L541.5,373.7L551.7,372.3L561.9,370.5L571.9,368.5L581.7,366.1L591.5,363.4L601,360.5L610.4,357.2L619.5,353.6L628.4,349.8L637.1,345.7L645.5,341.4L653.6,336.7L661.5,331.9L669,326.8L676.2,321.5L683.1,315.9L689.6,310.2L695.8,304.2L701.6,298.1L707,291.8L712,285.3L716.6,278.7L720.8,272L724.6,265.1L727.9,258.1L730.9,251L733.3,243.9L735.4,236.6L737,229.3L738.1,222L738.8,214.7L739,207.3L738.8,199.9L738.1,192.6L737,185.2L735.4,177.9L733.3,170.7L730.9,163.5L727.9,156.5L724.6,149.5L720.8,142.6L716.6,135.9L712,129.3L707,122.8L701.6,116.5L695.8,110.4L689.6,104.4L683.1,98.7L676.2,93.1L669,87.8L661.5,82.7L653.6,77.8L645.5,73.2L637.1,68.9L628.4,64.8L619.5,60.9L610.4,57.4L601,54.1L591.5,51.2L581.7,48.5L571.9,46.1L561.9,44L551.7,42.3L541.5,40.9M528.4,68.5L521.3,67.8L514.2,67.2L507.1,66.9L500,66.8L492.9,66.9L485.8,67.2L478.7,67.8L471.6,68.5L464.6,69.5L457.7,70.7L450.8,72.1L444.1,73.8L437.4,75.6L430.9,77.6L424.5,79.8L418.3,82.3L412.2,84.9L406.2,87.7L400.5,90.7L394.9,93.8L389.6,97.2L384.4,100.6L379.5,104.3L374.8,108.1L370.3,112L366.1,116.1L362.1,120.3L358.4,124.6L355,129L351.8,133.5L349,138.1L346.4,142.8L344.1,147.6L342.1,152.5L340.4,157.4L339,162.3L337.9,167.3L337.1,172.3L336.7,177.3L336.5,182.4L336.7,187.4L337.1,192.5L337.9,197.5L339,202.5L340.4,207.4L342.1,212.3L344.1,217.1L346.4,221.9L349,226.6L351.8,231.2L355,235.8L358.4,240.2L362.1,244.5L366.1,248.7L370.3,252.8L374.8,256.7L379.5,260.5L384.4,264.1L389.6,267.6L394.9,270.9L400.5,274.1L406.2,277.1L412.2,279.9L418.3,282.5L424.5,284.9L430.9,287.2L437.4,289.2L444.1,291L450.8,292.6L457.7,294L464.6,295.2L471.6,296.2L478.7,297L485.8,297.5L492.9,297.9L500,298L507.1,297.9L514.2,297.5L521.3,297L528.4,296.2L535.4,295.2L542.3,294L549.2,292.6L555.9,291L562.6,289.2L569.1,287.2L575.5,284.9L581.7,282.5L587.8,279.9L593.8,277.1L599.5,274.1L605.1,270.9L610.4,267.6L615.6,264.1L620.5,260.5L625.2,256.7L629.7,252.8L633.9,248.7L637.9,244.5L641.6,240.2L645,235.8L648.2,231.2L651,226.6L653.6,221.9L655.9,217.1L657.9,212.3L659.6,207.4L661,202.5L662.1,197.5L662.9,192.5L663.3,187.4L663.5,182.4L663.3,177.3L662.9,172.3L662.1,167.3L661,162.3L659.6,157.4L657.9,152.5L655.9,147.6L653.6,142.8L651,138.1L648.2,133.5L645,129L641.6,124.6L637.9,120.3L633.9,116.1L629.7,112L625.2,108.1L620.5,104.3L615.6,100.6L610.4,97.2L605.1,93.8L599.5,90.7L593.8,87.7L587.8,84.9L581.7,82.3L575.5,79.8L569.1,77.6L562.6,75.6L555.9,73.8L549.2,72.1L542.3,70.7L535.4,69.5L528.4,68.5M514.4,109.3L510.8,108.9L507.2,108.7L503.6,108.5L500,108.4L496.4,108.5L492.8,108.7L489.2,108.9L485.6,109.3L482,109.8L478.5,110.4L475,111.2L471.6,112L468.2,112.9L464.9,113.9L461.7,115.1L458.5,116.3L455.4,117.6L452.4,119.1L449.5,120.6L446.6,122.2L443.9,123.9L441.3,125.6L438.8,127.5L436.4,129.4L434.1,131.4L432,133.5L430,135.6L428.1,137.8L426.4,140L424.8,142.3L423.3,144.7L422,147.1L420.8,149.5L419.8,151.9L419,154.4L418.3,156.9L417.7,159.5L417.3,162L417.1,164.6L417,167.1L417.1,169.7L417.3,172.3L417.7,174.8L418.3,177.3L419,179.8L419.8,182.3L420.8,184.8L422,187.2L423.3,189.6L424.8,191.9L426.4,194.2L428.1,196.5L430,198.7L432,200.8L434.1,202.9L436.4,204.9L438.8,206.8L441.3,208.6L443.9,210.4L446.6,212.1L449.5,213.7L452.4,215.2L455.4,216.6L458.5,218L461.7,219.2L464.9,220.3L468.2,221.4L471.6,222.3L475,223.1L478.5,223.8L482,224.4L485.6,224.9L489.2,225.3L492.8,225.6L496.4,225.8L500,225.8L503.6,225.8L507.2,225.6L510.8,225.3L514.4,224.9L518,224.4L521.5,223.8L525,223.1L528.4,222.3L531.8,221.4L535.1,220.3L538.3,219.2L541.5,218L544.6,216.6L547.6,215.2L550.5,213.7L553.4,212.1L556.1,210.4L558.7,208.6L561.2,206.8L563.6,204.9L565.9,202.9L568,200.8L570,198.7L571.9,196.5L573.6,194.2L575.2,191.9L576.7,189.6L578,187.2L579.2,184.8L580.2,182.3L581,179.8L581.7,177.3L582.3,174.8L582.7,172.3L582.9,169.7L583,167.1L582.9,164.6L582.7,162L582.3,159.5L581.7,156.9L581,154.4L580.2,151.9L579.2,149.5L578,147.1L576.7,144.7L575.2,142.3L573.6,140L571.9,137.8L570,135.6L568,133.5L565.9,131.4L563.6,129.4L561.2,127.5L558.7,125.6L556.1,123.9L553.4,122.2L550.5,120.6L547.6,119.1L544.6,117.6L541.5,116.3L538.3,115.1L535.1,113.9L531.8,112.9L528.4,112L525,111.2L521.5,110.4L518,109.8L514.4,109.3" fill="none" stroke="rgba(255,255,255,0.035)" stroke-width="1"/>
<path d="M740.8,460.6L737.5,453.2L730.1,453.9L724.1,447.8L720.5,445.7L726,443.3L722.7,442.6L722.2,437.6L730,432.8L727.2,432.3L726.2,426.8L722.2,422L719.2,425L714.2,425.5L708.7,436.3L706.4,442.9L703.7,446L703.5,455.1L708.7,458.5L712.5,465.4L722,471.4L728,475.7L736.2,477.9L732.5,480.9L735,496L738.5,501.1L744.7,500L751.9,501.8L757.7,499.4L765.7,492.2L763.6,488.5L758,477.6L753.1,477L752.3,471.2L749.6,473.1L745.6,464.7L750.8,464.9L754.2,460.3L745.7,454.3L742.2,457.8L744.6,463.7ZM977.3,473.4L977.3,475.3L977.1,473.2L976.8,472.4L975,461.4L973.4,459.2L972.5,460.1L970.3,447.7L969.6,446.3L968.1,439.4L965.3,431.2L961.7,425.8L957.8,416.5L957.8,418.7L955.7,416.5L957.4,422.7L957.7,437.6L956.6,434.4L957.1,439.4L953.7,428.4L950,423.7L948,424L948.3,420.8L945.6,422.7L942.9,422.2L935.5,414.7L935.8,419.2L933.7,418L936.4,423.1L936.4,432.9L934.8,432.4L936.2,434.9L934,442.3L933.9,449.2L935.6,451.8L936.6,460.2L935.7,468.4L936.5,481.8L935.6,500L936.4,502.4L934.5,509L934.9,514.2L933.2,518.2L933.9,523.4L938,532.5L939,543.6L941.5,554L940.2,556.6L940.4,565.2L938.5,571.8L938.6,575.6L937.3,580.5L935.2,581.4L931.8,578.4L931.3,575.3L927.2,569.7L924.3,568.1L917.3,556.9L911,551.6L899.5,531.3L898.3,525.5L891.9,517.8L893.7,525.9L891.1,533.4L888.7,535.4L879.4,533.5L882.9,525.5L882.8,521.6L880.4,526.7L875.2,528.6L871.4,526.3L869.5,528.9L864.7,524.9L862.5,526.3L859.2,522.7L852.8,533.1L838.9,546.1L826.1,555L816.5,559.2L811.7,552.7L807.7,553L801.8,563.1L795,566.2L786,564.2L778.1,564.6L773.4,559.2L765.9,553.5L763.5,556.5L760,556L758,560.2L754.8,561.9L761.1,571.1L765.1,575.9L774.1,578.6L776.1,583.6L783.6,590.6L781.8,586L783,579.1L787.3,585.2L786.6,590.2L789.1,591.5L791.7,592.4L795.5,588.5L802.6,584.5L809.3,562.1L811.5,564.2L813.7,568.6L820.7,572.8L828.3,569.3L838,574.2L835.4,592.2L833.1,592.6L833.1,600.8L834.8,604.5L829.5,612.2L828.6,618.1L824.4,622L823.5,629.2L817.9,633.4L812.8,639.7L808.9,645L809.3,649.8L804.6,656.2L793.2,667.5L789.7,674L785.4,676.4L782.2,681.1L771.1,689.2L767.6,694.9L760.4,699.8L757.1,699.8L748.8,682.6L748.4,677.3L743.7,671.3L739.4,669.7L730.1,659.1L721.2,656.7L716.5,652.3L713.7,641.7L707.1,635.1L701.5,634.1L697.2,627.5L679.5,611.1L675.6,611.5L675.8,601.4L675.5,599.8L675.2,600.6L673.5,615.3L665.7,611.1L658.9,601.5L658.1,604.6L663.4,611.8L668.8,615.7L673.5,624.5L688.4,641.7L690.9,648.7L700.3,653L703.8,658.1L706.2,669.8L708.7,674.8L717.7,677.7L720.5,681.1L724.9,690.7L729.2,695L739.4,694.5L749.3,700.6L754.8,701.8L757.3,704.4L752.6,711.1L756.8,709.6L765.5,713.1L769.3,711.2L774.7,705.7L779.8,703.7L784.8,697.9L794.6,691.9L801.7,685.7L805.5,680.1L808.5,679.4L809.1,687.7L808.3,696.9L800.8,718.3L799.4,724.6L793.2,739.1L781,758.4L769.5,770.8L763.6,778.3L753.1,792.4L749.9,798L740.3,807.6L739.5,811.1L732.6,821.6L729.2,829.2L729.4,831.4L733.7,833.8L731.8,836.5L731.4,841.2L733.9,847.2L738.3,847.9L737.2,852.3L737.3,857.9L735.9,866.3L734.2,870.7L728.1,876.8L722.2,881.2L715.3,884.8L708.4,889.2L700.7,895.7L689.7,902.9L687.2,905.6L688.7,906.5L690,912.6L684.8,918.7L671.3,924.9L665,928.7L665.8,930.5L659.1,936.4L651.6,940.2L642.1,945.8L630.6,951L622.9,954L612.4,957.4L601.2,960.2L593.1,961.4L584,963L580.6,963.9L572,965.2L565.7,966.5L558.4,966L554.9,964.6L557.8,964L558.1,962.3L554.7,961.2L550.4,958.2L547.1,956.7L547.1,956.7L539.5,954.3L537.1,951.7L536.5,948.2L534.2,945.9L533.4,939.7L526.9,935.8L519.4,929.1L514.1,925.8L513.9,922.9L514.1,917.2L515.8,916.4L520.7,907L527.8,902.6L530.9,899.3L531.5,895.8L524.7,886.5L527.9,883L519.1,871.7L525.5,870.3L518.4,870L516.8,866L509.4,860.2L494.2,849L490.2,842.1L494.1,840L496.6,831.8L494.9,831.2L498.3,824.1L499.6,819.4L496.3,814.9L491.7,813L488,808.7L467.4,811L463.4,808.5L461.7,803.6L457.4,799.3L451.4,796.4L439.7,795.7L430.8,795.8L427.2,796.3L400.9,801.4L392,797.9L392.2,797.7L392.8,797.8L384.5,795.7L372.3,794.3L356.3,795.7L344,788.3L335.3,779.5L326,771.5L318.7,766.3L314,759.3L313.3,753.4L310.8,746.6L305.5,742.7L301.3,736.5L298.9,733.8L299.1,728.7L296.2,729L290.1,722.6L290.3,717.6L292.2,714.5L288.8,705.5L294.6,698.7L295.9,693.4L299.6,687.6L300.7,680.5L298.7,673.3L301.9,667.7L298.4,659.7L296.8,661.3L298,656.9L299.1,653.5L304.1,649.7L309,641.5L316,638.1L322.8,626.5L329.2,624.6L335.3,616.8L346.3,616.1L353.8,612.6L360.8,605.8L361.8,595.1L367.2,586.9L372.4,583.1L384.8,579.4L393.6,566L397.4,567.1L400.1,571.5L417.2,575.9L419.3,576.3L429.9,571.4L433.1,571.5L441.6,567.3L450.5,567.6L458.6,565.8L465.1,566.3L469.4,568.3L476.6,565.3L486.1,567.5L490.5,567L497.9,563.7L502.8,568.7L507.5,567.5L503.5,572.1L507.6,581L500.4,589.5L501.1,592.4L507.6,594.7L510.5,597.8L516,600.3L523,599.6L536.4,603.2L539,609L543.6,611.8L552.4,612.6L564.1,617.8L569.5,615.6L572.2,610.5L570,604.7L572.6,599.4L580.9,594.1L591.2,595.1L592.9,598.1L602.7,598L606.3,600.3L621,599.6L633.4,601L642.1,593.9L649.6,591.8L654,593.6L665.7,589.4L667.4,587.6L668.7,585L670,571.9L672.3,558L669.1,548L667.8,539.8L664.6,543.8L659.4,543.7L655,550.3L649.8,553.1L639.4,549.6L634.8,550.3L634.3,555.7L630,557.5L625,554.2L614.8,552.7L611.1,549L611.6,546.5L605.2,545.3L610.1,543.1L606.2,536.5L602.4,535.8L602.1,531.5L604.8,527.4L618.8,524L623,520.3L617.7,519.3L618.9,517.1L630.6,515.1L635.4,508.4L640.9,504.3L648.8,502.3L656.8,502L660.4,504.4L671.7,503.3L677,499.6L681.9,498.9L687.1,491.7L687.1,487.6L683.6,482.9L673.5,480.3L664.4,476.2L651.3,473.6L655.8,469.7L655.5,464.3L658.1,462.5L652.9,459.6L659.2,453L653.8,455.2L643,463.3L639.1,468.4L641,471.8L645,474.1L650.2,471.6L650.1,474.6L645.6,475.6L638.5,484.4L635.5,483.8L634.8,479.3L628.5,478.6L632.7,471.3L626.8,473.2L622.5,472.3L626.1,468.7L616.7,471.9L615,478.3L612,480.6L613.5,483.9L610.8,488.9L610.1,497.8L607.3,503.2L605.9,509.6L609.9,513L612.7,516.6L617.4,517.5L616.2,520L608.5,521.8L604.8,525.5L600.1,525.6L594,524.6L586.1,528.1L584,532.9L579.5,531.3L579.8,535.1L585,540.6L581.1,544.5L590.6,548.1L591.8,552.6L588.4,550.7L585.1,552.4L588.5,555.5L583.5,555.5L585.8,559.5L582.3,564.2L578.9,562.9L576,556.6L572.9,554.4L576.8,549.9L584.3,551.9L585.5,549.8L580.5,548.4L572.2,550.1L569.5,545.3L563.9,540.1L558.8,532.7L559.3,523.3L557.8,522.8L552.2,518.7L546.7,515.3L546.2,515L541.8,511.6L536.1,511L530.6,505.2L528.6,498.5L525.3,496.5L523.4,500.8L520.9,495.2L521.7,494.6L521.1,493.1L513.3,496.1L514.9,500L514.3,506.3L521.2,511.1L524.6,518.7L532,524.5L536.9,524.2L537.5,528.3L550.2,533.8L553.9,538L543.9,536L541.7,541.1L546.4,547.9L542.6,550.6L539.8,557.3L537.6,557.4L540.2,550.4L536.3,540.5L531.5,538.7L530.1,535.2L523.4,530.8L516.4,529.2L504.3,517.2L500.3,508.2L492.6,504.8L484.9,510.1L484.6,510.2L484.2,510.3L476.3,515.5L470.1,512.1L464.1,510.4L457.6,515.6L458.3,519.7L458.2,523.7L450.5,528.5L443.8,529.7L433.9,541.4L436.6,548.1L430.6,552.4L428.9,557L425.6,556.7L419.1,562.5L404.9,560.4L395.9,564.5L393.4,562.6L391.6,555.8L386.1,552.7L383.1,553.5L375.8,551.6L378.9,540.3L375.7,537.1L384.7,519.7L385.5,512.1L386.6,509.5L384.8,503.1L387.5,500.7L395.1,498.7L397.3,500.7L406.5,502.7L412.9,505.4L418.5,505.5L429,508.1L431,507.1L436.2,489.5L436.2,484.7L432.8,482.5L430.5,474L419,467.3L419.6,463.1L428,462.1L430.5,465L437.7,465.2L436.5,456.3L439.9,459.3L445,460.7L447.3,457.6L455.3,453.9L455.7,449.9L460.9,447.4L465.4,445.5L470,445.8L466.1,444.2L471.9,438.2L473.2,434.2L480.4,429.6L486,430.9L486.6,427.6L492.5,429.2L495,425.8L493.6,417.7L493.5,413.5L491.2,412L491.6,403.7L493.8,399.7L498,398.7L502.4,394.6L501.3,403.7L503.9,404.5L498.1,412.9L498.7,418.4L500.7,421.2L504.9,422.1L506.9,425.6L512.5,421.2L518.2,423.5L521,426.9L520.7,425.8L520.7,425.1L530.1,421.7L531.7,419.4L539.8,416.3L541.9,419.4L546.4,418.7L547.6,414.7L551.5,411.2L551.8,411.2L553.1,411.1L551.1,404.7L550.2,398.6L552.1,392.2L555.5,390.4L561.5,395.7L564.2,392.2L562.9,387.9L562.9,383.9L559.7,384.4L557.1,378L564.6,373L570.9,373.2L575.1,372L574.5,370.2L578.4,366.9L574.3,362.3L571.9,364L563.8,367.4L553.9,373.4L551.5,369.2L546.5,368.2L545.7,360.2L542.3,352.4L543.1,347.6L545.8,346.3L551.2,333.5L553.5,332.5L552.5,327.8L547.9,326L541.9,326.7L539.9,330.5L539.3,335.3L541.1,337.8L539.3,342.8L532.3,349.2L530,352.2L528.4,361.2L529.5,369.3L532.5,369.9L537.5,376.2L534.8,379.2L535.4,381.7L529.5,386.5L529.6,398.9L527.8,405.9L521.9,407.1L519.8,413.2L513.7,413.4L511.6,406.2L513.2,403.5L511,401.2L505.5,388.6L506,384L502.4,379.6L500.8,384.3L498.7,384.3L493.5,390L488.8,392.1L484.8,391.1L481.3,387.7L481.2,383.7L484.3,379.7L480.2,382.4L479.4,378.3L481.2,366.8L480,361.9L481.1,358.4L487.7,354.4L488.7,352.4L492.8,351.5L494,348L498.9,347.3L502.8,348.6L503.4,346.2L499.7,348.2L498.6,346L502,341.1L505.4,338.5L510.5,326.7L510.6,323.5L515.8,316L515.8,313.1L518.6,310.8L519.6,313.3L520.2,307.6L522.2,306.1L526.4,298.4L533.7,295.5L531.8,294L535.3,292.4L537.4,293L539.6,286.8L542.6,287.4L542.2,293.2L544.4,286.6L545.7,290.2L547.4,286.6L546.8,284.6L549.2,285L550.3,290.1L551.3,285.4L557.7,288.4L554.9,291.5L555.5,292.9L558.8,292L561.3,289.9L564.5,290.6L563.8,293L574.1,292.1L580.8,293.8L583.9,295.5L593.3,297.2L596.4,300.2L597,306.5L592.2,311.7L582.4,312.4L575.1,311.7L572.5,309.9L569.2,310.2L581.9,317L582.2,320.8L586.3,326.5L593,328.9L597.2,329.1L597.1,324.8L594.3,325L590.7,322.6L590.8,319.8L601.8,320.7L603.2,318.4L598.2,313.4L601,307.6L601.5,303.9L604.8,303.4L609,305L607.2,300L603.2,297.3L599.2,289.2L596,288.2L602.8,286L607.7,289.1L605.1,291.3L605.4,294.8L610.4,296.7L614.2,293.6L611.9,289.3L615.3,280.2L618.6,271.9L621.9,275.1L621.3,277.2L624.2,275.2L625.3,270.6L628.1,269.5L629.4,263.8L632.7,266.9L634.5,265.8L632.8,264.1L633.1,260.9L628,258.7L628,255.9L633.2,253.1L644.5,251.1L650.4,251.4L647.4,246.8L646.3,247.8L642.1,246.2L639,247.4L632.7,241.2L631.6,241.6L628.5,239.1L627.8,235L622.1,229.1L621.3,227.2L623.4,224.3L626.5,223.3L630.6,226.2L633.5,229.7L637.1,230.4L643.1,234.6L653.1,240.6L656.3,240.4L660.7,244.4L665.8,253L666.1,255.8L662.6,255.9L663.2,258.7L666.7,257.5L669.9,254.7L668.5,252.1L667.6,247.2L663.6,241.7L658.5,239.4L656.5,237.6L657.2,232.9L661.8,233.6L666.6,236.7L667.3,236L664.2,232.9L659.1,230.9L654.8,232.7L653.1,237.1L648.4,235.2L643.3,229.9L635.6,228.3L633.5,225.5L632.8,222.1L627.8,219.6L628.5,218.8L632.5,220.2L635.5,223.1L639,224.9L642.6,221.7L642.5,220.2L638.2,222.2L635.6,221.3L637.5,217.5L635,217.8L635.4,213.8L638.8,212.6L642,212.6L643.2,210L646.3,212.9L651.6,215.6L649.6,212.9L654.3,215L652.8,212.8L648.2,211.9L644.8,209.5L638.8,209.7L635.9,211.1L627.5,207.6L628.9,202.6L629,197L629.8,196.5L631.7,199.4L631.4,197L629.4,196.1L622.7,196L622.9,194.6L619.8,191.8L617.2,187L616.1,181.5L614.2,181.9L613.9,179.5L614.7,177.5L616.3,177.2L613.6,173.6L614.5,172.1L611.7,173L611.4,170.1L607.6,169.4L602.3,165.9L601.3,164.7L603.8,162.4L606.4,165L606.5,161.5L607.2,160.9L610.8,162.5L610.5,160.9L608.7,160.2L607.7,156.1L610.6,153.2L616.6,152.7L620.5,154L627.3,159L632.8,162.1L636.5,165.8L640.4,167.1L637.8,165.5L637.1,163.3L634,159.5L631.5,157.7L632,159.5L629.5,158.5L631.1,155.6L628.8,154.4L632.5,154.1L629.4,150.5L628.1,145.6L630.7,145.6L631.7,143.4L628.8,137.9L626.6,137.3L624.4,138L621.8,136.5L622.6,132.9L620.6,132.3L621,129.2L623.4,129.4L624,128.2L626.2,129.3L626.5,127.6L628.7,128.1L627.6,130.2L634.3,125.9L634.9,123.2L633.3,122.7L624.9,122.1L626.6,120.4L625.4,118.3L622.1,116.8L621.5,113.3L618.9,113.4L616.3,110.5L613.5,112.8L610.8,112.9L607.8,111L606.6,112.1L605.4,110L603.1,108.1L599.7,104.1L604.5,106.3L602,104.2L604.4,103.1L598.1,102.4L595.1,99.5L596,98.3L597.9,99.2L595.3,94.9L595.5,92.7L586.8,89.6L582.2,87.2L580.2,85.2L580.5,83.1L583,81.8L581,80.3L582.6,78.7L581.9,77.7L580.2,79L577.1,79L572.2,77.5L571.7,76.9L565.7,74.5L563,74.7L562.5,72.7L560.3,71.4L560.3,70.3L555.7,70.1L556.5,72.5L554.3,73.8L546,71.1L540.4,70L532.5,66.9L529.8,65.1L535,53.2L540.8,52.6L548.7,54.9L547,53.6L544.5,53.7L544.9,52.8L542.2,52.1L539.7,47.2L541.9,46.5L548.4,48.2L563.9,48.7L570,48.3L578.3,48.7L580.4,48.1L583.2,50.4L587.5,51.5L592.7,52.3L596.3,52.3L594.5,53.3L600.4,54.2L607.5,55.9L609.7,55.2L616.9,55.6L618.8,55.4L617.9,54.2L614.8,53.2L617.9,53.3L619.6,52.6L619.2,51.1L624.8,52.9L628.7,52.7L629.1,51.6L635.4,53.6L641.9,54.6L643.3,53.9L644.8,54.8L650.3,56.4L656.2,56.9L665.1,59.4L661.1,60.5L660.4,61.2L653.7,63.5L646.8,63.7L640.1,62.6L639.7,63.2L633.4,61.2L628.8,60.3L623.2,59.9L612.6,58.6L610.8,58.7L602.9,57.3L596.7,59.3L591.9,58.3L595.2,60L598.9,60.8L602.5,59.8L605.1,60.3L614.1,61L616.8,62.7L611.9,63.3L615.6,65.3L621.5,67.5L631.8,68.5L635.6,69.4L642,69.8L639.9,67.6L644.4,69.5L646,70.8L648.8,71.4L654.4,74.3L654.2,74.8L649.7,72.8L651,74.6L655.8,78.3L665,82.1L667.5,84.4L677.5,91.3L682.9,93.7L695.7,98.2L703.5,101.5L710.7,104.2L724.2,111.2L724.5,109.8L721.6,107.2L726.3,107.9L723.4,106.7L722.2,104.7L726,106.6L720.6,102.8L717.6,102.2L714.7,99.5L714.9,95.5L719.7,96.5L719.6,95.7L727,98.5L731.1,99.6L735.5,100.3L741.9,102.4L754.6,109L763.6,113.6L776.9,122L783.4,126.2L794.1,134.9L796,137.6L793.9,136.7L795.9,138.7L804,144.9L809.8,149.9L814,152.2L822.2,159.9L825.6,163.5L828.8,165.8L828.6,163.5L831.6,163.5L836.1,166.2L841,170.4L844.8,174.7L846.8,177.5L853.2,184.7L850.4,183L846.4,179.1L843,177.1L837.7,173.2L839.3,176.2L841.7,178.7L841.6,180.2L837.4,176L833.2,173.2L833.5,175.9L838.6,182.4L845.9,190.8L846.9,193L843,188.4L844.3,190.7L836.1,182.9L836.9,186.4L841.9,191.4L845.5,196.2L850.6,201.6L853.1,206.6L856,209.4L857.3,208.9L856.1,205.3L859.5,207.7L859.4,206.3L853,198.1L852.7,195.5L850.4,191.4L852.9,193.4L854.3,195.9L858.3,201.3L861,204.2L867.9,212.9L870.9,216L870.5,212.9L874.5,214.9L877.4,215.3L879.2,219.6L879.5,217.7L881.8,220.2L886.9,227.3L884.9,224.1L884.1,221.5L887.3,225.2L892.7,232.7L902.9,247.1L906.9,252.8L907.9,254.8L912.1,261.6L920.5,277.2L922.1,280L925.2,287.3L927.9,293.5L928.4,295L928.1,295.3L930.2,298.9L930.4,299.4L933.8,307.9L937.9,320.1L939.6,323.8L940.2,323.8L941.4,327.2L939.5,325.1L938.1,322L939.3,326.8L939.3,328.6L940.4,332.5L942.9,339.8L943.2,342.2L945.4,346.8L946.9,351.6L949.9,358.8L951.8,359.5L953.8,361.3L954.2,359.7L955.4,360.4L958,366L960.2,372.1L960.4,373.2L962.9,381.8L967.3,401.3L968.4,406.9L971,421.7L969.6,415.4L969,412.3L968.7,413.3L968.6,417.8L967.4,414.5L966.1,415.8L966.2,420.6L964.9,416L965.1,421.8L967.3,428.8L970.2,444.3L971.8,449.4L971.7,446.9L973,449.7L974.2,455.2L974.4,450.8L974.8,450.9L975.1,450L975.4,451.3L976.3,459.6L976.3,459.6ZM822.6,664.2L827.1,661.8L822,666.9ZM22,498.5L22,494.8L22.2,499.4L22.2,498.1L22.5,494.6L23,496.8L23.7,494.1L23.6,492.3L25.6,477.2L26.1,469.8L26.9,461.8L27.4,461.7L27.9,450.4L26.8,449.8L26.1,455.8L25.8,452.6L26.6,447L27.5,435.4L27.3,435.7L28.1,431.1L28.4,427.6L28.9,425.7L30.3,416.3L31.4,409.2L33.2,401.9L36,390L38.2,380.6L38,382L39.3,377L39,377.5L40.3,371.6L42.9,362.2L44.8,355.2L47.8,345.8L54.1,328.4L56.9,321.1L57.1,320.3L58.4,317L58.4,317L65.1,301.7L72.3,286.6L80,271.8L88.2,257.3L96.9,243.1L106.1,229.2L115.8,215.6L125,203.6L125.9,202.4L131.2,195.9L134,192.6L136,190.2L138.6,187.2L146.1,178.7L156.1,168.4L157.2,167.3L167.3,157.1L159.1,164.9L148.4,176.2L148.4,176.2L159.9,164.1L166,158L168.1,156L173.3,151.1L178.7,146.2L182.9,142.6L190,136.5L196.2,131.2L200.3,127.8L203.1,125.6L213.3,118L215.5,116.5L218.8,114.1L221.7,112.3L231.1,106L235.6,103.5L240.2,100.8L242.3,100.2L250.1,96.4L252,96.3L259,94.5L266.1,92.3L274.4,89.4L270.6,91.6L265.9,95.1L261.3,96.5L263.3,96.8L269.8,94.3L274,92.4L276.3,90.8L282,88L285.3,87L290.7,83.4L293.3,83L294.5,81.7L298.2,79.9L303.6,79.5L302.5,78.8L308.1,78L314.5,76.3L314.5,75.3L319.5,73.6L320.1,74.3L322.8,73.5L324.2,75.7L325.3,74.8L327.8,74.9L324.7,74.2L324.9,73.3L332.3,72.6L335.1,70.2L335.5,71.3L343.2,69.7L345.7,68.8L348.2,69L355.1,67.6L361.4,67L356.1,66.9L361.5,64.1L366.3,62.9L371.1,62.2L378.1,60.6L378.8,61.7L380.3,60.2L391.6,56.9L395.8,55.2L403.5,54.4L406.7,53.6L408.3,54.3L414.8,51.5L412.2,51.6L411.7,50.7L413.6,49.6L416.2,49.3L416.1,48.5L419.5,47.1L420.2,46.2L423.3,45.3L422.3,46.5L425.1,46.3L425.3,48.6L422.5,50L419.2,50.8L423.8,50.4L426.8,48.9L433.2,43.1L429.1,43.3L431.5,41.3L434.5,40.4L439.7,38.1L439.8,37.5L446.9,35.3L446,35L459.8,32L462.3,31.3L466.3,31L463.3,32.1L455.3,34L449.8,35.7L445.5,37.6L445.9,39.2L445,40.3L448.4,39.3L451.9,39.3L451.4,38.5L458.8,38.8L462.7,37.5L466.1,38.4L465.6,39.1L468.7,40.4L469.1,39.7L474.5,38.8L481,40L478.9,40.9L474.4,40.6L473.2,41L480.5,41L484.8,42.4L477.9,46.9L474.9,46.5L471.4,48.1L467.6,48.4L466.2,49.5L469.3,51.1L469,52.3L474.1,50.2L477.5,50.5L481.7,49.9L486.2,50L489.2,51.5L486.8,52L493.4,52.8L484.8,55.4L479.3,56.4L478.7,54.8L472.4,55.3L473.2,56.8L468.9,56.7L467.9,57.4L471.6,56.9L472.8,58.2L479.7,58.2L481.4,59.4L485.6,60.6L490.1,61.4L488.6,63.2L482.9,63.7L480,65.5L479.7,66.8L477.6,68.5L474.8,69.3L471,71.9L467.4,72.2L464.3,74.9L457.2,73.9L455,74.8L448.4,74.3L443.5,75.9L438.6,76.1L433.6,77.4L431.4,77.5L426.7,79.5L419.4,80.3L414.3,81.8L410.2,82L405.5,82.9L403.5,84L404.8,85.2L401.4,87.8L399.3,88.5L396.7,93.5L394.1,94.3L395.2,91.8L396.9,90.4L397.3,87L396.1,90.2L394.3,91.2L392.4,94.7L391.2,94.6L391.3,97.5L390.1,98.1L386.2,97.8L381.6,98.9L383.9,100L383.9,101.6L380.9,101.3L380.1,100.3L378.1,101.6L379.4,103.2L374.5,106.1L371.8,106.7L365.5,109.8L360.5,113L360.6,113.9L354.1,116.2L353.5,113.1L349.1,116.2L345.1,121.3L345,123.1L340,125.9L336.1,127.1L336.5,125.9L332.9,127.4L333,128.6L340,127.1L341.9,127.6L341,130.3L342.4,131.6L345,125.9L346.5,126.8L345.7,131L341.5,132.3L336.9,134.7L336.6,136.2L333.5,137.8L331.3,140.2L331.1,142.4L328.7,145.5L328.8,146.7L326.4,148.9L327.9,149.2L329.1,147.3L333,146L332.4,148.8L329,150.1L329.7,151.6L324.6,151.3L321.8,153.9L325.6,152.7L330.8,156.2L333.5,154.1L337.4,154.3L341.6,150.5L345.7,149.3L346.9,150.5L349.4,149.1L352.8,149.2L356.9,152.3L350.3,155.6L347.2,155.8L345.3,157.1L340.4,158.4L338.1,156.9L335.5,161.7L334.2,160.6L330.5,162.6L325.7,163.9L331.3,164.1L332.9,165.1L328.9,167.8L324.7,168.9L325,167.8L321,168.9L316.1,171.9L318.4,173L327.7,173.2L329.9,174.1L331.3,172.7L336.1,171.7L333.9,178.2L332.8,177.7L329.7,181.4L327.9,180.5L326.1,182.4L324.6,180.1L316.8,185L314,185.3L308.8,182L313.6,178.5L308.2,181.5L307.5,180.1L310.5,177.2L310.9,174.4L306.8,176.7L302.3,174.9L302.6,173.3L307.9,168L308.9,165L306.4,168.3L303.1,170.8L301,175.8L293.9,175L292.9,173.5L293.6,170.1L291.2,170.5L292.7,166.3L289.4,169.6L286.5,170L286.7,166.3L285.1,167.6L283.9,165.9L282.1,166.9L281.4,164.4L280,165.4L277.4,164L268.6,164.2L261.2,166.2L258.7,170.8L247.7,176.3L245.6,176.1L246.2,180.5L241.8,188.3L235.4,194.8L231.7,201.6L228.8,205.2L228.6,208.9L227.1,213.9L224.8,216.2L221.7,217L218,219.7L213,221.7L207.4,227.2L204.1,232.1L201.2,234.4L199.9,238L207.5,238.2L219.7,228.8L223.8,225.3L227.6,229.4L233.9,230.5L242.8,225.9L247.1,222.2L251.6,215.8L261.6,215.1L267.1,210.1L272.5,209.8L274,208L278.3,205.9L280.1,207.1L278.1,215.7L280.4,217.3L277.8,221.7L272,228.2L272.2,234.3L264.4,237.4L260.4,241L257,242.4L257.3,246.1L254.8,248.2L254.1,251L262.3,253.1L267.3,250.7L271.8,250.4L258.3,269.7L254.9,269.9L253.4,275.4L251.2,276.9L250.3,274.7L249,278.2L246.6,279.9L246.9,284.4L241.8,287.2L244.8,288.6L243.4,294.1L245.1,296.5L244.2,299.9L238.7,298.7L235.2,295.9L230.8,297.2L240.6,299.2L241.6,302L239.6,305L240.6,309.2L238.9,312.3L232.6,318.5L225.9,318L222.1,313.8L212.7,313.7L208.5,304.1L202.6,290.8L196.1,291.7L191.2,288.3L184.1,289.2L176.6,288.8L171.7,284.6L165.9,284.5L163.5,283L166.6,285.9L170.4,284.8L175,287L178.7,290.6L187.7,290.7L192.9,293.4L196.8,296.8L198.5,302L197.7,305.5L194.5,307.7L190.8,306.3L189.5,301.6L188.5,307.1L189.8,309.9L185.3,310.7L181.4,318.2L180.5,325.7L181.2,329.6L183.5,330.3L182,337.1L172.6,330.6L173.1,328.8L167.3,329.4L164.3,327.4L165.1,324.5L168.3,321.7L171.2,321.5L176.3,323.9L175.8,321.2L179.4,321.2L173.5,318.1L171.5,313.4L168.5,315.6L160.6,308.3L150.9,311.3L148.6,316.2L148.5,319.3L145.2,314L143.5,308.3L138.9,305.8L137.6,308.4L130.1,311.1L132.2,305.4L127.3,312.5L120.5,314.1L124.2,312.3L130.3,303.6L124.9,307.5L123.6,309.8L118.5,314.1L118.7,315.9L115.1,320.1L113.7,317.2L113.9,322L111,322.8L105.4,320.6L103.7,321.4L102.5,318L100,318.8L94.2,315.9L89.9,318.8L85.3,325.7L72.5,348.6L68,353.4L67.4,350.5L77.9,327.3L81.9,323L87.5,309.9L86.5,305.4L88.8,300.8L90.3,296.2L91.1,290L92.8,283.8L92.7,280.7L90.6,283.3L87.9,288.8L90,283.3L89.8,280.4L94.3,271.4L93.7,270.8L97.5,261.3L97.9,258.3L96.4,257L96.8,253.5L95,254.5L89.3,262.5L85.2,267L80,274.3L76.5,280.3L72.4,287.9L68.9,295.1L64.5,304.1L63,307.8L60.4,313.9L57.1,325.1L56.9,328.6L61,322.1L61.1,323.6L60.1,331L58.2,339.2L56.6,341.8L53.8,343.8L53.4,345.6L50.3,350.2L52,346.1L51.4,346.7L50.2,349.6L46.8,356.4L45.8,357.2L44.6,361.8L44.4,364.2L42.8,372.1L42.9,374.1L41.4,383.7L39.8,389.9L39,394.6L34.5,405.3L34.3,405.2L31.6,414.9L30.8,418.6L29.1,428.9L28.3,433.9L27.7,440.5L28.2,445.2L28.7,446.1L28.5,456.9L27.9,464.4L27.4,472L28,467.6L29.9,469.9L31.7,464.1L32.9,464.7L32.7,469.3L33.9,467.8L34.4,472.4L36.5,474.8L38.1,474.9L38.5,478L37.6,480.4L36.1,479.5L35.4,485.6L33.5,488.1L32.9,495L34.6,494.8L35.9,484.9L38.8,491.1L39,486.2L39.8,486L39.2,492.4L40.6,501.3L40,506.8L43.7,516.6L43.9,521.1L45.8,527.7L48.6,530.4L53.7,540.3L50.8,535.9L51.2,543.7L53.2,547.1L54.6,554.7L52.1,557.8L55.8,564L57.6,571.4L60,585.9L61.8,593.7L61.4,597.7L61.4,597.7L62.5,596.2L65.8,603L69.7,607.7L72.4,612.9L71.7,615.1L73.1,614.2L76.4,621.3L80.1,632.4L80.4,636.2L82.1,638.2L82.4,644L84.3,655.8L86.4,659.4L86.6,662.6L82.7,663.8L80.8,662.9L78,666.8L78.3,668.3L82.4,669.9L84.6,678.7L89.1,682.6L89.6,684.2L94.2,682.9L97.3,685.8L108.2,702.1L111.4,709.2L110.4,713.4L116.7,715.5L122.5,723.2L127.3,728.3L134.5,734L142.9,745.5L150.7,757.9L160.1,766L162.2,769.7L165.9,780.7L165.2,787.9L159.6,790.7L157,790.1L152.4,794.6L149.6,791.6L148.9,794.6L153.6,806.2L154.5,811.4L155.5,813.4L154.4,815L155.9,817.9L155.2,820.5L154,820.2L155.2,823.7L152.9,822.1L152.9,823.2L144.4,815.2L141.3,812.4L139.7,811.7L137.5,809.4L135,807.2L133.1,805.7L132.9,806L137.3,811.3L138.1,812.3L138.1,812.3L127.4,799.4L117.2,786.3L107.4,772.7L98.2,758.9L89.4,744.7L81.1,730.2L73.3,715.4L66,700.4L59.3,685.2L53.1,669.7L47.5,654L42.4,638.1L37.8,622L33.9,605.8L30.5,589.5L27.6,573L25.4,556.5L23.7,539.9L22.6,523.3L22,506.6ZM59.8,469.9L60.6,473L58.9,473.6L56.7,466.8L58,464ZM505.4,47.1L501.6,47.2L495.7,45.9L499.2,45.6ZM484.1,39.5L481.6,38.6L483.7,38.2L489.4,38.9ZM425.1,41.9L421.7,42.1L429.2,39.2L431.6,40ZM468.8,30.5L468.1,30.2L473.8,29.3L473.8,30ZM336.3,70.7L338.2,69.6L338.9,70.4ZM329.5,72.7L331,70.9L333.3,71.5ZM344.7,68.8L342.7,69.5L343.3,68L346.9,67.6ZM352,66.1L346.3,65.8L351.5,65.4L354.9,64.6ZM354.2,67.4L352.6,68.2L348.1,68L349.1,66.7ZM358.3,65.6L354.9,66.7L352.4,66.3L354.9,64.9L360.3,63.9ZM342.7,67.9L341.2,68.6L332,70.5L330.5,70L340.8,67.4ZM346.3,67.5L343.9,66.6L347.7,66.8ZM424.2,43.2L425,42.3L427.7,41.9ZM489.9,27.2L495.3,26.5L491.5,27.3ZM142.3,311.6L139.9,310.2L139.2,306.5L141.1,307.2ZM434.9,439.8L431.4,441.2L422.3,435.4L429.8,431.2L430.2,425.6L435.1,424.9L437.7,418.8L434.8,415.9L436.3,412L433.5,413L428.2,411.4L431.4,406.6L431.6,402.1L426.2,406.5L431.3,396.1L427.1,395.6L430.6,392L431.6,386.8L433.5,387.2L435.1,382.2L443.8,382.8L438.7,387.5L437.4,390.4L446.6,390.9L447.6,392.8L441.9,401.6L438.3,403.4L441.7,404L445.4,408.4L446,415.1L450.9,421.2L452,429.3L450.2,431.2L455.2,431.3L458.2,435.7L451.7,444.1L455.2,446.1L448.6,448.9L440.3,446.7L436.7,448.6L429.7,447.2L427.1,450.2L425.4,448.5L419.3,450.5L419.1,448.6L426.6,442L431.9,442.8ZM453.9,368.7L453.6,373L452.1,370.5ZM430.1,382.5L425.6,386.7L426.4,382.8ZM428.6,389.3L428.6,393.2L425.8,389.3ZM419,407.6L424.2,407.6L425.7,412.6L424.9,415.7L421.7,416.6L420.4,426.2L417.7,431.4L411.6,431.3L404.2,434L399,433.5L400.2,430.9L397.8,427.6L402.3,425.3L405.1,421.3L402.3,416.7L404.2,411.1L411.2,413L413.9,410.2L411.1,409.2L414.3,406.1ZM55.1,548.8L54.2,541.7L56.3,545ZM911.9,258.1L914.4,262.2L912.8,260.4L911.1,257.8L904.2,247L901.9,243.2L902,242.9L909.1,253.6ZM540.1,391.6L539.9,395.2L537,399.4L536.3,394.3ZM530.2,405.2L529.4,403L532,396.6ZM942.6,556.4L945.2,555.2L948.1,557.2L950.6,561.4L950.8,568L948.8,575.8L946.9,578.2L943.9,568.6L943.7,560.4ZM456.2,541.5L455.4,545.5L451.1,542.6ZM529.2,64.9L516.9,59.5L515.6,58.4L516.3,56.1L514.6,55.2L513.2,56.4L514.4,57.5L505.9,56.7L500.8,54.3L502.3,52.6L507.7,52.2L507.8,51.1L510.6,50.7L510.9,49.1L520.6,51.6L521.1,53L524.2,53.7L528.7,53.7L530.4,56.5L533,55.8L532.2,54.2L535,53.2L529.8,65.1ZM546.2,209L546.8,212L544.6,211.7ZM548.7,206.9L551.5,207.3L550.2,210.8L551.4,211.9L550.1,213L548.1,212.5L548.7,210L549.7,209.8L548.2,208.1ZM596.2,214.6L594.6,226.5L596.1,229.7L596.5,233.4L600,242.2L596.3,244.1L595.7,245.5L592.4,243.7L592.8,241.6L590.5,236.8L590,234L588.2,231.5L589.3,230.7L588,226.6L589.4,223.2L588.3,221.9L590.8,220.1L591.6,217.8L590.7,211.4L592.1,210.7L595,211.8ZM597.6,244.5L600.1,243.8L602.5,249.3L605.4,252.4L610.1,254.8L616.5,256.1L616.5,257.6L611,260.7L607.6,261.2L607.7,258.6L603.9,257.2L601.2,259.5L597.7,256.2L598.6,255.1L596.4,249.1L594.7,247.3ZM574,169.3L576.4,168.4L578.5,169.5L580.9,169.7L581.6,172.5L582.5,173.4L579.2,175.1L576,172.7L574.3,172.6L572.3,169.7ZM581.6,169.3L584.9,169.8L582.5,168.5L584.8,167.3L592.6,169L592.5,171.2L591.2,171.8L590.1,173.9L587.5,174L586.5,175.1L581.9,172.1ZM589,164.8L592.5,165.6L589.8,164L592.3,162.5L594.9,162.5L597.1,164.6L597.8,167.7L599.6,169.3L599.1,170.2L593.8,168.2L593,167.5L589.5,166.7L587.6,165.3ZM589.6,119L590,118L585.8,118.2L585.4,115.6L584.4,115.2L583.8,112.9L588.7,112.8L588.9,115L586.6,115.4L587.9,116.4L590.3,114.6L595.3,116.6L595.7,117.6L598.2,117.6L597.7,120.8L593.6,122L588.7,121.1ZM582.6,110.7L579.9,109.2L580.6,108.8L578.2,107L578.7,105.7L581.4,106.3L583.6,107.9L584.6,111ZM530.3,71.8L529.6,73.3L526.3,74L527,72ZM704.3,91.6L708.4,90.6L714.3,91.3L720.4,90.5L724,89.3L725.2,91.4L728,93.2L736.8,96.1L739.3,95.2L741.4,97.2L746.8,99.6L745.4,99.7L737,96.9L734.7,97.2L729.9,95.6L721.2,94.5L720.9,95.3L712.7,94.3L709.8,92.4ZM523.3,73.8L520.1,72.3L521.1,71.6L527,72L526.3,74ZM555.8,200.9L557.7,202L554.8,202ZM609.8,275.7L609.9,278.6L608.3,280.7L604.8,277.1L605.8,275ZM562,199L560.5,199.1L560.4,195.7L562,196.5ZM560.9,205.8L557.8,204.7L559.3,203.8ZM560.1,199.3L561.9,202.1L559.8,203L558.1,201.3ZM556.1,208.7L554.3,209.2L554.2,208ZM558.7,205.4L560.2,206.6L558.8,207.6L557.7,206.2ZM552.1,199L553.1,199L554.3,201.3L552.4,202.1L551.5,199.5ZM551.9,203.2L556.6,202.8L555.7,204.9L553.1,205.1ZM584.9,175.2L582.8,176.4L581.7,175.8L583.3,173.6ZM599.4,114L599.7,115.5L598,114.7ZM598.2,112.3L598.3,110.2L600,109.3L602.7,111.8L603.5,113.7L600.1,113.6ZM597.5,122.9L598.2,123.5L594.9,124ZM559.2,73L562.3,74.9L560.3,75L557.9,73.8ZM610.6,53.7L608.8,54.2L605,53.4L605.9,52.8ZM609.1,45L611.8,46.7L609.4,46ZM671.1,61.1L674.8,62.6L668.6,60.8ZM722.3,81.4L730.8,86L725.8,83.5ZM736,89.1L734.6,88.1L741.3,91.7ZM625,153.4L627.7,154.4L626.3,156.4L624.5,155.4ZM621.2,224.7L620.4,225.9L618.1,224L618.6,222.5L621.7,223ZM634.5,217.1L633.7,218.3L631.9,215.9L633.7,215.2ZM633,212.4L631,213.1L629.9,211.6ZM626.4,256.4L627.7,257.5L623.9,258.9L620.8,257.5L620.6,255.6ZM536.5,288.8L534.1,291.5L532.9,290.6ZM515.6,305.5L515.9,308L513.7,308ZM526.2,296L525.5,299.8L524,298.5ZM521.8,300L523.5,302.9L521.3,304.4ZM517.5,308.3L518.1,309.6L513.2,311.4L516.4,308L517.4,302.8ZM519,234.1L522.6,237.9L526.1,239L523.3,242.9L522.7,241.1L519.9,242.2L520.2,238.7L517.1,235ZM515.3,223.1L517.6,224.2L517.2,221.8L518.5,223.1L519.8,221.6L523.7,222.3L524.8,223.8L523.7,227.6L521.6,229.5L519.6,228.3L516.6,228.8L514.5,227.8L515.9,226.5L513.2,226.9L511.3,224.3L513.7,223.5L513.2,221.9ZM509.9,226.1L511.1,226.1L514.2,230.8L515.9,230.7L518.4,233.2L516,234.4L514.6,238.7L512.9,249.1L508,244.8L507.3,242.5L512.4,240.5L511.9,239.8L508.1,241.1L506.4,239.3L511.4,236.7L511.1,234.6L509,236.1L508.6,233.9L507.3,234.8L507.8,236.5L505.4,237.9L502.9,234.6L503.7,233.3L502.4,230.7L501.9,231.8L501.3,227.2L503.4,227.7L505.4,226.7L505,228.6L506.1,230.2L506.8,227L510,232.4L508.7,227.7L508.8,225.4ZM797.2,827.3L798.9,828.9L799.2,837.5L796.7,841.1L793.8,841.4L792.7,846.5L789.8,849.9L787.8,854.4L771.7,875.3L766.4,881.8L762.2,886.2L758.8,888.9L748.1,895.2L742.5,896.7L741.5,895.6L743.3,892.7L743,888.8L753.9,877.4L755,875.3L754.1,872L754.9,868.5L759.8,861.9L772.6,853.7L783.3,843.9L786.3,838.2L791.5,834L792.4,830.2L795.5,826.8ZM747.6,96.7L744.2,94L740.3,91.8L743.7,93.3L744.3,92.9L750.7,97.2L754.9,99.7L758.8,101.8L762.2,105.3L769.4,110.7L768.3,108.9L774,113L769.7,111.6L764.9,108.8L761.8,106L753.3,102.2L752.1,102.2L749.2,100.6L749.2,99.2ZM840.6,167.2L839.4,165.3L848.5,173.8L852.3,178L853,179.2L850,176.4L846.4,172.7L845.5,172.2L848.9,175.8L847.7,175.2L840.4,167.3ZM826.1,152.1L826.3,151.9L830.7,155.9L831.8,157.3L838.5,163.8L836.8,162.6L833.2,159.3ZM769.8,109.4L773,109.9L776.1,111.6L784.8,117.5L788.2,119.6L791.6,122L793.4,123.1L800.7,128.7L802.2,130.2L806.1,133.3L805.8,133.2L809.3,136.1L813.9,140.5L815.9,142L818.6,144.5L822.6,147.9L824.5,149.8L822.7,149L830.6,156.9L840.1,167.1L826.6,154.1L821.6,148.9L817.1,144.5L816.1,143.2L807.1,135.9L798.6,128.7L790.5,122.5L782.8,117.4L781.9,117.4L773.8,112.5L772.3,110.7ZM47.1,408.3L46.7,415.1L45.2,412.9L45.4,408.8L46.8,403ZM536.5,555.2L533.7,561.7L534.1,568L530,567.4L516.1,559.5L517.9,556.4L524.2,557.7ZM497.7,534.3L498.7,537L497.5,547L492.8,550.6L489.8,548.2L490.7,542.9L488.8,533.9L495.2,531.2ZM977.4,506.2L977.6,506.4L977.6,510.1L977.2,508.8ZM977.8,515.3L977.8,515.3L977.8,512.1L977.8,512.7L977.8,512.7ZM978,502.2L978,501.8L977.9,502.9L977.6,497.3L977.2,499.6L977,497.4L976.4,496.8L976,498.4L974.9,498.4L974.1,495.2L975.1,489.8L975.1,489.8L975.6,483.7L976.6,485.8L977.3,482.8L977.7,483.3L977.5,480.5L977.6,480.6L977.6,480.6L978,497.3ZM964.6,474.3L963.8,473.4L961.5,462.8L963.1,466.9ZM416.9,313.6L417.6,317.6L420.6,320.7L419.2,324.3L414.7,327.4L405.6,329.6L401.2,329.3L397.4,330.5L392.9,327.5L391.1,323.3L386.2,322.2L391.6,319.5L390.7,315.6L386.4,313L393.5,314.6L392.5,312.6L395.2,311.9L392.7,309.6L389.1,309.4L389.9,306.7L392.3,307.9L392.3,305.1L396,306.8L395.2,304L397.5,304.3L398.8,308.4L396.6,314.1L401.9,309.6L403.2,312.3L404.9,310.5L408.4,311.1L409.9,313.4L414,312.9L416.5,311.1ZM50.2,441.3L50.3,438.6L49.1,431.1L48.1,429.6L48.7,423.9L49.4,424.1L50.1,433.4L51.2,434.4L51.8,429.5L52.9,428L52.8,422.9L54.1,424.2L54.7,431.5L56.2,434.8L56.5,441L55.7,446.8L56.4,456.9L54.7,457.1L53.8,450L51.7,444.1L49.6,445.7ZM586.2,543.1L590.9,544.7L592.6,548.2L585.4,544.6ZM593.1,570.6L604.1,570.5L609.5,571.6L600.1,574.4L591.2,571.9ZM496.8,518.3L497.3,523.7L494.9,530.1L492.6,528.4L491.2,522ZM65.1,488.4L65.4,489.1ZM554.4,383.2L557.5,383.8L553.2,387.2L551.3,384.7ZM465.6,193.2L467.2,196.3L466.7,196.6L461.5,194.7L465.3,197.1L467.2,197.3L466.5,199.2L467.7,200.4L467.8,201.9L464.3,202.7L458.5,200.7L457.2,201.7L459.4,202.2L461.7,203.8L461.1,205.9L463.7,204.6L465.7,205.1L463.8,207.8L458.9,210.9L460.7,210.7L464.9,208.6L467,210.7L470.7,208.7L473.6,210.7L474.1,212.3L470.4,214.4L468.9,214.5L468.2,215.8L464.8,216L465.2,217.3L463.2,218.3L460.3,216.7L457.5,219.1L458.1,220.3L456.5,223.5L451.2,226.2L446.8,230.4L448.7,230.3L449.9,232.3L447.7,232.2L447.4,234L449.8,236.2L447.8,238.9L444.2,236.6L441.4,237.9L440.8,240.2L442.9,241.4L440.9,247.3L439.2,248.4L438.5,246.9L436.6,248L435.9,250.6L438.1,249.5L437.5,253.3L436.5,254.4L432.3,254.1L430.8,252L430.1,254.3L432.8,256.5L431,258.7L426.7,258.7L425.4,257.4L425,253.7L422.6,254.7L417,255.2L422.6,255.4L423.8,256.2L425.5,261.1L421.6,266.1L419.5,261.9L420.8,257.8L415.2,257.8L419.7,258.8L418,261.6L420.7,268.8L416.7,277.4L413.6,276.8L411.5,274L412.8,270.3L411.4,265.9L409.9,268.5L406.7,268.9L403.6,266.7L402.2,269.1L399.3,269.3L404.6,272.7L400.9,273.2L406.6,274.2L410,277.7L413.2,279.3L410.1,280.6L400.6,282.7L396.6,284L384,282L382.2,280.8L381.7,277.5L379.8,280.5L375.5,281.3L368.6,285.4L358.3,287.1L353.9,285L359,282.5L357.6,282.1L351.9,284.3L347.9,282L348.2,284.3L345,284.7L343.4,282.8L341.8,288.2L338.9,288.6L336.6,292L327.1,295L314.3,305L311,305.6L309.2,308.3L305.4,307.3L304.5,302.1L305.4,298.1L309.3,295.3L304.8,295L302.1,291.5L303.3,287.4L308,280.7L308.1,277.6L310.2,275.6L313.6,268.8L320.1,264L316.6,264.8L324.2,257.7L323.7,255.2L328.5,252.6L326.9,251.6L332.3,249.6L333.2,246.4L335.3,245.2L339.2,245.9L340.7,249.4L342.1,249L340.3,246.2L336.3,244.7L341.7,242.8L342.9,246.6L345.3,246L342,242L344.6,241.2L346.1,244.2L348,244L355.5,240.2L358.1,239.6L355.7,235.9L356,231.2L358.7,229.2L359.8,231.8L359.3,235.5L364.2,232.6L362.6,229.6L365.2,228.6L364.9,227.1L361.9,225.9L362.3,223.6L366.6,221.7L368.8,219.8L372.7,219.5L373.5,217L374.9,217L376.3,214.6L378.9,213.5L380.6,211.1L383.3,210.6L387.7,204.1L390.1,203.1L391.8,197.6L391.8,194.3L389.1,192.2L388.5,189.9L387.3,191L387.4,188.7L389.8,186L392.2,187L392.4,183.7L395.2,182.4L396,184.7L397.3,184.9L397.7,187.8L400.8,186.4L398.1,183.6L401.1,179.2L402.7,177.9L405.6,177.7L409.3,180.8L412,182L412.6,183.5L414.4,183.6L421.1,182.4L419.7,181.5L420.1,180L423.5,179.5L427.9,180.3L427.6,181.9L430.1,181.1L430.2,182.6L434.6,181.3L437,181.6L434.7,185.5L437.8,181.9L442.5,184.2L439.8,187.1L443.1,185.5L441.1,188.6L442.1,189.4L445.2,186.4L445.9,188.1L444.2,192.8L444.8,193.2L448.5,191.2L450.1,188.9L450.8,189L453,191.2L451.6,188.8L450.7,188L455.1,188.1L455.2,189.8L457.3,189.3L456.5,191.9L458.5,190L459.8,189.9L463.7,191.7ZM354.3,235.6L354.3,237.5L352,238.8L348.4,237.2L350,235.4L349.9,232.6L354.8,231L355.4,233.2ZM371.8,219.4L369.7,219.5L370.1,217.8ZM446.2,192L446.8,189.7L448.6,188.1L449.4,188.5L448.4,190.8ZM409.4,270.6L408.3,272.4L401.8,270.7L404.3,268.1L409.1,269.4ZM460.9,220.2L458.8,219.8L459.5,218.8L461.8,219ZM444.8,243.6L445.5,240.7L446.9,239.6ZM443.5,248.1L442.7,251.1L440.6,250.3L441.5,248.1ZM512,410.4L509,418.8L504.6,411.1L512,408.1ZM503,412L503.7,415.9L499.9,415.7L499.3,412.8ZM650.9,560.2L661.4,552.7L659.2,558.5L653.4,564.5L648.8,562.6ZM60.8,357.1L60.4,363.8L58.1,375.1L58.1,378.5L55.4,395.7L55,403.1L54,415L52.2,412L51.8,405.7L50.8,397.9L53.2,396.1L53.2,391.5L55.4,383.5L55.5,379.8L57,370.3L57.7,362.4L59.2,359.3L59.5,354.7L58.3,353.7L57.5,350L59.3,347.5L60.6,350.4ZM941.1,324.4L941.9,325.5L945.1,333.3L947.8,341.2L948,344.1L945.8,339.9L943.5,333.5L941,324.8ZM330.1,68.7L326.3,70.8L324,69.8L328.3,68.1L331.7,67.8ZM322.7,70.3L316.3,71.4L325.6,68.6ZM294,81.4L286,86L278.8,88.8L275.4,90.7L269.9,92.6L277.7,88L286.4,84.1L292,81.5L294.4,79.9L299,78.5ZM418.4,135.5L415.8,135.4L417.2,133.3L419.6,131.8L419.6,135.1ZM415.1,133.9L413.4,134.4L413.5,133.1L410.8,133.3L411.1,131L413.6,130.1L416.2,130.7ZM414.9,127.2L414,125.9L410.7,124.9L409.8,123.3L411.8,122.6L413.6,123.6L413.1,121.9L411.1,120.7L412.9,120.8L410.4,119.3L412.9,118.4L414.3,116.8L417,117.9L416.2,118.8L418.5,123.4ZM398.6,133.4L396.5,133.4L396.9,135.8L393.8,136.6L390.1,135.5L389.4,133.5L392.1,131.4L391.4,126.8L392.2,124.9L395.7,123.6L395.6,128.7L397.6,125.1L400.4,125.3L398.6,124.2L399.4,122.4L403.2,120.7L404.4,121.6L403.2,122.9L406,122.4L408.8,125.3L407.4,126.9L405.3,126.9L404.1,128.2L397.8,129.2L395.5,131.6L398.7,131.2L399.5,131.9L402.5,131.3L404.6,133.1L403.6,134.1ZM382.2,120.2L381.4,121.8L382.4,123.3L378.6,125.1L377,123.8L376.9,126.7L379.8,126.4L378.9,127.3L373.9,128.8L368.1,129L368,130.6L370.3,130.1L377.6,130.1L379.1,130.7L374.3,133.7L362.4,135.2L359.4,134.7L356.1,135.7L354.3,137.2L347.6,141L345.2,141.1L347.5,138.6L345.9,137.9L347.7,136.5L343.9,137L344.1,139.1L341.2,139.4L340.9,137.3L344.3,133L350,130.3L348,128.6L348.5,125.7L350.6,121.2L353.3,117.8L358.7,117.4L365.1,112.9L370.3,112.7L367.4,117.1L363.8,120.3L362.9,122L368.6,118.9L371.5,115.2L374.4,112.8L377.8,112L378.1,113L376.4,116.4L377,117.1L379.3,113.7L381.1,114.1L383.1,112.5L387,114.3L388.2,116.8L387.5,121.2L386.1,121.7ZM399.4,115.8L398.5,117.5L396.1,119.1L390.3,120.4L389,120.1L389.4,114.1L388.4,111.5L384.9,109.7L386.5,108L386.4,105.8L391.9,105.3L397,103.6L398.8,106L401.3,107.3L403.6,110.1L408.3,110.4L404.9,114.2L399.9,116.2ZM442.9,172L442.8,174.3L440.1,173.4L440.5,174.2L443,175.5L442.6,176.6L440.8,177.6L440.6,179L439.2,179.6L437,179.6L433.7,178.4L432.2,177L428.9,176.3L431.5,178L429.9,178.7L424.1,177.3L420.1,176.6L416,176.4L415.5,174.2L413.5,174.8L412.5,172.6L413.1,171L409.6,174.3L410,172.6L409.4,169.7L408.4,170.7L409,172.4L407,174.9L405.4,174.7L405.1,173L403.6,174.7L401,174.4L400.2,171.9L396.7,172.4L395.3,171.9L394.7,168.9L392.3,173L389,173.6L385.8,170.8L387.7,170.3L388.6,168.8L388.3,166L387.3,164.4L389.8,162.4L388.2,162.3L389.9,158.2L392.6,158.2L394.5,159.5L394.7,161.5L399.3,159.6L400.5,160.9L396.7,162.9L400.5,162.6L402.5,163.6L403.5,163L401.9,161.7L403.9,161.9L402.9,160.1L407.6,160.7L408.4,162.4L407.1,164.7L408.1,165.6L409.4,164.1L414.2,162.1L416.2,160.6L420.1,160.6L419,163.2L414.8,165.5L414.5,166.4L419.4,163.9L421.3,166.6L422.3,166.8L424.3,169.2L424.6,167.6L426.6,167.6L422.4,165.5L421.8,163.8L423.4,164.3L421.8,162.6L423,160.2L425.4,161.3L425.9,160.8L423.1,159.5L424.6,158L426,158.4L426,160.2L427.8,161.5L426.5,159.5L426.5,157.3L427.8,157L430.7,158.3L429.7,156.8L431.3,157.2L431.9,155.6L433.6,156.7L434.7,158.3L434.1,160.9L435.4,159.9L437.4,161.1L435.6,163L432.3,165.9L435.8,163.5L438.7,163.2L439.7,163.8L439.1,165.7L441,164.5L440.9,166.3L438.1,167.9L438.7,168.2L441.9,166.6L442.1,168.5L441.3,169.4L442.9,169.6ZM402.6,150.6L401.6,152.9L399.2,152.9L400.4,149.9ZM379.9,153L377.3,153.1L377.5,151.4L381.9,148.5L385,149.9L384.8,151.7ZM375.8,143.2L373.5,144.5L373.5,146.9L371.4,147.9L369.5,147.4L367.4,145.5L366.6,147.1L363.6,147.7L363.7,148.7L357.2,148.7L356.4,147.1L358.2,145.5L355.5,146L355.7,144.3L362.9,141.8L365.1,140L369.5,138.5L370.8,139.9L368,140.7L368.5,142.8L371,142.3L373.1,140.8L375.5,141.8ZM300.7,180.9L302,181.3L295.4,189.4L291.6,191.5L291.2,193.8L288.7,196L286.5,194.9L288.4,190.8L290.1,190L291.3,186.8L286,185.8L285,183.8L289.3,181.8L289.1,178.5L292.7,179.8L296,178.6L304.4,177.5L305.9,178.1ZM393.4,147.3L385.1,147.5L383.1,147L384,143.3L386.9,142.7L388.4,144.5L389.6,140.3L391.9,141.4L390.4,142.2L395,141.4L396,141.9L390.9,144L395.6,143.2L395.8,146.1ZM418.7,142.9L414.9,143.3L415.9,144.4L410.9,146.2L408.8,145.9L405,146.2L406.1,144.6L408.7,144.3L411.1,142.6L411.4,140.8L413.8,140.3L412.9,141.7L416.7,141.8L415.8,140.9L417.9,140.5L420,141ZM427.9,155.3L423.2,156.3L420.8,159.2L418.6,159L416.8,160L414.3,159.8L414.2,161.5L411.5,162.4L407,159.8L409.5,159.1L405.6,159.4L406.5,158.5L403.3,158.6L407,157L403.4,157.8L404.6,154.9L411.5,152.4L413.5,155.5L414.7,154L414.2,151.5L416.3,151L417,152.3L417.9,150.8L421.6,150.3L420.1,152.3L422.7,150.8L422.9,151.6L425.7,151.3L423.9,153.2L426.7,151.9L427.9,152.2L428.9,154L430.2,154.1ZM395.1,151.9L392.2,153.6L392.2,155.2L387.4,158.6L387.9,156L386.6,157.5L381.4,159.7L382.2,162L381,163.8L383.2,166.6L383.1,169.2L381.4,172.1L377.9,173.8L376.7,172.9L375.6,174.6L372.9,173.7L372.1,171.5L373,169.6L373.6,161.1L375.9,161L374.5,158.8L377.3,155.5L382.2,154.6L385.8,154.8L390.2,153.5L390.5,150.5L395.1,148.5L397.1,149.9ZM408.7,150L406.7,151.4L404,151.1L403.4,148.8L409,147.6L411.8,147.9ZM373,153.8L371,155.4L369.4,158.4L361.4,156.2L362.6,152.6L359.7,153.9L356.9,153.2L357.7,151.2L363.7,150.3L370.8,150L370,151.3L372.7,150.8ZM341.4,147.9L338.2,150.3L333.1,151.9L331.7,150.6L333.2,148.3L336.2,146.4L337.9,144.2L339.5,144.1L340,146L342.9,146.2ZM185.5,333.2L189.2,334.3L188.1,338L185.3,337.6L183.1,334.5L184.8,331.7L190.8,329.5L192.9,330.1L187.8,334ZM229.5,322.7L227.1,321.9L225.8,324.3L218.2,326.7L220.3,331.1L215.9,332.2L220,337.4L220,342.8L216.6,342.8L214.7,345.3L218.5,347.4L211.8,349.6L213.4,355.4L207.4,359.1L206.2,357.1L208.8,354.6L205.9,353.9L209.4,352L211.3,348.1L203.3,349.6L201.9,348.1L208,347.4L205.5,344L207.1,342.4L203.3,339.8L200.9,334.1L198.7,331.8L200.8,328.9L205.8,329.4L205.4,327.6L220.7,321.1L225.3,319.8ZM345.5,167.8L346.2,170.4L349.9,170.5L353,167.8L354.8,168.6L359.5,167.3L363.5,167.7L363.9,169.7L366.2,171.1L365.4,173.4L358.2,176.7L354.8,175.8L351.6,177.1L355.4,177.8L355.2,181L357.1,180.4L358.2,182.7L356.6,186L353.7,187.6L352.9,189.1L350.4,189L350.9,192.3L350.1,195L346.9,196.4L347.2,197.7L342.3,198.5L345.6,200.1L343.6,204.2L339.5,202.1L342.4,205.2L338.5,208.8L336.6,206.7L336.4,209.4L334.4,211.6L333.6,207.7L332.9,210L329,211L328.2,215.8L324.7,217L327.4,219.3L322.6,224.6L323.1,226.5L319.4,226.6L322.5,229.7L320.5,232.6L315.4,233.6L314.7,232.2L311.8,233.6L310.9,232.2L305.7,234.3L306.1,231.3L310.1,226.8L312.8,226.5L311.5,224.9L314.9,220.6L310.7,221.6L308.2,220.9L303.2,226.7L303.2,228.8L298.1,235.2L292.8,238.7L295.7,235L290.3,239.5L287.7,239.5L290,235L292.2,225.8L283.8,239.2L281.1,239.8L282.6,230.1L284.7,227.6L285.8,222L295,211.8L297.2,207L295.5,208.3L292.6,204L293.4,200.9L297.6,198.6L301.6,199.1L300.9,203.5L302.9,208.2L307.6,204.2L316.9,206L325,200.3L326.3,197.3L329.2,195.2L326.7,192.4L329.1,191.7L331.6,192.6L334.3,190.2L335.4,187.6L338.5,186.3L341.3,183L339.5,182.9L336.9,184.7L335.7,184L337.3,180L335.4,178.4L338.6,169.5L340.7,168.5L340,166.2L342.5,164L347,162.3L345.5,166.7L347.5,165.1L350.5,161.1L357.7,160.3L362.6,160.8L367.2,162.8L367.8,164.3L366.3,167.4L363.1,166L359.3,165.6L351.3,167.8L347.8,170.3ZM202.6,313.7L201.6,305.6L202.9,300.2L204.1,300.8L204.6,306.6ZM183.8,319.9L186.7,326.2L182.7,326ZM282.8,193.6L280.6,194L277.5,192.7L277.2,190.9L279.6,189.6L282.7,190ZM278.6,201.7L277.4,202.8L273,203.5L276.7,200.5ZM323.9,195.3L323.4,196.7L318,198.6L315.9,197.8L315.5,195.1L318.7,193.3L323,193.2ZM365.5,176.4L365.6,178.5L364.4,180.6L361.2,183L359.1,183.3L359.5,180.7L358.3,178.1L363.3,174.7L366.2,174.2ZM210.7,228.3L212.8,222.7L213.8,225.3ZM234.6,222.4L232.2,220L236.9,220.2ZM396.2,157.6L397.6,155.9L399.4,155.8L398.9,157.1ZM403.2,139.2L404.1,138.5L408.7,138.2L404.7,139.4ZM421.3,148.2L419.4,148L421.1,147L423,147.4ZM373.1,134.5L378.8,132.4L380,133.1L379.4,134.8L377.4,136ZM393.1,141.1L392.1,139.5L396,138.5L395.3,140.9ZM398.7,139.3L396.9,140.4L397,138.7ZM406.6,120.5L408.2,119.3L409.3,122.2ZM415.8,129.8L418.4,129L418.5,129.9ZM320.4,201.3L320.4,199.1L322.2,198.1L321.9,201.2ZM286.6,203.2L284,204L286.4,201.6ZM373.9,145.9L374.9,144.1L375.3,146.8ZM334.9,184L332.7,183.4L334,181.4ZM327.5,186.5L331.6,186.6L331.1,187.5ZM387.3,137.8L388.8,136.8L390.4,137.8L388,138.6ZM87.6,672.2L93,679.3L90.7,683.1L87.1,680.5L84.1,676.9L82.9,670.9L83.4,667.3ZM78.7,668L79.8,664.9L80.9,668.4ZM66.1,370.8L64.6,371.5L65.6,367.5L67.4,367.5Z" fill="#2b2b2b"/>
<path d="M619.8,913.8L612.4,914L605.4,915.8L596.4,913.2L595.4,910.8L596.7,898.2L612.4,895.6L613.3,885.9L616,887.7L623.9,885.6L623.9,887.4L629.1,887.5L636.3,886.1L638.4,884.3L640.8,886.4L647,886.3L651.5,889L657.5,887.7L658.3,882.1L652.5,884.4L647.5,881.7L650.1,877.3L648.9,870.8L653.7,865.9L667.6,861L676.4,862.8L683.7,862.4L688.5,866.4L685.4,868.8L685.3,876L682.4,877.5L679.1,882.7L682.7,883.3L659.7,893.8L660.4,896.2M748.4,677.3L750.5,674L749.8,669.1L762.5,662.5L777.7,657L780.7,647.2L786.3,640.3L802.3,627.6L812.8,639.7M968.7,413.3L967.6,407.1L966.9,402.3L965.4,396.5L963.2,385.7L960.8,377.9L959.8,375.7L958.4,371.4L957,367.6L956.2,367.1L955.6,364.8L955.3,366.2L954.3,364.8L951,364.8L950,366.4L947.5,357L945.9,355.5L945.3,356.9L945.9,362.4L941.7,359.7L940.5,356.2L941.2,354.5L940,351.3L940.5,349.1L937,337.5L938,336.7L937.6,332.4L940.3,337.1L940.4,332.5M55.8,564L56,566.5L52.7,566.5L53.4,570.9L50.7,569.1L49.4,572.6L50.6,580.4L49.4,582.9L44.7,576.5L43.9,577.6L43.2,573.8L41.5,569.7L39.9,563.3L40.9,570.6L40.8,577.9L42.4,582.3L40.4,582.9L37.1,580.2L35.6,575.6L34.6,569.5L34.3,560.7L33.3,554.1L34.5,554L34.1,544.3L36,535.6L32.8,525.6L32.6,516.9L31.9,512.8L30.3,506.2L30.2,499.6L31.2,494.9L31.8,488.3L31.4,484.4L33.6,479.7L36.5,478L37.6,480.4M515.1,525.6M814.8,403.7M821.4,408.1M822.9,405.5M324.7,74.2L324.9,73.3M419.4,80.3L402,68.7L385.2,59.9L381.1,61.2L378.5,62.8L377.9,62.3L368.9,63.6L367.1,63.4L365,65.2L365.9,66.1L363.7,67.8L359.8,68.1L353.4,69.5L336.5,72.1L329,74.8L327.8,74.9M269.8,94.3L249.2,114L230.2,136.1L212.9,160.5L197.3,186.9L198.7,187.2L195,189.6L192.4,193.7L192.1,196.2L187,203.5L187.1,205.7L184.5,212.3L185.4,214.9L174.6,233.6L171.8,236.5L164.4,249L153.9,257.9L148.6,260.1L145.2,260.2L143.3,264.5L146,267.3L146.8,271.2L150,274.6L153.1,271L154.1,272.3L154.5,280.4L157.1,280L162.6,281.5L163.5,283L165.7,296.2L167.8,297.5L172.1,296.9L177.2,294.2L182.5,293.6L182.9,298.1L181.9,301.1L173.7,308L171.5,313.4M89.3,262.5L89.5,261.8L95.6,250.4L100.5,243.6L105.4,236.4L109.1,231.6L114.3,224.2L116.6,220.3L115.9,219.4L122.1,210.9L127.2,204.9L136.2,194L141.9,186.2L140.2,187.8L150.1,175.4L169.1,155.5L169.5,155.3L178.7,146.2M421.7,416.6L418.4,413.2L416.4,415.2L413.5,412.1L419,407.6M813.7,568.6L810.9,571.7L812.8,589.3L812.6,590.1L797.7,597.6L789.1,591.5M809.3,562.1L811.5,564.2M812.5,567.2M641,471.8L638.7,470.4L632.7,471.3M613.5,483.9L608.3,485.4L604.8,484.4L607.7,478.5L607.9,474.4L612,474.9L611.2,471L606.1,466.9L604.7,462.7L595.5,460.6L591,463.4L589,466.1L582.6,469.7L572.6,468.3L571.3,469.7L566.7,466.6L568,460.8L567.9,456.8L573.5,444.9L570,439.8L573.2,436.3L580.9,434.5L588.1,435.5L597.3,433.3L598.8,434.9L604.2,431.8L605.3,427.6L608.9,426.1L611.9,423.5L617.5,421.4L622.2,424.9L622.8,429.4L626.9,428.4L630.4,433.1L637.1,433.7L640.3,430.7L645.3,432L655.1,432.3L655.3,437.5L658.9,442.7L659.1,446.4L655,447.9L652.9,451.4L653.8,455.2M817,443.2L813.2,444.6L811.5,451.2L813.5,457.8L810,466.7L811.2,469.5L809.2,474.2L803.1,475.1L798.6,468.5L795.3,471.4L787.5,469L772,473.7L767,480.7L766.9,484.7L763.6,488.5M740.8,460.6L742.6,455.3L746,451.7L751.1,452.3L756.5,455L758.1,453.2M687.1,491.7L693.7,488.4L698.5,490.3L702.7,496.8L709.7,497.7L710.1,498L706.7,502.1L711.9,508.9L712,512.9L717.3,517.3L705.6,520.7L704,523.8L694.7,527.9L687.9,534.3L680.6,535.3L676.7,539L671.7,539.4L672.9,543.9L669.1,548M600.1,525.6L602.6,519.4L600.3,517.2L605.5,513L609.9,513M510.5,597.8L510.6,604.1L500.8,611.9L501.5,617.4L496.5,621.9L493.2,606.9L488.3,603L484.2,597L482.8,590.3L488,585.1L489,581.2L488,570.6L490.5,567M427.2,796.3L421.9,790.7L423.5,781.2L420,773L421.4,767.5L418,761.4L425.8,763.2L424.5,767.2L429,770.4L431,777L430.8,795.8M970.3,447.7L969.6,444.7L967.9,433.2L965.5,428.5L964.3,424.8L961.9,423.6L959,412.5L957,410.1L955.1,409.7L952.9,406.9L952.6,404.6L949.6,396.8L949.7,391.7L948.1,385.4L948.3,382L948.9,380.9L950.6,383.7L950.3,380.2L951.9,382.9L955.6,392.8L955.8,392.3L953.8,382.4L954.4,380.9L952.8,374.9L952.9,371.7L954.8,372.4L956.4,376.3L958,376.7L960.6,384L961.2,386.7L962.4,398L964.3,407.6L967.4,414.5M974.8,450.9L975.3,454.7L975.6,460.3L975.1,457.1L974.8,459.7L975,461.4M667.6,861L664.6,856.9L660.1,855L657.7,847.1L658.3,844.1L660.8,843.5L669.4,834.8L666.7,833.3L667.7,830.4L669.8,825L667.4,822.8M693.7,814.9L667.4,822.8L660.1,826.6L661.3,817.6L663,812.9L673.2,802.8L669,801.3L669.7,794.7L672.1,792.2L679.9,791.6L686.3,787.5L690.1,787.2L693.7,783.1L697.4,785.8L701.1,791.7L701.7,796.6L694,807.9L693.7,814.9L721.5,817L722.5,820L732.6,821.6M738.3,847.9L734.7,851L723.5,858.1L721.3,858.3L715.2,862.5L709,864.8L703.8,865.4L697.6,868L695.3,866.3L695.1,861.4L683.7,862.4M819,406.9L815,415.1L817,418L823.6,408.9L826.1,409.7L830.7,401.1L835.2,405.7L838.3,402.4L844.6,407.8L844.6,409.7L839.5,414.1L837.8,426.1L834.7,424.9L831.5,419.2L827,418.6L828.5,426.2L826.5,430L824.2,439.7L822.2,439.5M820.2,410.6M704,523.8L700.3,530.7L703.4,544.8L701.5,549.4L692.2,561.5L682.3,574.2L674.9,573.2L673.9,567.8L676.9,559.8L672.3,558M525.3,450.5L523,450.3L513.1,455.2L511.8,457.4L514.3,462.6L521,468.1L515.7,473.4L517,479L512.4,477.2L501.8,480.7L497.3,478.9L497.3,481.1L497.6,482.8L502.6,484.4L499.6,488.6L495.8,487.7L493.9,493L490.6,487.8L487.2,492.1L482.7,492L481.4,487.8L477.4,487.5L483,480.3L486.6,478.2L492.2,476.9L497.3,478.9M506,384L507.1,379.5L510.3,375.3L509.3,368.1L511.5,365.2L508.5,362.4L508.9,357.8L507.5,349.9L509.8,344.7L514.5,343.9L513.1,339.5L515.6,333.7L515.3,327.3L520.8,319.7L519.6,316.9L522.7,311.4L524.7,312.3L525.5,307.6L530.5,308.6L531.5,303.2L536.4,306.5L538.9,307.2L542.3,310L542.7,313.9L545.5,318.5L545.2,321.1L547.9,326M660.4,920L646.7,922.9L644.4,922.2L637.7,923.1L635.4,922L636.1,920.1L625.4,919L619.8,913.8L631.2,912.4L640.8,905.9L647.4,903L648.6,900.7L653.5,898.2L660.4,896.2L660.4,897.6L666.4,896.1L678.5,895.3L677.3,901.6L674.8,904.2L675.7,907.5L670.9,911.7L669.5,914.1L660.4,920L661,923L662.9,925.2L660.6,929.8L660.6,932L658.8,933.6L652.9,934.8L652,933.3L657.2,930.2L660.6,929.8M71.7,615.1L70.4,615.7L70.2,622L71.2,626.8L70.2,630.3L68.5,631L67.3,627.5L63.2,623.1L62,623.3L61.2,621.6L57.8,601.4L59.4,598.3L61.4,597.7M669.7,794.7L660.4,790.2L648.8,794.5L642.4,791.1L639.7,787.4L635.1,786.5L633.7,783.1L624.2,779.2L621.3,775.6L615.5,773.1L618.5,771L622.2,760.7L628,758.7L634.3,763.6L644.7,760.8L646.1,762.3L652.4,760.9L660.9,752.2L666.8,754.3L670.5,753L678.8,741.9L675.7,736.1L684,732.1L684.7,741.5L690.5,744.3L692.4,748.8L693,754.7L686.5,757.9L685.1,761.3L690.2,761.7L698.5,765.8L703.1,771.9L693.7,783.1M615.5,773.1L610.6,772.9L611.1,766L604.4,759.5L599.8,748.1L595.5,747.8L598.5,743.5L604.3,725.4L611.1,723.7L608.9,696.4L608.5,692.6L616.1,691.2L614.6,676.2L658.2,665.3L700.3,653M717.7,677.7L715.5,681.9L707.5,688.7L707.7,694.4L705.4,704L706.9,709.9L705.2,721.6L701.6,724.2L698.6,730.4L697.9,737.3L693.2,741.2L692.4,748.8M429,508.1L430.5,511.2L447.5,517.3L449.2,518.2L458.3,519.7M386.1,552.7L386.1,549.3L389.8,546.2L388.4,542.4L391.5,538L389.1,532.4L392.3,532.6L394.6,527.8L395,522.2L400.1,518.8L398.3,515L393.5,514.9L385.5,512.1M837.7,173.2L834.5,170.2L831,165.8L828.6,163.5M660.6,932L665.8,930.5M547.1,956.7L551.8,954.9L554.3,956.3L567.2,955.4L572.8,953.7L575.2,943.9L580.5,946.4L579.5,948.9L586.1,948L593.9,944.8L599.2,941.8L609.5,941.4L615.8,939.7L619,936.7L626.2,933.8L627.9,931.9L637.8,926.6L646.7,922.9M632.8,946.4L638.5,943.4L634.1,943L627.4,945.3L621.8,948.1L623.3,949.1L627.2,948.8L632.8,946.4M749.9,798L746,794.9L745.6,772.9L751.9,762.9L766.5,749.9L772.8,747.1L782,732L791.3,716.8L796.3,703.8L794.6,691.9M791.3,716.8L784.3,720.4L764.2,723.9L760.2,723L753.5,717.4L755,714L756.8,709.6M566.7,466.6L557.6,466.9L554.8,470.5L543.4,474.8L539.8,473.2L538.3,468.4L547.7,459.8L550.8,458.7L552.9,461.8L562.7,458.7L568,460.8M521.7,494.6L521.2,486.8L525.9,487.5L534.7,483.1L537.3,486L532.5,488.9L531.2,495.1L520.9,495.2M313.3,753.4L319.8,749.8L329.7,751.8L336.1,763.7L333,767.8L326,771.5M610.1,497.8L600.8,496.2L592.4,502.2L578.8,502.9L575.3,500.4L575.4,507L578.3,508.8L575.7,512.2L575.6,516.6L570.9,517.9L571.6,514.2L565,510.2L563,514.1L555.4,509.1L557.2,504.6L553,498.1L551.5,489.4L558.9,487L562.6,491.8L567.2,494L566.7,496.5L571.4,498.5L573.5,496.8L575.3,500.4M294.6,698.7L297.4,694.5L306.5,696.5L311.5,698.8L316.5,703.6L320.9,711.6L324.8,716L325.6,724.8L330.1,731L329.7,734.8L322.9,733.4L312.3,727.7L301.5,724.2L290.1,722.6M290.3,717.6L297.2,719.3L302.5,718.2L308.9,722.6L312,722.8L304.3,717.1L292.2,714.5M675.8,601.4L683,600.3L686.6,593.4L691,590.7L693.2,585.6L684.8,580.3L697.2,570.3L705.1,568.7L717.4,570.8L737.5,577.7L748.6,573L754.1,571L756.6,573.6L761.1,571.1M783.6,590.6L786.6,590.2M812.8,589.3L816.9,592.5L817.5,609.1L802.3,627.6M514.9,508.9M667.7,830.4L662.8,831.3L662.3,833.5L655.6,835.2L654.3,834L660.1,826.6M804,144.9L803.4,145L797,140.4L789.9,137.8L785.4,134.2L783.5,131L774.5,125.6L768.2,122.9L764.2,120.3L762.3,120.8L769.4,126.7L770.8,127.5L775.8,132.8L770.8,132.4L770.8,135.1L773.7,139.8L767.6,140.8L761.4,140.8L759.1,141.9L760.3,144.5L760.2,147.7L766.8,156.7L771.5,160.6L771.9,159.1L775.5,160.2L778.9,163.1L787.8,168.8L789.7,169.3L795.4,175.6L795.4,179.2L796.7,184L796,186.7L801.7,193.1L807,202.7L808,210.7L804.8,211.3L803.2,214.7L802.9,219.1L805.8,226.8L803.3,230.3L798.3,228.2L795.9,234.8L793.5,237.2L798.4,243.6L800.7,245.5L803.7,245.5L806.6,248L808.6,252.7L807.6,253L805.7,261.4L802.2,260.5L801.2,264.6L799,266.2L802.9,280.6L804.9,285L804.2,288.1L805.5,290.9L805.4,293.2L801.3,293.3L799.1,298.2L796.4,297L794.3,298.6L790.5,297.3L788.3,298.3L788.6,302.7L786.8,306.3L782.5,305.5L784,311.3L769.8,306.6L763.8,305.2L758.2,305.8L755.6,302.3L755.6,314.2L754.4,318.7L752.3,315L747.1,317.5L744.7,321.4L742.6,318.9L737.4,316.1L736.9,318.6L732.7,320.8L732.5,327.5L728,335.3L721.5,349.4L719.1,350.4L720.3,354.1L726.9,355.7L723.8,358.1L726.6,362.1L725.8,367.4L732.7,367.2L735.8,371L735.1,373.4L731.2,375.1L731.9,377.4L728.1,379.3L724.5,378.2L722.1,381.9L718.1,383.6L717.5,388.4L711.3,388.6L712.9,391L704.3,388.6L699.6,389.7L696.7,393.6L693.4,393.1L693.1,397.6L689.3,406.3L692.7,410.2L691.7,412.5L686.4,410.2L685.2,411.8L686.5,419.7L688.4,421.2L689.4,427.2L694.8,430.7L698.4,428.7L708.7,436.3M722,471.4L720.7,478L717.4,478.9L711.3,476.8L706.3,476.4L705.9,474.1L700.7,474.1L696.6,477.8L686.7,476.4L682.4,478.4L676.7,478L673.5,480.3M608.9,426.1L604.6,417.9L608.2,417.8L610.2,415.1L608.1,412.6L604.6,412.6L597.9,406.1L596.4,399.7L592.8,398.4L582.9,398.3L579.2,393.2L579.2,389.8L576.5,388.1L577.6,385.2L574.2,377.6L575.1,372M571.9,364L575.7,356.9L579.9,345.1L579.9,342.2L572.3,337.4L573.3,334.8L569.9,329.6L567.9,328.5L566,319.8L561.1,313.9L562,307.9L556.9,305.2L555.5,303.1L555.6,298.8L558.8,292M553.1,411.1L559.6,411.9L561.5,417.4L546.4,418.7M551.5,411.2L551.8,411.2M558.9,487L563.3,485.3L568.4,472L571.3,469.7M591,463.4L593.1,463.9L602.7,474.7L604.8,484.4M547.7,459.8L545.9,456.9L542.1,456.5L533.9,452.2L525.3,450.5L526.2,447.1L523.7,442.5L523.4,436.7L520.8,434L521,426.9M520.7,425.8L520.7,425.1M561.5,417.4L565.6,420.2L569.4,430.3L566.8,434.2L569.4,435.5L570,439.8M23.1,532.6L23.3,534.7L23.6,535.1L23.6,528.4L24,531.8L24.5,539.6L25,544.7L25.8,553.7L26.6,559L27.3,561.1L28.3,566.4L29.7,574.4L29.3,576.6L30.6,583.7L29.4,578.5L28.3,574.3L27.6,571.9L28,575.5L28.4,578.2L28.4,577.8M27.9,464.4L27.3,469L26.1,469.8M27.3,435.7L28.3,431.7L29.1,427.4L29.1,428.9M838.9,546.1L837.2,537.7L841.9,529.4L841.1,525.7L838.2,527L835.2,520.2L830.4,521.7L821.4,516.8L830.3,513.4L837.4,506.8L844.5,495L841.6,486.9L842.2,482L845.1,473.4L848.4,471.5L848.7,467.7L845.3,459.7L846.9,454.6L843.1,452.3L846.6,446.3L844.3,443.6L843.7,436.6L838.6,432.9L838.3,428.5L839.7,421.8L844.6,412.5L849.9,409.2L854.4,413L856.9,411.3L860.1,413.4L860.5,417.7L859,423.1L853.8,427.7L854.2,432.6L858.7,436.3L859.3,438.7L864.3,440.3L867.2,438.8L867.1,446.1L870.1,449.8L870.3,462.6L872.1,470.6L871.2,475L872.3,482.3L869.7,488.4L866.9,488.5L866.7,497.9L867.5,500.8L871.1,499.9L872.1,502.9L876.3,504.5L880.9,509.4L876.6,517.1L872.5,521.1L871.4,526.3M555.6,298.8L554.4,294L550.1,291.9L546.7,293.8L545.8,296.1L546.5,301.1L545,304.5L541.4,303.5L537.3,304.8L534.1,301.1L531.5,303.2M833.5,175.9L829.9,172.4L824.7,166.7L817.9,160.8L816.2,156.9L813.6,155.8L810.7,152.3L806.2,148.2L803.1,146.3L803.4,145M439.7,795.7L440.6,778L442.8,777.9L449.6,768.1L447.8,760.4L448.4,754.6L452.6,748.3L463.5,746.1L470.7,748.4L476.1,752.9L482.1,750.7L489.8,753.9L496.9,754.6L501.5,751.4L511.4,750.7L520,752.3L529.2,747.6L533,751.9L534.2,756.8L537.7,758.5L537.2,762.8L531.8,765.6L519.8,783.4L515.4,793.3L509.6,797.9L505,793.9L501.2,794.3L492.2,800.7L488,808.7M447.8,760.4L442.1,755.2L438,758.1L435.9,752.3L431.6,752.3L427.1,748.9L428.9,746.9L424.3,743.9L420.9,737.8L421.5,734.9L430.3,733.3L447.9,734.3L450.9,731.7L454.1,722.8L454.6,706.8L467.3,705.1L480.4,695.1L515.1,674.9L526.7,677.1L532.5,681.2L538.2,677.9L540.2,689.1L546.5,698L544.9,701.1L543.6,723.6L535.1,732.6L527.8,742.9L529.2,747.6M31.6,414.9L33.2,401.9M38,382L38,383.7L38.9,381.1L38.9,383.4L38.3,386L39.5,385.5L39,388.7L39,394.6M486,430.9L483.2,442.1L479.1,443.2L480.2,445.5L478.9,451.6L478.2,448.4L472.8,445.1L470,445.8L465.4,445.5M619.8,913.8L612.8,915.8L606.5,918.6L604.5,917.4L586.4,921.2L584.4,934.3L576.8,935.3L575.2,943.9M513.9,922.9L524.7,921.4L531.3,922.8L566.6,920.1L570.8,921.2L590,919.5L605.4,915.8M682.7,883.3L685.5,884.7L690.8,882.4L691.5,885.7L688.8,888.9L695.2,891.5L694.8,889.6L699.6,886L701.6,879.9L693.3,877.2L692.7,872.4L697.6,868M694.9,870.8M695.4,871.1M417.2,575.9L419.7,579.2L419.1,590.9L422.6,598.4L420.8,601.3L412.7,599.7L402.8,601.9L403.6,607L393.6,610.1L389.7,613.5L377.9,613.8L365.9,618.4L364.4,626.7L362.9,630.7L356,631.1L347.9,627.8L344.5,627.9L341.2,633.2L338.9,633.2L334.5,641.6L327.2,646.2L322.7,647.2L318.6,656.9L313.1,661.9L298,656.9M364.4,626.7L363.9,629.6L362.4,639.7L338.9,633.5L335.6,652.8L327.9,654.3L325.9,666.8L298.1,657.7L296.8,661.3M563,514.1L561.5,516.6L559,516.3L557.8,522.8M552.2,518.7L551.7,517.7L551.4,514.3L555.4,509.1M795.4,179.2L808.4,188.3L809.5,187.7L807,183.9L807.3,182.3L804.7,179.8L803.4,177.1L806,174.7L809.2,176.1L811.1,181.1L816.6,189.1L822.8,195L825.1,200L830,205.7L830.4,211.5L835,215.9L838,215.9L841.2,221.1L845.1,225.7L847.9,230.9L851.1,243.1L855.2,252.1L855.9,258.6L853.8,264.3L852.5,264.3L851.4,271L852,273.7L850.4,282.5L850.5,286.4L847.5,286.2L841.1,283.7L840.4,286L836.5,287.9L832.6,297.9L830.4,297.2L827.7,293.4L822.1,289.6L817.3,288.4L814,291.8L809.5,293.2L805.5,290.9M484.2,510.3L484.6,510.2M51.4,346.7L50.7,345.4L53.3,335.2L51.9,338.2L52.5,335.9L49,346L48.3,347.5L50.3,340.4L49.4,341.9L47.8,345.8M363.9,629.6L389.2,653.3L376.3,650.8L376.6,715.6L378.5,718.1L376.8,723.5L348.7,717.3L337.1,714.9L335.4,716.5L331.3,711.7L324.8,716M389.2,653.3L431.4,689.9L435.2,695.8L446.8,701.4L445.8,706.1L454.6,706.8M421.5,734.9L413.8,732.9L400.1,736.5L394,739.8L393,742.5L387.1,740.8L383.6,747.5L376.7,749.8L374.2,759.1L370,759.9L368.5,755.9L362.7,758.3L357.4,755.6L354.7,756.8L352,747.7L349,744.9L347.7,739.5L334.9,739.7L329.7,734.8M575.6,516.6L580.3,520.9L580.2,524.1L568.8,529.9L565.4,526.8L565.3,521.8L570.9,517.9M551.1,404.7L555.4,401.3L564.8,401L568,399.2L577,403.6L578.5,406.4L575.1,410.3L574.7,415.3L571.7,418.9L565.6,420.2M497.3,481.1L497.6,482.8M606.3,600.3L604.8,612.5L607.9,620.3L614.6,676.2M608.9,696.4L545.7,673.9L538.2,677.9M515.1,674.9L511.5,668.7L501.9,666.7L500,660.9L495.9,655.1L498.9,651.3L498.9,632L495,622.8L496.5,621.9M336.1,763.7L342,766.1L342.1,772.4L346.5,774.5L349.7,773.3L351.1,776.8L348.5,780L357.4,786.4L356.3,795.7M673.9,567.8L670,571.9M562.9,387.9L565.9,385.8L573,388.8L576.5,388.1M582.9,398.3L581.1,401.6L577,403.6M958.4,371.4L959.9,377.6L959.6,377.9L961.5,384.9L961.2,386.7M948.3,382L945.5,373.6L944.4,369.5L945.6,368.5L941.5,361.8L941.7,359.7M809.3,394.2L810.3,401.5L816.1,399.5L817.2,397.3L822.8,394.9L821.7,404.6L819,406.9L816.2,407.8L813.7,403.9L813.1,409.1L814.2,421.2L811.3,423.5L811.7,427.4L815.6,426.3L820.3,431.7L822.2,439.5L817,443.2L814.9,438.9L809.8,440.7L801.3,441.4L791.7,440.8L783.5,435L777.2,439.1L770.3,433.7L763.1,434.5L762.4,441.2L760.2,446.3L762.9,450.3L758.1,453.2L743.1,427.1L750.5,415.8L765.5,415.5L773.2,418.4L777.1,413.3L781.8,409.6L782.7,406.9L789.7,409.2L790.2,407.4L794.5,414.2L796.2,412.5L801.3,416.9L804.8,412.4L809.5,413.4L807.7,407L809.3,394.2L807.8,390L810.7,386L815.8,383.4L813,379.5L813.5,375.6L819.4,372.6L821.8,366.5L827.8,358.9L833.2,357.8L833.4,370.1L834.4,372.9L831.7,378.8L833.5,383.4L832.2,387.5L830.4,386.1L828.9,396L830.7,401.1M748.6,573L750,564.3L754.8,561.9M565.3,521.8L561.5,516.6M703.1,771.9L706.7,771.6L709.5,776.4L715.7,774.5L724.6,776.1L734.9,773.3L737.3,769.8L743.8,764.4L747.2,765.1L751.9,762.9M805.4,293.2L805.2,295.7L807.9,298.8L807.7,302.6L814.3,308.6L815.6,314.2L811,318.5L818.7,330.4L821.6,332.3L818.9,334.2L817.7,342.5L819.9,342.4L823.3,346.4L829.2,349.9L830.6,355.3L833.2,357.8M692.2,561.5L697.2,570.3M675.5,599.8L675.2,583.8L674.1,576.4L674.9,573.2M502.6,484.4L512.3,482.5L513.7,485.6L521.2,486.8M484.9,510.1L486.1,507.5L481.5,505.2L480.2,498.6L483.3,496.4L482.7,492M674.1,576.4L670.7,579.5L675.2,583.8M675.2,600.6L667.9,588.4L668.7,585M667.9,588.4L667.4,587.6M717.3,517.3L723.8,524.2L728.7,523.4L730.5,528.8L728.9,532.6L729.6,539.6L738,544.7L744.9,545.5L749.2,548.8L750.4,555.2L758,560.2M803.1,475.1L805.4,483L805.4,488.6L809.4,491.1L809.1,495L816.1,505.5L820.1,503L822.5,506.3L821.4,516.8M710.1,498L716.2,501.2L719.3,500.4L721.2,499.2L725.4,490L729,490.4L729.4,495.6L735,496M860.1,413.4L860.3,407.7L865.3,410.7L868.9,410.2L871.6,415.4L876.9,419.5L874.7,423.3L877.9,425.1L880.5,429L890.8,425.3M913.5,403.6L918.8,412.2L917.8,416.6L912.9,424.5L907.8,426.2L906.6,430.9L901.5,435.1L893.7,437.9L890.7,429.1L890.8,425.3L892.5,419.3L900.3,418.6L901.2,415.8L906.7,416.1L909.7,414.2L910.2,410.2L912.1,408.7L913.5,403.6L913.4,399.7L916.7,402.8L918,405L920.2,401.8L922.3,388.9L918.5,386.1L918.8,379.7L916.8,373.4L915,362.1L916.5,359.4L915.3,354.2L919.5,356.5L920.7,354.1L922.6,358.8L924.9,361.6L924.1,366.1L925.9,374.3L927.9,377.4L930.4,384.9L931.2,385.1L934.8,394.8L933.6,398.4L936.6,403.1L939.8,411.7L939.5,414L933.7,406L935.4,413.4L932.9,412.4L931.4,408.3L931.6,405L929.3,397.7L928.5,398.6L926.6,407.1L925.4,409.5L923.1,405.8L919.2,409.3L920.8,415.2L923.2,414L925.1,422.9L927.3,421.3L929.1,425.6L934.8,432.4M551.5,489.4L545.3,491.2L537.3,486M534.7,483.1L536.6,481.8L536.7,475.6L539.8,473.2M39.3,377L40,375.2L40.9,370.9L43.2,362.6L44,360.9L44.6,361.8M54.7,431.5L53.2,435.6L51.4,436.8L50.2,441.3M62,623.3L59.9,619.5L55.9,615.3L55.3,616.2L53.2,611.7L51.8,605.7L51.3,599.7L52.1,595L53.2,594.6L51.9,588L52.6,585.3L50.6,580.4M312.3,727.7L311.6,734.2L304.4,733.5L301.3,736.5M354.7,756.8L353.2,761L356.4,769.1L349.7,773.3M50.7,345.4L46.2,355.3L45.8,357.2M43.2,362.6L42.9,362.2M563.9,540.1L566.2,539.1L568.8,529.9M580.2,524.1L589.7,520.7L594.6,522.4L599.7,520.1L600.3,517.2M392,797.9L392.2,797.7M392.8,797.8L394.4,797.9L391.3,786.6L397.5,778.3L396.4,769.6L395.8,759L412.9,761.6L418,761.4M486.6,478.2L486.5,474.3L489.8,466.8L482.2,465L480.2,462.4M479.3,456.8L480.2,462.4L477.2,461.6L479.3,456.8L478.9,451.6M493.6,417.7L498.7,418.4M711.3,476.8L714.1,482.9L706.9,483.1L706,485L698.5,490.3M496.6,831.8L511.1,832L511.1,824.9L511.2,824.1L527.4,824.4L527.3,830.1L534.9,828.9L536.9,831.6L532.2,838.4L537.3,840.6L536.5,848L534.1,851.4L528.9,851.2L520.3,848.9L520.4,851.2L513.4,851.4L512.8,854.2L516.1,856.8L509.4,860.2M449.2,518.2L447.5,517.3M460.9,447.4L468.8,457.5L472.6,456.3L472.4,459.2L477.2,461.6M80.4,636.2L75.6,641L74.5,640.6L68.5,631M65.4,489.1L65.1,488.4M706.9,709.9L712,706.6L714.5,707.9L716.1,702.1L720.9,703.5L724.7,700.5L733,698.6L737.1,699L749.9,705.8L746.5,713.6L747.3,717.6L755,714M754.8,701.8L749.9,705.8M498.3,824.1L511.1,824.9M22.2,498.1L22.5,511.2L22.9,519.3L23,519.1L23.6,528.4M538.3,468.4L527.2,466L525.8,469.2L521,468.1M659.2,558.5L650.9,560.2M553,498.1L550.8,496.6L540.5,496L537,498.5L534,497.3L533.9,500.8L546.2,515M546.7,515.3L551.7,517.7M374.2,759.1L383.3,766.2L392.3,766.1L396.4,769.6M613.3,885.9L599.7,889.6L599.4,884.2L596.5,881.9L597.5,876.3L596.5,871.2L587.3,872.4L586.3,870.6L578.5,872.8L576.8,877.1L562.1,879.2L557.6,875.5L555.4,870L552.3,868.7L525.5,870.3M518.4,870L520.4,866.2L525.5,863.7L528.4,864.7L536.2,861.4L539.7,864.2L551.1,855.9L551.7,848.6L558,842.2L564.5,838.1L567.1,822.6L571.4,813.1L571,808.2L578.6,801.8L587.3,805L602.6,804.8L605.2,801.2L617.8,796.8L625.2,795.2L627.4,793L642.4,791.1M655.6,835.2L657.2,836.7L658.3,844.1M527.4,824.4L537.4,824L547.8,824.8L550.4,826.1L551.5,822.4L554.6,814.8L561.7,812.7L571.4,813.1M525.5,863.7L519.8,863.8L516.8,866M34.6,569.5L33.6,560.7L32.4,559.1L29.7,549.5L29.6,553.3L30.6,559.8L29.2,555L29.2,559.1L30.3,569.2L30.6,583.7M944.4,369.5L944.8,375.1L943.1,373.7L942.8,377.1L939.7,371L939.3,373.1L936.3,368.3L936.7,375.9L934.6,373.1L932,367.4L930.1,360.1L923.6,350.6L923.6,352.6L919.7,350.8L920.7,354.1M918.5,386.1L917.7,385.2L914.6,394.9L916.7,402.8M860.3,407.7L856.9,411.3M844.6,412.5L844.6,409.7M927.9,293.5L928.4,295M930.2,298.9L930.4,299.4M604.4,759.5L601.5,759.5L584.7,774.7L575,776.6L570.7,783.5L563,784.8L556,788.3L554,786.4L545.2,789.3L542.1,782.6L532.7,775.5L534.8,773.4L546.4,772.5L541.1,765.2L541.4,760.1L536.7,752.4L533,751.9M551.5,822.4L550.4,818.5L542.6,813.3L537.9,804.4L539.5,797.6L545.2,789.3M942.9,422.2L941.2,420.1L941.6,417.6L939.5,414M438,758.1L434.6,761.2L430.2,760.5L425.8,763.2M83.5,734.5L84.9,737M77.4,723.3L78.5,725.5L82.5,732.8L83.5,734.5L80.4,728.5L77.8,723.3L75.5,719L73.1,713.7L68.3,704.7L62.4,690.1L60.3,685.4L58.5,681.8L53.9,670.2L50.4,661.5L48.4,655.7L46.3,649.5L44.1,641L41.8,635L40.4,631.3L39.7,629M709.7,497.7L716,497.6L719.3,500.4M721.2,499.2L717.5,494.8L713.1,493.5L714.3,490.5L706,485M711,488.7M707,486.9" fill="none" stroke="rgba(255,255,255,0.055)" stroke-width="1"/>
<circle cx="500" cy="500" r="478" fill="none" stroke="rgba(255,255,255,0.09)" stroke-width="1.5"/>
</svg>