<svg xmlns="http://www.w3.org/2000/svg" viewBox="0 0 1000 1000" role="img" aria-hidden="true">
<defs>
<radialGradient id="globe-disc" cx="38%" cy="30%" r="75%">
<stop offset="0%" stop-color="#242424"/>
<stop offset="100%" stop-color="#1d1d1d"/>
</radialGradient>
</defs>
<circle cx="500" cy="500" r="478" fill="url(#globe-disc)"/>
<path d="M973.6,564.7L974.4,552.4L972.2,531.6L965.3,510.5L954,489.3L938.3,468.2L918.4,447.4L894.5,427.1L866.7,407.5L835.5,388.9L801,371.2L763.6,354.9L723.6,339.9L681.6,326.4L637.7,314.7L592.6,304.7L546.5,296.6L500,290.5M552.4,24.9L550.5,25.9L548.4,29.1L543.4,42.6L530.9,96L516.1,180.8L500,290.5M26.4,435.3L31.2,416.2L40.1,397.8L53.2,380.3L70.2,363.8L91.1,348.6L115.6,334.8L143.5,322.4L174.6,311.6L208.6,302.5L245.3,295.1L284.2,289.6L325,285.9L367.3,284.2L410.9,284.4L455.2,286.5L500,290.5M447.6,975.1L445,971.8L443.2,962.5L441.7,926.4L442.9,877.3L446.2,813.8L458.8,653.4L477.7,469.6L500,290.5M974.4,552.4L976.5,533.7L977.7,515L978,500M22,500L22,503.7L22.7,522.5L24.2,541.2L26.7,559.8L30,578.3L34.3,596.6L39.4,614.8L45.4,632.8L52.3,650.5L60,667.9L68.6,685L78,701.7L88.1,718.1L99.1,734L110.9,749.5L123.3,764.5L136.5,779L150.4,793L165,806.4L180.2,819.3L196,831.5L212.3,843.1L229.3,854.1L246.7,864.3L264.6,873.9L283,882.8L301.8,890.9L320.9,898.3L340.4,905L360.2,910.9L380.3,915.9L400.6,920.2L421.1,923.7L441.7,926.4L462.5,928.3L483.3,929.4L504.2,929.6L525,929L545.8,927.6L566.5,925.4L587.1,922.4L607.5,918.6L627.7,914L647.7,908.6L667.4,902.4L686.8,895.5L705.8,887.8L724.4,879.3L742.6,870.2L760.3,860.3L777.6,849.8L794.3,838.5L810.4,826.7L826,814.2L840.9,801.1L855.2,787.5L868.8,773.3L881.7,758.6L893.9,743.3L905.4,727.7L916,711.6L925.9,695L935,678.2L943.2,660.9L950.6,643.4L957.1,625.6L962.8,607.6L967.6,589.3L971.4,570.9L974.4,552.4M977.2,472.2L975,456.7L970.1,441.5L962.4,426.2L952,411.4L939,397L923.4,383.3L905.4,370.3L885,358L862.3,346.5L837.5,335.9L810.8,326.3L782.3,317.7L720.4,303.8L653.4,294.4L582.9,289.7M963,381.1L958.7,368.4L951.2,354.4L941,341.1L928.3,328.8L913.1,317.5L895.5,307.3L875.6,298.2L853.5,290.2L829.3,283.5L803.3,278L775.4,273.9L745.9,271L715.1,269.5L649.7,270.5L580.9,276.9M932.2,295.9L924.8,283.3L914.9,272L902.7,261.9L888.2,253.2L871.4,246L852.6,240.1L831.7,235.8L809,232.9L784.5,231.6L758.3,231.8L701.8,236.8L640.7,247.8L576.4,264.5M887.4,220.1L879.2,210.7L869,202.7L856.9,196.3L843.1,191.3L827.5,188L810.2,186.2L791.4,186L771.2,187.4L726.6,194.9L677.5,208.5L624.8,228L569.6,253M831.7,155.8L823.6,149.5L813.9,144.7L802.9,141.5L790.5,140L776.8,140L761.8,141.7L728.4,149.9L690.9,164.5L650,185L606.3,211.3L560.7,242.8M768.1,104.2L760.8,100.5L752.5,98.4L743.2,98L732.8,99.2L709.4,106.6L682.4,120.4L652.5,140.4L620.1,166.3L585.7,197.7L550,234.1M699,65.4L693.3,63.8L686.9,63.8L671.9,68.9L654.3,80.5L634.4,98.4L612.4,122.5L588.7,152.3L563.7,187.4L537.7,227.2M626.7,39.1L622.9,38.9L618.7,40.5L609,48.4L597.7,62.9L585.1,83.7L571.2,110.4L556.3,142.7L524.3,222.3M477.5,22.5L480.7,35.6L484.9,74.4L495.7,219.1M402.9,32L405.8,32.2L409.1,34.1L416.5,42.9L425.2,58.2L434.9,79.7L456.9,140.2L481.3,221M329.6,53.4L334.6,52.5L340.2,53.2L353.1,59.5L368.2,72.4L385.2,91.7L404,117L424.2,147.9L445.5,184.1L467.6,225M259,87.2L265.7,84.4L273.3,83.2L281.8,83.7L291.2,85.9L312.4,95.1L336.6,110.7L363.4,132.5L392.3,160.2L422.9,193.2L454.8,231.1M193,133.7L200.8,128.4L210,124.8L220.4,122.8L232.1,122.4L244.9,123.7L258.8,126.5L289.7,137.2L324.2,154.1L361.8,177L401.7,205.5L443.4,239.1M133.7,192.9L142,184.7L152.1,178.1L163.9,173L177.2,169.5L192.1,167.6L208.5,167.3L226.3,168.6L245.4,171.4L287.3,181.9L333.2,198.5L382.3,221L433.7,248.7M84.2,264.3L92.1,253L102.2,243L114.5,234.4L128.8,227.3L145.2,221.6L163.5,217.5L183.6,214.8L205.4,213.8L228.9,214.2L253.8,216.3L307.4,224.9L365.3,239.5L426,259.8M47.5,346.1L49.8,339.9L57.2,326.3L67.1,313.7L79.6,302.2L94.5,291.8L111.8,282.7L131.4,274.8L153.1,268.2L176.8,263L202.4,259.2L229.7,256.7L258.6,255.7L288.9,256.1L353.1,261.2L420.6,271.8M22.8,527.8L24,506.8L29.9,485.8L37.6,469.8L48,453.9L61,438.4L76.6,423.2L94.6,408.4L115,394.2L137.7,380.6L162.5,367.7L189.2,355.6L217.7,344.3L279.6,324.5L346.6,308.8L417.1,297.5M37,618.9L34.6,604.6L34.5,589.8L36.7,574.5L41.3,558.8L48.8,541.6L59,524.2L71.7,506.6L86.9,489L104.5,471.4L124.4,454L146.5,436.9L170.7,420.2L224.6,388.2L284.9,358.8L350.3,332.6L419.1,310.4M67.8,704.1L62.1,687.5L60,669.3L61.5,649.7L66.7,628.9L73.8,610.6L83.3,591.6L95.4,572.1L109.7,552.1L126.3,531.9L145.2,511.5L188.9,470.5L239.8,430.3L296.8,391.6L358.6,355.5L423.6,322.8M112.6,779.9L103.7,762.9L99.5,742.7L100,719.7L105.2,694L111.7,674.6L120.4,654.2L131.3,632.9L144.4,610.8L176.7,564.8L216.5,517.3L263,469.4L314.9,422.2L371.1,376.8L430.4,334.3M168.3,844.2L162.1,836.9L157.2,828.4L153.6,818.6L151.4,807.6L150.9,782L155.7,752.2L161.4,731.8L169,710.1L189.9,663.1L218.1,612.4L252.8,559L293.3,504.3L338.6,449.4L387.6,395.8L439.3,344.5M231.9,895.8L225.5,890L220.2,882.5L216.3,873.1L213.7,862L212.5,834.9L216.7,801.5L227.6,757.5L244.8,707.6L268,652.8L296.6,594.4L329.9,533.9L367.2,472.6L407.5,411.9L450,353.2M301,934.6L295.2,930.5L290.5,924.2L286.9,915.6L284.5,904.8L283.1,876.7L286.3,840.6L294.5,795.1L307.5,742.8L325,684.8L346.6,622.5L371.7,557.4L399.8,490.9L430.2,424.6L462.3,360.1M373.3,960.9L369.2,958.3L365.8,953.1L361.4,934.7L360.3,906.2L362.4,868.2L367.7,821.7L376,767.7L387.3,707.4L401.2,642.3L417.4,574L435.5,503.8L455.1,433.6L475.7,365M522.5,977.5L523.9,971.5L524.8,954L524.6,886.1L522.2,783.8L517.7,655.2L511.6,512.2L504.3,368.1M597.1,968L600.4,965.9L603.1,961L606.6,942.9L607.5,914.3L605.9,875.9L601.8,829L595.4,774.6L576,647.8L549.7,507.4L518.7,366.3M670.4,946.6L675.6,943.2L679.9,937.3L683.1,929L685.3,918.3L686.7,890L683.9,853.1L676.9,807.1L665.7,754L650.6,695L632.1,631.5L610.4,564.9L586.2,496.7L560,428.7L532.4,362.3M741,912.8L747.3,907.8L752.4,900.7L756.3,891.6L758.9,880.6L760.2,853L756.4,818.5L746.5,773.8L730.9,722.8L709.9,666.7L684.1,606.6L653.9,544.1L620.2,480.5L583.7,417.4L545.2,356.2M807,866.3L813.5,859.6L818.6,851.4L822.4,841.8L824.8,830.7L825.7,804.4L821,773L808.7,730.2L789.2,681.9L762.9,629.5L730.5,574L692.8,516.8L650.5,459.2L604.8,402.6L556.6,348.2M866.3,807.1L871.9,799.2L876.2,790.4L879.3,780.5L881.2,769.8L881.1,745.6L875.9,718.2L869.8,698.4L861.5,677.5L838.6,632.6L807.9,584.6L769.9,534.7L725.7,483.9L676.3,433.5L622.7,384.7L566.3,338.5M915.8,735.7L922.8,718.7L925.8,699.5L924.7,678.5L919.4,655.7L912.6,636.9L903.3,617.3L891.7,597.1L877.8,576.3L861.7,555L843.5,533.4L801.2,489.7L751.8,446.3L696.7,404.2L636.9,364.3L574,327.5M952.5,653.9L956.2,638.5L957.1,622.1L955,605.1L950.2,587.3L942.8,569.7L932.9,551.6L920.4,533.2L905.5,514.7L888.2,496L868.6,477.4L846.9,458.9L823.2,440.7L770.3,405.3L711.1,372.1L646.9,342L579.4,315.5M201,873L214.3,883.2L229.7,894.1L245.6,904.4L262,914L278.8,923L296.1,931.4L313.7,939L331.7,946L350.1,952.2L368.7,957.7L387.5,962.5L406.6,966.6L425.9,969.8L445.3,972.4L464.8,974.1L484.3,975.1L503.9,975.4L523.5,974.8L543.1,973.5L562.5,971.5L581.9,968.6L601,965L620,960.7L638.8,955.6L657.3,949.8L675.5,943.3L693.4,936.1L710.9,928.1L728,919.5L744.6,910.3L760.8,900.3L776.5,889.8L791.7,878.7L798.9,873M61.1,689.4L66.7,701.7L75.1,718.5L84.4,735L94.4,751.1L105.2,766.8L116.8,782.1L129.1,796.9L142,811.2L155.7,824.9L170.1,838.2L185,850.8L200.6,862.9L216.7,874.3L233.4,885.1L250.5,895.2L268.2,904.6L286.3,913.4L304.8,921.4L323.7,928.7L342.9,935.2L362.4,941L382.1,946L402.1,950.2L422.3,953.7L442.6,956.3L463.1,958.2L483.6,959.2L504.1,959.5L524.6,958.9L545.1,957.5L565.5,955.4L585.8,952.4L605.9,948.6L625.8,944.1L645.5,938.8L664.9,932.7L683.9,925.8L702.7,918.3L721,910L738.9,900.9L756.4,891.2L773.4,880.8L789.8,869.8L805.7,858.1L821,845.8L835.8,832.9L849.8,819.5L863.2,805.5L875.9,791L887.9,776L899.2,760.6L909.7,744.7L919.4,728.5L928.4,711.8L936.5,694.9L938.9,689.4M967.2,515.2L969.3,496.8L970.5,478.4L970.7,459.9L970.1,441.5L968.6,423.1L966.2,404.7L962.9,386.5L958.7,368.4L953.6,350.5L947.7,332.9L940.9,315.4L938.9,310.6M61.1,310.6L56.3,322.4L49.8,339.9L44.3,357.7L39.5,375.6L35.7,393.8L32.8,412.1L30.7,430.4L29.5,448.8L29.3,467.3L29.9,485.8L31.4,504.2L33.8,522.5L37.1,540.7L41.3,558.8L46.4,576.7L52.3,594.4L59.1,611.8L66.7,628.9L75.1,645.8L84.4,662.2L94.4,678.4L105.2,694L116.8,709.3L129.1,724.1L142,738.4L155.7,752.2L170.1,765.4L185,778L200.6,790.1L216.7,801.5L233.4,812.3L250.5,822.4L268.2,831.9L286.3,840.6L304.8,848.6L323.7,855.9L342.9,862.4L362.4,868.2L382.1,873.2L402.1,877.5L422.3,880.9L442.6,883.6L463.1,885.4L483.6,886.5L504.1,886.7L524.6,886.1L545.1,884.8L565.5,882.6L585.8,879.6L605.9,875.9L625.8,871.3L645.5,866L664.9,859.9L683.9,853.1L702.7,845.5L721,837.2L738.9,828.2L756.4,818.5L773.4,808.1L789.8,797L805.7,785.3L821,773L835.8,760.2L849.8,746.7L863.2,732.7L875.9,718.2L887.9,703.3L899.2,687.8L909.7,672L919.4,655.7L928.4,639.1L936.5,622.1L943.7,604.8L950.2,587.3L955.7,569.5L960.5,551.6L964.3,533.4L967.2,515.2M945.8,477.5L947.8,460L948.9,442.4L949.2,424.8L948.6,407.2L947.1,389.6L944.8,372.1L941.7,354.8L937.7,337.5L932.8,320.4L927.2,303.6L920.7,286.9L913.5,270.6L905.4,254.5L896.6,238.8L887,223.4L876.7,208.5L865.7,193.9L854,179.8L841.6,166.1L828.5,153L814.8,140.4L800.6,128.3L799,127M201.1,127L193.7,133.1L179.6,145.4L166.2,158.2L153.4,171.5L141.3,185.4L129.8,199.7L119.1,214.4L109.1,229.5L99.8,245.1L91.3,260.9L83.5,277.1L76.6,293.6L70.5,310.3L65.1,327.3L60.6,344.4L57,361.7L54.2,379.1L52.2,396.7L51.1,414.2L50.8,431.9L51.4,449.5L52.9,467L55.2,484.5L58.3,501.9L62.3,519.1L67.2,536.2L72.8,553.1L79.3,569.7L86.5,586.1L94.6,602.1L103.4,617.9L113,633.2L123.3,648.2L134.3,662.8L146,676.9L158.4,690.5L171.5,703.7L185.2,716.3L199.4,728.4L214.3,739.8L229.7,750.8L245.6,761L262,770.7L278.8,779.7L296.1,788L313.7,795.7L331.7,802.6L350.1,808.9L368.7,814.4L387.5,819.2L406.6,823.2L425.9,826.5L445.3,829L464.8,830.8L484.3,831.8L503.9,832L523.5,831.5L543.1,830.2L562.5,828.1L581.9,825.3L601,821.7L620,817.4L638.8,812.3L657.3,806.5L675.5,800L693.4,792.7L710.9,784.8L728,776.2L744.6,766.9L760.8,757L776.5,746.5L791.7,735.3L806.3,723.6L820.4,711.3L833.8,698.5L846.6,685.1L858.7,671.3L870.2,657L880.9,642.3L890.9,627.1L900.2,611.6L908.7,595.8L916.5,579.6L923.4,563.1L929.5,546.4L934.9,529.4L939.4,512.3L943,495L945.8,477.5M910.9,440.6L912.7,424.4L913.7,408.2L913.9,392L913.4,375.8L912.1,359.6L909.9,343.4L907,327.4L903.4,311.5L898.9,295.8L893.7,280.3L887.7,264.9L881.1,249.9L873.6,235.1L865.5,220.6L856.7,206.4L847.2,192.6L837,179.2L826.2,166.2L814.8,153.6L802.8,141.5L790.1,129.9L777,118.7L763.3,108.1L749.1,98.1L734.5,88.6L719.4,79.7L703.8,71.4L687.9,63.7L671.7,56.7L655.1,50.3L638.2,44.5L621,39.4L603.6,35L586.1,31.3L568.3,28.3L550.4,25.9L532.5,24.3L514.4,23.4L496.4,23.2L478.3,23.7L460.3,24.9L442.4,26.8L424.6,29.4L406.9,32.7L389.4,36.7L372.1,41.4L355,46.7L338.3,52.7L321.8,59.4L305.7,66.7L289.9,74.6L274.5,83.2L259.6,92.3L245.1,102L231.2,112.3L217.7,123.1L204.7,134.4L192.4,146.3L180.6,158.6L169.4,171.3L158.8,184.5L148.9,198.1L139.7,212L131.2,226.3L123.3,240.9L116.2,255.9L109.8,271L104.1,286.4L99.2,302.1L95.1,317.9L91.7,333.8L89.1,349.9L87.3,366L86.3,382.2L86.1,398.5L86.6,414.7L87.9,430.9L90.1,447L93,463L96.6,478.9L101.1,494.7L106.3,510.2L112.3,525.5L118.9,540.6L126.4,555.4L134.5,569.9L143.3,584.1L152.8,597.9L163,611.3L173.8,624.3L185.2,636.9L197.2,649L209.9,660.6L223,671.7L236.7,682.3L250.9,692.4L265.5,701.9L280.6,710.8L296.2,719.1L312.1,726.7L328.3,733.8L344.9,740.2L361.8,746L379,751L396.4,755.4L413.9,759.2L431.7,762.2L449.6,764.5L467.5,766.1L485.6,767.1L503.6,767.3L521.7,766.8L539.7,765.6L557.6,763.7L575.4,761.1L593.1,757.8L610.6,753.8L627.9,749.1L645,743.7L661.7,737.7L678.2,731L694.3,723.7L710.1,715.8L725.5,707.3L740.4,698.1L754.9,688.4L768.8,678.1L782.3,667.3L795.3,656L807.6,644.2L819.4,631.9L830.6,619.1L841.2,606L851.1,592.4L860.3,578.4L868.8,564.1L876.7,549.5L883.8,534.6L890.2,519.4L895.9,504L900.8,488.4L904.9,472.6L908.3,456.6L910.9,440.6M863.4,405.4L865,391.1L865.9,376.8L866.2,362.4L865.7,348.1L864.5,333.8L862.6,319.5L860,305.3L856.8,291.3L852.9,277.4L848.2,263.6L843,250.1L837.1,236.7L830.5,223.6L823.3,210.8L815.5,198.3L807.1,186.1L798.1,174.2L788.5,162.7L778.4,151.6L767.8,140.9L756.7,130.6L745,120.7L732.9,111.4L720.4,102.5L707.4,94.1L694,86.2L680.3,78.9L666.2,72.1L651.8,65.8L637.2,60.2L622.2,55.1L607.1,50.6L591.7,46.7L576.1,43.4L560.4,40.7L544.6,38.7L528.7,37.2L512.8,36.4L496.8,36.2L480.8,36.6L464.9,37.7L449,39.4L433.3,41.7L417.6,44.6L402.1,48.2L386.8,52.3L371.8,57L356.9,62.4L342.4,68.3L328.1,74.7L314.2,81.7L300.6,89.3L287.4,97.4L274.6,106L262.2,115.1L250.3,124.6L238.8,134.6L227.9,145.1L217.5,156L207.6,167.2L198.2,178.9L189.5,190.9L181.3,203.2L173.7,215.9L166.8,228.8L160.5,242L154.8,255.4L149.8,269.1L145.5,282.9L141.8,296.9L138.9,311L136.6,325.2L135,339.5L134.1,353.8L133.8,368.2L134.3,382.5L135.5,396.9L137.4,411.1L140,425.3L143.2,439.3L147.1,453.3L151.8,467L157,480.6L162.9,493.9L169.5,507L176.7,519.8L184.5,532.3L192.9,544.6L201.9,556.4L211.5,567.9L221.6,579L232.2,589.8L243.3,600L255,609.9L267.1,619.3L279.6,628.1L292.6,636.5L306,644.4L319.7,651.8L333.8,658.5L348.2,664.8L362.8,670.5L377.8,675.5L392.9,680L408.3,683.9L423.9,687.2L439.6,689.9L455.4,692L471.3,693.4L487.2,694.2L503.2,694.4L519.2,694L535.1,692.9L551,691.2L566.7,688.9L582.4,686L597.9,682.5L613.2,678.3L628.2,673.6L643.1,668.3L657.6,662.4L671.9,655.9L685.8,648.9L699.4,641.3L712.6,633.2L725.4,624.7L737.8,615.6L749.7,606L761.2,596L772.1,585.5L782.5,574.6L792.4,563.4L801.8,551.7L810.5,539.7L818.7,527.4L826.3,514.7L833.2,501.8L839.5,488.6L845.2,475.2L850.2,461.5L854.5,447.7L858.2,433.7L861.1,419.6L863.4,405.4M805,373.1L806.3,361.1L807.1,349.1L807.2,337.1L806.8,325L805.8,313L804.3,301L802.1,289.2L799.4,277.4L796.1,265.7L792.2,254.1L787.8,242.8L782.8,231.6L777.3,220.6L771.3,209.8L764.7,199.3L757.7,189.1L750.1,179.1L742.1,169.5L733.6,160.1L724.7,151.1L715.4,142.5L705.6,134.3L695.4,126.4L684.9,118.9L674,111.9L662.8,105.3L651.3,99.1L639.5,93.4L627.4,88.2L615.1,83.4L602.6,79.2L589.8,75.4L576.9,72.1L563.9,69.4L550.7,67.1L537.4,65.4L524.1,64.2L510.7,63.5L497.3,63.3L483.9,63.7L470.6,64.6L457.2,66L444,67.9L430.9,70.4L417.9,73.4L405.1,76.8L392.4,80.8L379.9,85.3L367.7,90.2L355.8,95.7L344.1,101.5L332.7,107.9L321.6,114.7L310.8,121.9L300.5,129.5L290.5,137.5L280.9,145.9L271.7,154.7L262.9,163.8L254.6,173.3L246.8,183.1L239.4,193.1L232.6,203.5L226.2,214.1L220.4,225L215.1,236L210.4,247.3L206.2,258.7L202.5,270.3L199.5,282.1L197,293.9L195,305.8L193.7,317.8L192.9,329.8L192.8,341.9L193.2,353.9L194.2,366L195.7,377.9L197.9,389.8L200.6,401.6L203.9,413.3L207.8,424.8L212.2,436.2L217.2,447.4L222.7,458.4L228.7,469.1L235.3,479.6L242.3,489.9L249.9,499.8L257.9,509.5L266.4,518.8L275.3,527.8L284.6,536.5L294.4,544.7L304.6,552.6L315.1,560L326,567.1L337.2,573.7L348.7,579.8L360.5,585.5L372.6,590.8L384.9,595.5L397.4,599.8L410.2,603.6L423.1,606.8L436.1,609.6L449.3,611.9L462.6,613.6L475.9,614.8L489.3,615.5L502.7,615.6L516.1,615.3L529.4,614.4L542.8,613L556,611L569.1,608.6L582.1,605.6L594.9,602.1L607.6,598.2L620.1,593.7L632.3,588.7L644.2,583.3L655.9,577.4L667.3,571.1L678.4,564.3L689.2,557.1L699.5,549.5L709.5,541.5L719.1,533L728.3,524.3L737.1,515.1L745.4,505.7L753.2,495.9L760.6,485.8L767.4,475.5L773.8,464.9L779.6,454L784.9,442.9L789.6,431.7L793.8,420.2L797.5,408.6L800.5,396.9L803,385.1L805,373.1M737.2,344.7L738.3,335.4L738.9,326L739,316.7L738.7,307.3L737.9,297.9L736.7,288.6L735,279.4L732.9,270.2L730.3,261.1L727.3,252.2L723.9,243.3L720,234.6L715.7,226.1L711,217.7L705.9,209.5L700.4,201.5L694.6,193.8L688.3,186.3L681.7,179L674.8,172L667.5,165.3L659.9,158.9L652,152.8L643.8,147L635.4,141.5L626.7,136.4L617.7,131.6L608.5,127.1L599.1,123.1L589.5,119.4L579.8,116L569.9,113.1L559.8,110.6L549.7,108.4L539.4,106.7L529.1,105.3L518.8,104.4L508.3,103.9L497.9,103.7L487.5,104L477.1,104.7L466.7,105.8L456.4,107.3L446.2,109.2L436.1,111.5L426.1,114.2L416.3,117.3L406.6,120.8L397.1,124.6L387.8,128.9L378.7,133.4L369.8,138.4L361.2,143.7L352.9,149.3L344.8,155.2L337,161.4L329.5,168L322.4,174.8L315.6,181.9L309.1,189.3L303,196.9L297.3,204.7L292,212.8L287,221L282.5,229.5L278.4,238.1L274.7,246.8L271.4,255.7L268.6,264.7L266.2,273.9L264.3,283.1L262.8,292.4L261.7,301.7L261.1,311L261,320.4L261.3,329.8L262.1,339.1L263.3,348.4L265,357.7L267.1,366.9L269.7,375.9L272.7,384.9L276.1,393.8L280,402.5L284.3,411L289,419.4L294.1,427.6L299.6,435.5L305.4,443.3L311.7,450.8L318.3,458L325.2,465L332.5,471.7L340.1,478.2L348,484.3L356.2,490.1L364.6,495.6L373.3,500.7L382.3,505.5L391.5,509.9L400.9,514L410.5,517.7L420.2,521L430.1,524L440.2,526.5L450.3,528.6L460.6,530.4L470.9,531.7L481.2,532.7L491.7,533.2L502.1,533.3L512.5,533L522.9,532.4L533.3,531.3L543.6,529.7L553.8,527.8L563.9,525.5L573.9,522.8L583.7,519.7L593.4,516.3L602.9,512.4L612.2,508.2L621.3,503.6L630.2,498.7L638.8,493.4L647.1,487.8L655.2,481.9L663,475.6L670.5,469.1L677.6,462.3L684.4,455.2L690.9,447.8L697,440.2L702.7,432.4L708,424.3L713,416.1L717.5,407.6L721.6,399L725.3,390.2L728.6,381.3L731.4,372.3L733.8,363.2L735.7,354L737.2,344.7M662.3,321L663,314.6L663.4,308.2L663.5,301.8L663.3,295.4L662.7,289L661.9,282.6L660.7,276.3L659.3,270L657.5,263.8L655.5,257.7L653.1,251.6L650.5,245.7L647.6,239.8L644.3,234.1L640.9,228.5L637.1,223.1L633.1,217.8L628.8,212.6L624.3,207.7L619.6,202.9L614.6,198.3L609.4,193.9L604,189.7L598.4,185.7L592.6,182L586.6,178.5L580.5,175.2L574.2,172.2L567.8,169.4L561.2,166.9L554.6,164.6L547.8,162.6L540.9,160.8L534,159.4L527,158.2L519.9,157.3L512.8,156.6L505.7,156.2L498.6,156.2L491.4,156.4L484.3,156.8L477.2,157.6L470.2,158.6L463.2,159.9L456.3,161.5L449.5,163.3L442.7,165.5L436.1,167.8L429.6,170.5L423.2,173.4L417,176.5L411,179.9L405.1,183.5L399.3,187.3L393.8,191.4L388.5,195.6L383.4,200.1L378.5,204.8L373.9,209.6L369.4,214.7L365.3,219.9L361.4,225.2L357.7,230.7L354.3,236.4L351.2,242.2L348.4,248.1L345.9,254L343.7,260.1L341.7,266.3L340.1,272.5L338.8,278.8L337.7,285.2L337,291.6L336.6,298L336.5,304.4L336.7,310.8L337.3,317.2L338.1,323.5L339.3,329.9L340.7,336.1L342.5,342.4L344.5,348.5L346.9,354.6L349.5,360.5L352.4,366.4L355.7,372.1L359.1,377.7L362.9,383.1L366.9,388.4L371.2,393.6L375.7,398.5L380.4,403.3L385.4,407.9L390.6,412.3L396,416.5L401.6,420.4L407.4,424.2L413.4,427.7L419.5,431L425.8,434L432.2,436.8L438.8,439.3L445.4,441.6L452.2,443.6L459.1,445.4L466,446.8L473,448L480.1,448.9L487.2,449.6L494.3,449.9L501.4,450L508.6,449.8L515.7,449.4L522.8,448.6L529.8,447.6L536.8,446.3L543.7,444.7L550.5,442.8L557.3,440.7L563.9,438.4L570.4,435.7L576.8,432.8L583,429.7L589,426.3L594.9,422.7L600.7,418.9L606.2,414.8L611.5,410.6L616.6,406.1L621.5,401.4L626.1,396.6L630.6,391.5L634.7,386.3L638.6,381L642.3,375.5L645.7,369.8L648.8,364L651.6,358.1L654.1,352.1L656.3,346.1L658.3,339.9L659.9,333.6L661.2,327.3L662.3,321M582.4,302.7L582.7,299.5L583,296.2L583,293L582.9,289.7L582.6,286.5L582.2,283.3L581.6,280L580.9,276.9L580,273.7L578.9,270.6L577.7,267.5L576.4,264.5L574.9,261.5L573.3,258.6L571.5,255.8L569.6,253L567.6,250.3L565.4,247.7L563.1,245.2L560.7,242.8L558.2,240.4L555.5,238.2L552.8,236.1L550,234.1L547,232.2L544,230.4L540.9,228.7L537.7,227.2L534.4,225.8L531.1,224.5L527.7,223.3L524.3,222.3L520.8,221.4L517.3,220.7L513.7,220.1L510.1,219.6L506.5,219.3L502.9,219.1L499.3,219L495.7,219.1L492,219.4L488.4,219.8L484.9,220.3L481.3,221L477.8,221.8L474.4,222.7L470.9,223.8L467.6,225L464.3,226.3L461,227.8L457.9,229.4L454.8,231.1L451.8,232.9L448.9,234.9L446.1,236.9L443.4,239.1L440.8,241.4L438.3,243.7L436,246.2L433.7,248.7L431.6,251.4L429.6,254.1L427.8,256.9L426,259.8L424.5,262.7L423,265.7L421.8,268.7L420.6,271.8L419.6,275L418.8,278.1L418.1,281.3L417.6,284.6L417.3,287.8L417,291L417,294.3L417.1,297.5L417.4,300.8L417.8,304L418.4,307.2L419.1,310.4L420,313.6L421.1,316.7L422.3,319.8L423.6,322.8L425.1,325.8L426.7,328.7L428.5,331.5L430.4,334.3L432.4,337L434.6,339.6L436.9,342.1L439.3,344.5L441.8,346.9L444.5,349.1L447.2,351.2L450,353.2L453,355.1L456,356.9L459.1,358.6L462.3,360.1L465.6,361.5L468.9,362.8L472.3,364L475.7,365L479.2,365.9L482.7,366.6L486.3,367.2L489.9,367.7L493.5,368L497.1,368.2L500.7,368.2L504.3,368.1L508,367.9L511.6,367.5L515.1,367L518.7,366.3L522.2,365.5L525.6,364.6L529.1,363.5L532.4,362.3L535.7,361L539,359.5L542.1,357.9L545.2,356.2L548.2,354.4L551.1,352.4L553.9,350.4L556.6,348.2L559.2,345.9L561.7,343.6L564,341.1L566.3,338.5L568.4,335.9L570.4,333.2L572.2,330.4L574,327.5L575.5,324.6L577,321.6L578.2,318.5L579.4,315.5L580.4,312.3L581.2,309.2L581.9,306L582.4,302.7" fill="none" stroke="rgba(255,255,255,0.035)" stroke-width="1"/>
<path d="M250.1,588.9L254.4,583.1L250.5,575.4L252.8,567.3L252.9,562.9L257.1,567.9L256.3,564.3L260.1,562.2L267.4,569L266.6,565.9L270.7,563.2L273,557.5L269.1,555.3L266.7,550.2L255.6,547.8L249.4,547.4L245.8,545.6L238.6,548.2L238,554.6L234.2,560.8L233.6,572.6L233,580.3L234.9,589.6L231,586.7L221.2,594.3L219.2,599.9L222.9,606L225,614.3L229.6,619.6L238.9,625.8L240.4,622.3L245.6,612.7L243.6,607.3L247.6,604.6L244.8,602.2L249.3,595.3L251.6,600.9L256.9,603.1L257.4,592.1L253,589.5L249.6,593.9ZM22.3,517.7L22.3,516.2L22.4,518.5L22.6,515.7L22.5,513.7L23,512.6L23.3,510.8L23.5,505.2L23.5,500L23.8,494.2L23.4,477.4L23.7,472.5L24.3,468.2L25,462.1L25.6,455.2L26.3,444.8L26.9,437.3L27.1,434.5L29.5,415.6L31.3,406.3L31.3,406.3L31.2,406.8L32.3,401.1L32.3,401.1L36.1,384.9L40.4,368.7L45.2,352.8L50.7,337L56.6,321.4L59,315.5L59.5,314.4L62.1,308.3L65,301.9L66.5,298.7L67.7,296.2L68.7,294.2L72.5,286.4L73.8,284L74.1,283.8L78.1,276.9L78.4,277.8L79.8,276.2L80.7,276.2L83.1,273.7L86.5,268.8L87.8,268.7L92.2,262.4L92,261.9L93.5,260.8L94.6,260.2L94.9,262.2L97.3,262.4L97,266.3L100.9,266.6L100.3,270.9L103,272.4L101,280.9L101.5,285.4L103.9,288.3L109.5,284.7L113.3,285.9L114.7,288.6L115.2,297.3L122.1,299.5L121,303.1L118.1,307L114,323.2L113.6,325.1L115.9,332.2L115.7,335L117.8,340.8L117.4,348.6L118.3,354.9L118,360.8L116.8,365.4L118.7,370.6L117.6,379.8L118.1,383.5L120.4,388.9L117.6,395.2L118.6,399L115.6,397.2L110.6,404.3L105.3,401.2L103.6,402.9L102.7,409.7L101.2,413.6L100.2,419.5L101.1,425.6L100.5,439.3L97.6,444.1L96.6,449.5L97.3,457.9L96.2,471L98.2,475.2L101.3,475.5L104.1,471.2L107.5,471.5L111.8,477.2L113.2,487.3L111.8,490.2L113.9,499.6L113.4,504L117.1,517.8L119.5,530.5L125.8,536.2L129,542.8L129.3,547.9L135.3,557.8L136.8,558.8L138.7,559.1L146.7,555.2L155.9,552.2L161.1,545.2L165.9,541L162.3,539.2L160.7,533.9L155.3,532.1L152,527.9L151.3,516.3L149.7,512.1L146.2,513.6L143.9,510.2L144.7,504.1L143.3,493.5L144.7,488.6L146.5,488.2L145.8,481.6L148.3,485.5L151.7,479.3L151.3,475.4L154.1,473.5L157.4,474.7L162.7,486.9L166.2,489.6L165.7,484.2L167.4,484.6L171.6,495.2L177.5,497.6L181.9,501.6L185.4,508.7L187.9,516.5L187.3,520.9L191.7,531.8L196,535.8L198.2,540.6L205.1,543.4L208,542L210.3,536.9L208.7,525.8L208.9,515.4L206.9,501.5L211.1,504.7L215.2,502.7L217.3,504.7L218,498.6L225,502.7L221.7,498.1L212.4,490L207.4,487.7L205.4,490.7L204.7,495.5L208.1,499.7L205.9,500.6L203.8,496.5L195.4,492.4L195,489.4L198.2,487.2L197.1,480.7L203.6,482.4L200.7,477.2L200.3,472.8L203.8,475.1L199.2,467.1L194.1,467.6L191.7,465.4L189.6,467.9L185.4,467L178.9,469.3L174.5,468.5L169.7,469.4L168.2,474.4L166.4,478.4L166.8,483.2L164.9,483L162,476.2L158.6,474L157.6,469.5L157.1,463.3L153.3,457.1L149.7,456.8L149.9,451.9L147.5,453.6L144.9,460.6L141.6,458.3L141.1,468.6L138.5,471.5L139,467.6L137.4,465L136.1,469.4L135.2,464.6L133.1,468.4L129.6,466.9L129.8,463.2L133.2,458L134,454.3L137.5,456.3L137.6,464L139.1,464.4L139.1,459.2L136.6,452L139.3,447.6L141.7,440.5L145.8,433.1L152.2,430.1L152.3,428.5L154.3,421.9L155.9,415.6L156,415L157.8,409.7L157.6,404.4L161.1,397.2L165.6,393.1L166.7,389.4L163.5,389.2L167.3,385L167.8,385.5L168.8,384.4L166.1,378.4L163.4,381.2L159,382.8L156.1,390.7L151.3,396.5L148,405.4L148.8,409.8L146.1,411.8L144,425.4L141.7,430.4L141.7,420.4L138.1,420.3L134.4,427.1L132.2,424.6L127.7,424.5L127.4,422.6L132.1,422.4L138,415.1L138.6,410L140.8,407.5L143,399.8L143.6,392.8L150.8,377.6L156.8,370.8L158.8,362.8L154.8,357.7L154.7,357.5L154.6,357.2L150.9,352L153.1,345.3L154.3,339.5L150.8,335.7L148,337.7L145.2,339L142.2,334.1L141.5,328.7L134.3,324.4L129.9,329.2L127.5,325.6L124.7,325.9L125.1,322.9L121.9,319.7L124.4,306.8L122.8,300.8L124.2,298L128.6,293.9L131.1,288.2L131,286L133.2,279.3L139.9,277.6L142.4,273.9L152.8,275L157.8,273.1L159.5,273.1L164.2,269.3L165.6,270.7L166.1,276.3L164.5,278.9L162.2,287.3L159.8,293.6L159.3,298.4L156.8,308.3L157.4,309.7L169.7,308L173.2,306.4L174.9,302.8L181.3,298L187,286L190.1,285.2L190.4,292L188,295.1L187.6,301.3L194.4,297.4L192,301.3L190.7,306.2L193,307.2L195.7,313L198.8,312.1L200.7,315.9L202.2,319.2L202,323.3L203.3,319.4L208,322.7L211.3,322.6L215.1,327.6L214.2,332.9L216.9,332.4L215.9,338.2L218.7,339.4L225.3,335.8L228.8,334.4L230,331.9L237,329.9L240.5,330.6L241.6,334.2L245.3,336.9L237.4,338.6L236.9,341.1L229.5,338.3L225,340.6L222.8,343.1L222.3,347.2L219.5,350L223.5,353.7L222,359.6L219.5,363.2L220.4,362.6L220.9,362.3L224.6,369.9L226.6,370.7L230.1,377.3L227.7,380.1L228.8,384L232.3,384L235.8,386.5L235.8,386.8L236,388L241.2,384.3L246.3,381.8L252.1,381.7L254.1,384.4L250.4,391.4L253.8,393L257.3,390.6L260.9,389.5L259.9,386.6L265.3,382.5L270.9,388.1L271.7,394.1L273.4,397.7L275,396.7L278.6,399.5L282.2,394.5L280.2,392.6L275.8,385.9L269,378.2L272.4,374.9L272.7,370L279.9,367.2L286.8,362.1L291.4,361.6L292.9,363.8L306,365.6L307.2,367.6L311.7,365.5L312.8,360.8L311.4,355.4L307.5,354.4L302.7,355.1L300.5,357.4L295.5,356.9L288.7,352L285.7,350.7L277.1,351.5L269.8,354.7L269.6,357.6L264.5,363.9L261.5,362.1L259.3,363.3L254.5,359.2L243.7,362.8L237.5,363.2L236,358.1L230.7,358L230.1,352.5L236,348.6L238.4,349.3L240.2,346.6L250.8,338.1L254.8,337.2L258.5,332.8L254.3,332.6L254.1,330.8L248.9,327.7L246.9,324.1L247.6,320.3L250.5,316.2L254,315L257.7,316.7L255.1,313.8L258.7,312L269.1,310.5L273.6,308.1L276.9,308.2L280.8,313L282.7,313.4L283.7,316.9L287,317.1L287.9,321.2L286.9,325.1L289.2,325.1L287.2,322.2L289.1,320.6L294,322.5L296.7,325L308.4,326.7L311.6,326.1L319.4,329L322.4,328.4L324.9,330.4L322.4,331.9L328.3,331.1L330,332.7L338.3,334.8L342,340.8L343.4,338.8L345.4,341.6L345,343.7L351.9,344.5L351.6,347.4L345.4,348.2L352.7,348.9L349,350.9L353,351.6L355,350.7L354.9,353L349.6,355.1L354.8,355L352.5,361.6L348.9,359.7L347.5,360.5L348.9,363.4L351.5,365.4L351.2,368.5L348.6,368.3L351.3,377.8L350.7,384.6L349.6,387.9L349.7,397.1L347.2,400.7L340.8,402.7L334.5,399.3L331.8,390.1L331.2,383L332.6,380.1L331.7,377.1L327.1,390.7L323.3,391.8L318.5,397L317.4,404L318.1,408L322.4,406.9L321.5,404.3L323.2,400.3L326,399.7L327.4,410.5L330,411.3L334,405.4L340.5,406.8L344.4,406.5L345.7,409.6L345,413.9L349.8,411.1L351.7,406.7L359.3,401.1L359.7,397.9L363.5,404L361.3,409.4L358.4,407.4L354.8,408.3L353.9,413.6L358.2,416.6L362.2,413.5L372.8,415L382.7,416.6L380,420.5L377.6,420.3L380.6,422.7L385.9,423L388,425.5L394.7,425.7L392.1,429.7L393.9,431.2L395.3,429.2L399.1,428.9L400.1,423.5L403.3,423L408,427.7L413.9,438.7L415.4,444.6L419.8,440.9L418.3,440L418.8,435.5L416.4,432.6L421.8,425.3L421,424.3L423.1,420.8L427.8,419.5L433.2,413L435.4,411.9L439.5,413.6L441.7,416.6L439.3,421L435.9,424.4L436.2,428.1L433,434.7L429,445.6L430.5,448.9L427.2,454L419,460.5L415.7,461.3L414.3,457.7L411.4,458.8L413.9,462.1L418.4,464.9L420.9,463.2L426.4,461.4L431.6,456.5L432.4,451L433.9,448.6L439.8,448.7L440.7,453.5L438.7,458.9L439.9,459.5L442.3,455.8L443,450.4L439.3,446.3L433.4,445.2L434.1,440.2L438.8,434.2L438.3,426.3L441,423.8L445.1,422.7L446.6,417.3L447.9,418L447.3,422.1L444.7,425.5L443.5,429.2L448.7,432.5L450.6,432.2L446.7,428.1L446.9,425.4L452.4,426.8L451.1,424.3L456.3,424.3L458.9,427.5L460,430.7L463.7,431.6L461.1,435.1L459.5,440.8L462.2,438.4L461.2,443.5L463.5,441.7L462.9,436.8L465,433.1L462.7,427.2L459.9,424.3L461.8,415.6L468.7,416.4L476,415.9L476.9,416.6L473.7,418.9L476.9,418.4L477.4,416.3L475.4,409.5L477.3,409.6L480.1,406.3L485.9,403.2L493,401.6L491.9,399.7L495.2,399.3L498.1,399.9L499,401.5L503.3,398.6L505.6,399.4L503.5,396.7L507.5,396.1L507.5,392.3L510.9,386.9L512.4,385.9L516.4,388.1L513.4,390.9L518.5,390.7L519.6,391.5L518.2,395.1L520.6,394.7L521,392.9L526.8,391.7L531.8,394.5L534.6,400.5L533.9,404.4L528.7,411.4L526.1,417.2L521.9,421.1L521.4,425.1L522.8,422.4L525.8,421.6L530.3,418.3L532.1,415.7L529.6,416.3L530.2,413.7L535,415.2L536,412.8L537.9,416.6L542.2,413.3L549.4,412L550.3,414.6L554.1,415.6L561.8,412.7L561.9,410.5L560,408.2L561.5,405.5L567.6,406.4L567.8,404.4L573,404.9L573.7,407.4L575.8,408L574.8,410.2L577.8,410.5L577.8,412.8L573.9,411.6L583.7,418.6L588.5,419.4L588.7,417.8L586.4,409.1L590.1,411L593.3,409.9L594.6,406.5L600.6,406.2L599.4,403.6L603.5,401.1L598.3,398.1L597.3,395.3L599.5,392.4L597.2,391.1L600.5,390.1L603.2,387.9L609.2,384.8L606.8,389.4L609.8,387.1L612.7,389.6L611.8,383.3L616.2,380.6L618.8,381.7L617.7,383.5L625,381.4L629.3,381.9L632.6,373.7L635.9,369.4L639.3,367.7L643.5,368.4L647,371.2L649.6,369.4L653.3,371.4L655.4,370.9L652,368.9L651.1,365.8L652.7,361.3L653.9,360.8L657.2,355.5L656.1,352.8L660.3,352.8L662.6,350.9L665.1,351.1L664.3,346.7L659.3,346.9L655.9,344.5L660,337.1L661.1,332L666.6,325.3L670.1,323.2L700,332.1L702.8,337.9L698.6,344.7L701.6,343.5L700.9,341L703.3,341.8L704.4,339.4L717.5,339.3L720,341.8L716.8,347.3L720.4,362.6L723.8,369L726.3,377.6L729.2,380.2L723.5,381.8L722.2,385.7L722.4,390.9L724.5,394.9L720.4,392.3L721.1,398.3L720.1,405.2L723.4,408.1L727,416L729,418.3L731.9,417.9L733.2,415L735.1,418.6L738.7,421L743.3,421.7L741.9,427.1L745.7,431.9L750.2,433.2L748.8,439.5L751.3,446.8L755.6,449.3L754,450.5L753.8,456.2L758.7,463.7L760,473.5L750.3,467L746.8,465.4L731.9,455.1L724.9,446.4L722.6,438.9L720.4,438.1L721.8,431.8L721.1,427L718.2,420.8L715.2,409.4L713.9,407.4L713.4,399.4L704.9,391.9L705.3,387.2L702.2,390L701.8,393.6L706.4,397.9L706.3,400.5L709.5,410L706.4,412.2L701.9,406.5L698.8,409.8L696.5,415.4L700,426.5L700.3,430.5L703.6,437.6L708,436.1L706,440.5L703.7,441.8L704.2,444.8L700.7,450.1L699,449.6L701,445.2L697.3,446L691.3,450.2L688.5,459.5L684.7,461.6L675.8,471.2L674.2,476.8L674.3,490.8L673.2,499.3L673.6,507.5L670,522.2L673.8,523.1L677.1,520.3L680.4,526L680.4,522.8L684,521.9L683.3,526.2L687.2,520.6L685.5,516.9L689.3,514.2L700.4,516.2L703.4,522.2L705.4,522.4L706.7,531.2L709,536.3L713.3,542.4L716.6,550.5L716.1,565.5L717.2,576.8L714.4,592.5L714,600.7L707.3,612.8L702.4,614.3L701,611.3L698.7,613.4L696.1,623.4L693.1,630.3L695.4,636.3L690.1,646.3L686.8,650.2L687.4,654.7L694.4,655.8L703.5,661.9L708.1,669.4L708.3,676.4L704.6,680.9L700.1,682.7L694.4,690.5L691.2,685.7L692.3,680.3L688.7,674.6L686.8,666.8L681.3,667.8L679.6,670.8L674.7,669.9L677,664.4L675.1,658.2L668.3,657.6L661.5,663.4L655.2,672.5L651.9,673.5L655.1,668.4L651.9,669.7L655.1,659L648,659.1L645.4,665.5L640.9,669.9L638.3,676.7L631.6,679.3L631.1,683.5L634.7,685.7L640.7,684.7L642.1,689.8L645.5,690.1L652,682.1L658.2,682.5L664,680.3L664.6,683.9L661,685.3L656,690.2L655,694L648.8,703L648.4,707.4L656,708.1L662.2,715.3L671,721.5L663.1,722.7L670.4,724.6L670.4,728.2L665.7,735.2L668.9,732.7L675.7,733.1L675.9,738.3L671.9,746L666.6,761.8L665.9,768.6L662.7,769.5L659.7,776.2L647.4,788.4L646.7,791.3L637.6,794.9L631,798.6L629.2,799.3L626,797.9L625.8,801.9L625.5,802.3L617.2,807.3L603.3,813L601.9,816.3L604.6,817.8L601.8,819.9L597.9,815.4L599.5,812.9L593.1,814.4L588.8,813.8L584.7,815.6L578.8,820L575,820.3L574.1,824.8L570.2,827.5L567.8,833.6L575,838.6L580.9,843.7L587.7,845.8L594.4,849.9L598.9,857.4L600.5,863.7L598.7,863.8L597.3,870.9L580,880L576.8,883.2L563.9,889.6L564.3,884.7L566.3,883L560.8,881.1L550.3,879.8L548.4,875.9L538.4,871.7L531.4,872L532.1,868.2L524.5,869L524.4,875.2L517.8,884.8L519.7,890.2L522.4,889.6L527.1,894.3L528.3,899.3L537.2,900.2L542.3,902.6L549.6,905.1L553.2,907.7L553.5,915.6L556.6,916.7L560.6,920.9L552.9,921.2L535.8,917.3L535.8,915.8L530.9,913.2L525.8,902.8L516.9,896.5L510.1,893.6L514,885.6L512,883.2L514.2,878.6L512.8,870.5L506.5,861.5L505.8,852L503,852.3L499.8,847.8L497,852L481.2,855.4L481.7,852.7L477.8,854.6L480.8,846L477.1,838.4L472.4,835.1L476.4,834.8L468.7,830.6L463.6,825.9L457.6,812.5L453.5,813.9L451,810.3L450.6,815.8L440.9,818L438.8,815.4L438.6,818.1L428,816.7L421.6,818.3L422.2,821.7L416.4,825.5L408.1,826.5L398.7,831.9L383.8,836.5L383.4,838.5L375.8,837.9L373,840.5L367.7,839.4L365.5,842.3L366.7,852L362.2,858.1L361.3,866.3L357.7,865.4L354.1,869.5L347.7,869.4L346.5,871.5L342.2,871.6L338,868.7L333.5,862.1L333.9,859.9L330,851.2L326.4,846.3L322,831.5L316.6,820.6L314.7,797.2L317.1,793.5L315.1,782.3L311.7,787.6L304.2,787L300.6,784.7L292.3,772.1L300.8,773.6L303.2,772L297.6,770.9L291.3,765L289.2,759.4L285.8,758.1L284.1,750.7L281.2,748.5L280.7,743.2L268.6,739.3L249.4,727.6L234.5,716L225.3,706.6L225.9,698.6L223.1,694.2L213.3,691.4L207.2,685.1L203,674.3L198.2,665.7L198.8,658.5L198.2,648.2L195.2,646.7L193.6,642.7L190.1,642.2L187.4,639.3L185.2,649.7L184.6,656L188,666.8L186.2,671L186.8,682.1L188.3,678.3L192.7,676.8L191.9,684L188.8,685.4L189.6,688.6L190.7,691.9L195.1,694.6L201.8,700.9L218.7,699.6L219,702.9L218,707.1L220.4,716.8L227.9,724.3L232.5,737.5L221,741.9L219,739.4L214.9,742.9L214.4,746.5L206.7,743.6L203.3,745.1L198.4,742L194.6,744.2L188.6,739.5L182.4,736.5L177.4,734.5L175.8,737.1L170,734.6L158.2,727.1L153.6,726.2L150,722.5L146.3,721.1L136.8,712.8L132.9,711.7L127.1,706.1L125.2,702.5L126.3,685L128,682.1L127.8,674L126.2,668.7L126,653.9L122.9,643.4L122.7,636.5L126.3,628.9L126.6,619L124.8,612.8L126.3,605.6L128.1,580.6L126.5,576.7L132,572.8L132.8,571.9L132.3,571.9L123.9,576.3L123.5,566.7L126.5,555.9L124.5,556.3L122.3,564.6L122.1,571.7L119.2,580.1L116.2,602.7L113.9,608.3L115.7,619.9L114.8,625.9L111,633.7L110,638.6L112.8,649.4L112.9,653.9L111.5,663.3L112.1,669.9L117.3,680.6L120.7,694.4L123.3,700.9L124,705L119.4,703.3L122.2,707.1L126.5,718.6L129.3,721.8L134.2,725.1L138,729.8L142.9,732.6L151.3,740.7L158.1,745.8L162.5,747.3L164.9,750.5L162.9,755.3L159.8,759.1L149.3,761.8L147.1,763.5L140.2,764.4L129.1,761.4L120,755.4L115.6,753.1L108.4,749.8L106.4,749.6L100.6,744.9L100.3,746.2L97,745.4L96,746.8L96.6,748.6L100.1,755.2L99.4,754.9L100.4,757.9L104.1,765.2L107.9,771L108.7,773.1L111.4,777.7L114.8,783L115.6,784.1L115.6,784.1L105.9,770.5L96.7,756.6L88,742.4L79.8,727.8L72.1,713L64.9,698L58.3,682.7L52.2,667.1L46.6,651.4L41.6,635.5L37.2,619.4L33.3,603.2L30,586.8L27.2,570.4L25,553.8L23.5,537.2L22.4,520.6ZM180.5,759.6L184.8,763.7L179.2,760.1ZM678.1,56.4L678.2,56.5L683.3,58.6L683.3,58.6L690.3,61.8L689.2,61.6L692.8,63.6L695.9,65.2L695.3,65.3L699,67.1L703.7,70.3L706,73.5L704.8,73.3L714.6,79.7L716.6,78.2L709.4,72.6L709.7,72.3L704.2,68.8L704,68.2L701.6,66.7L695.6,63.8L695.6,63.8L700.9,66.3L701.3,66.5L710.8,71.2L709.6,70.8L710.4,71.6L714,73.9L717.3,75.5L721.8,78.2L724.2,80.1L718.5,77.1L717,76.9L720.7,79.7L724,82.1L724,83.4L725.7,85.6L726.1,87.5L726.1,88.9L730.1,92.9L735.1,97.1L739.8,100.3L738.9,101.1L741.7,106.4L739.8,106.8L741.6,108.9L740.3,109.7L742.6,114.9L740.2,116.4L740.3,118.7L735.6,118.5L732.5,121.7L727.4,121.3L719.2,123.2L714.2,126.1L711.2,130.3L709.1,127.5L704.1,123.6L706.6,121.4L702.3,121.7L700.7,125.3L701.1,127.9L703.3,129.7L704.6,133.6L703.6,135.4L708.9,140L706.9,141.2L709.8,142.6L710.9,145.3L706,147.7L709.4,147.8L705.5,150.6L704.2,154.7L707.7,155.4L708,158.8L705,158.7L704.8,160.5L696.8,159.9L698.7,161L696.1,162.3L701.1,161L703.5,161.6L699.1,166L703.9,168.8L700.4,168.5L698.9,173.7L699.9,175.7L697.3,177L696.6,181.9L694.2,186.1L698,182.9L702.4,187.6L703,191.3L702,194.7L702.7,200.1L699.2,200.1L702.6,201.8L706.3,211.1L709.2,214.9L708.1,220.7L709.4,223.5L706.7,224.2L712.3,230.4L713,228.4L715.9,228.6L718.4,230.6L718.3,232.6L720.9,233L723.8,236.3L726.5,237.4L728.2,240.2L724.8,238.7L724.4,240.9L717.3,239.7L713.9,236.8L712.7,234L712.2,237.6L715.9,240.7L732,249L732.8,245.9L738.8,249.1L740.8,252L747.4,257.7L749.7,258.3L755.8,265.6L757.2,265.1L766,278.8L768.3,281.5L768.6,285L764.4,281.3L758.6,273.3L753.3,267.4L747.4,262.5L741.2,261.5L737.7,259.9L740.3,263.3L739.3,266L742.5,266.2L739.9,272L743.4,276L739.7,278.1L737.4,277.1L732.9,278.9L735.1,279.7L737.4,284.7L733,289.4L730.1,287.1L731.7,283.5L730.3,282.2L729.8,288.4L725.4,291.3L712.5,283L713.6,280.6L709.3,276.8L708.8,273.5L706.1,271.8L701.4,273.7L698.3,272.9L703.5,278.2L702.4,281L704,284.8L703.7,288.7L699.7,290.8L698.3,288.4L696.3,293.9L689.6,285.4L687.2,280.2L691.2,280.3L690.3,274.7L686.6,274.9L687.1,271.2L685.4,270.1L686.3,273.4L683.3,274L682.8,280L679.9,281L677.1,284.4L675.2,288.1L671,286.2L669.8,281.1L665.8,278L662.8,277.5L659.1,275.2L657.6,272.6L652.1,268.7L651.5,265.6L646.1,262.4L648.8,256.6L647,254.5L648.8,249.2L646.1,244.8L646.3,240.7L644.3,236.3L644.6,234.6L641.1,230.4L641,224.4L639,220L639.6,216.8L638.8,212.9L637.1,211.2L634.3,212L629.8,208.8L628.9,207.1L619.7,204.3L618.9,202.2L623.6,203.4L625.8,204.9L632.6,205.8L626.3,204.4L624.8,202.8L618.5,200.8L619.2,199.9L613.5,199.6L612.5,198.6L614.2,195.7L613.6,192L610.7,193.6L607.6,193.4L609.1,191.2L611.3,190.7L609.6,189L606.1,189.8L602.2,185.8L601.8,183.7L598.3,178.6L594.1,174.6L592.5,174.6L590.5,169.6L596.4,169.4L592.5,165.9L584.8,162.6L581.6,162.4L578.7,158.6L578.1,155.7L580.1,156L578.9,153.4L576.8,153.4L576.5,158.5L575,159.8L570.6,159.1L567.8,160L576.7,162.2L574.5,163.3L567.6,162.4L567,159.3L564.6,155.8L562.3,155.5L560.8,153.2L557.7,151.5L554.1,151.3L550.1,149.5L548,149.6L545.4,147.8L544.2,148.9L546.9,149.8L547.5,152.7L543.3,152.2L542.4,149.7L539.8,150.2L542.3,146.5L539.2,144.5L539.7,147.3L532.2,151L534.5,153L532.8,155.9L537.2,159L537.7,162.1L535.5,162.9L536.8,164.8L535.6,167.4L529.6,170.5L526.5,165.6L527.2,163.3L525.8,161.9L525.5,158.2L528.5,156.5L522,154.6L524.2,153.6L522.4,151L522.2,147.5L519.9,151.5L517.9,152.8L515.2,149.9L515,146.8L516.5,147.1L516.4,144.1L513.8,140.7L511.3,142.4L507.6,149.3L505.5,150.9L507.1,151.9L506.9,155.4L498.2,154.1L499.3,153.2L495,151.2L496.9,149.8L494.8,148.5L498.6,147.3L494.5,141.9L494.9,139.8L501.7,135.8L505,139.2L502.8,135.4L505,134.8L508.1,136.9L512.1,137L510.3,134.2L514.9,130.9L517.3,131L522.9,134.7L527.1,135.4L523.2,133.7L520.7,131.3L514.1,130L518.5,125L521.2,124.3L526.2,124.7L526.8,123L532.6,124L528.9,121.8L529.8,119.8L535.5,120L534.2,118.9L537.6,118.1L536.9,116.9L541.3,116.4L540.5,115.4L544.1,113.8L548.9,108L550.1,103.3L544.2,101.6L542.4,94.6L544.1,93.4L536.5,93.6L527.1,90.9L521.2,87L513.3,84.9L509.8,83.2L504.3,83.2L498,82.5L496.2,81.2L497.2,79.4L495.8,77.3L496.4,74.4L492.6,71.3L487.9,69.7L486.8,68.1L482.8,67.6L477,72.1L481.6,78.9L483.9,81.1L475.7,83.9L470.5,88L471.5,93.3L474.2,95.9L480.6,98.4L476.3,105L480.4,108.3L478.2,112.1L480.1,112.9L480.9,115.8L478.4,117.1L467.6,116.4L464.5,118.2L459.7,116.8L453.7,113.4L445.8,114.3L445.4,109.1L442.7,106.8L442.4,104.6L437.6,105.3L436.2,103.8L433,103.7L426.6,109.7L427.3,112.9L425.7,116L408.5,109.3L409.8,107L403.9,106.9L403.2,105.5L406.2,104.6L402.6,104.2L401.8,102.8L396.5,103.8L395.7,100.7L392.6,103L387.1,103.1L383.6,104.7L380.3,104.6L384.2,100.6L389,97.8L389.8,95L382.8,102L379.1,103.3L376.8,102.4L371.7,103.9L369.2,103.4L365.4,100.3L369.3,95.6L375.8,92.2L381,85.9L394.1,81.4L413.1,75.4L416.1,71.5L423.5,67.9L427.3,63.8L433.5,59.3L442.5,56L447.3,52.7L451.3,51.2L445,53.3L443.3,55.2L436.8,58.2L429.6,60.8L423,66.2L416.3,69.7L409.6,72.7L402.6,74.6L399.1,74.7L398.6,73.1L402.6,70.5L408.9,68.9L403.1,69.2L399,70.6L401.2,67.9L395.3,66.8L387.5,67.7L382.8,68.8L380.5,70.4L374.2,70.8L387.6,63.8L389.3,63.7L392.7,60.4L397.2,58.3L399.9,58.3L400.7,59.6L398.8,61.3L392.4,64.8L395.8,64L393.3,66.1L400.9,62.1L407.8,60.1L407.4,58.7L422.3,53L426.8,48.2L423,47.6L419.4,48.1L428.6,45.6L437.2,43.9L444.7,41.3L442.7,40.9L447,37.7L452,38L448.2,36.6L453.6,33.8L451.8,35.1L456.4,36.9L457.2,34.9L455.8,34.6L456,32.9L453.4,33.2L452.2,32.2L457.7,31.3L451.3,31.9L453.7,30.8L463.9,28.5L464.9,28L471.2,27.3L473.7,26.5L486.6,24.7L489.4,23.9L487.3,23.2L477.9,22.5L479,22.5L479,22.5L489.9,22.1L498.8,22.2L497.5,22.6L507.5,23.3L516.8,23.3L519.9,23.7L524.8,24.1L534.5,24.6L542.4,25.4L548.5,25.8L548.3,25.5L543.7,24.8L549.8,25.6L556.3,26.1L564.1,27.6L566.9,27.8L578.7,29.8L584.9,30.8L593.3,32L602.3,33.6L606.5,34.3L605,33.7L607.3,34.2L607.3,34.2L623.5,38.2L639.5,42.8L655.4,48L671,53.7ZM712.2,307.1L711.6,303.6L715.2,299L716,302.2ZM734.5,292.5L737.6,290.9L738.9,293L736.4,297.5ZM739,244L739.6,241.4L747.1,249.1L743.2,250.2ZM770.5,287.6L772.1,287.4L775.2,293L772,292.2ZM701.5,169.2L703.3,170.9L700.3,170.9ZM701.2,164.4L705.3,166.2L701.5,167.1ZM700.5,175L699.9,173.5L704.1,174.7L702.2,177ZM703.1,180.8L708.4,177.6L705.6,180.9L705.6,183.3ZM697.8,181.5L696.7,180.1L700.3,177.4L703.6,178.7ZM700.2,184.9L699.3,182.2L702.3,180.9L704.7,183.2L704,187ZM704.6,174.3L703.7,173.1L705.8,167L708.8,166.6L707.9,173.7ZM703.1,176.7L707.9,175.9L704.3,177.9ZM734.7,242.4L737.6,243.6L738,245.9ZM784.3,309.4L788.1,315.2L783.4,310.6ZM931.2,310.1L930.3,311.3L928.4,308.4L928,303.5ZM434.3,43.7L438.2,42.3L443.5,41.5L440.8,42.5ZM207.5,290.9L206.5,288.4L211.7,278.8L214.6,283.9L219.2,282.6L219.4,286.6L224.4,287L226.9,283.7L230.1,283.8L229.4,281.7L231,276.7L234.9,278.1L238.7,276.9L235.2,273.6L243.9,275L244.6,271.3L247.5,273.2L252,272.7L251.6,274.4L255.9,274.4L255,282L251.1,278.9L248.5,278.6L247.8,286.7L246.1,288.1L238.7,285.7L237.3,283L236.6,286.2L232.8,290.6L227.2,293.1L222,299.2L215.3,302.5L213.8,301.5L213.6,305.9L210,309.9L203.5,306.8L201.8,310.5L199.8,305.5L201.8,297.7L200.4,295.2L201.8,288.8L199.6,287.5L201,285.5L199.9,281L201.4,280.2L206.1,284.5L205.2,289.3ZM267.4,287L263.5,287.9L265.8,285.9ZM255.9,270.1L252.5,267.5L255.8,267.1ZM249.9,270.8L246.6,271.8L250.1,268.4ZM234.8,267.8L234.4,272.2L230.2,274.9L227.6,275.1L227.1,272.7L219.3,274.4L215.2,273.7L215.7,268.5L214.2,263.1L215.1,258.6L217.1,258.7L220,255.8L221.5,258.9L224.5,260L228.6,256.3L233.1,256.3L230.9,262.7L233,264.2L234.1,261.5L236.5,263.4ZM717.5,909.8L721.1,907.6L727.8,903.3L738.5,897.6L721.8,908.5L716.7,912.3L710.9,915.3L714.4,911.6ZM679.5,781.7L679.2,786.3L672.3,781L672,777.8L676.4,766.8L679.9,763.8L682.6,764.7L681.5,777.2ZM251.2,370.5L248,371.2L244,369.8L248.4,367.7ZM238.4,365.2L240.2,363.8L245.9,364.4ZM362.2,869.1L367.7,872.8L372.6,878.6L376.3,884.8L374.2,888.2L366.8,888.3L361.8,886.2L359.3,876.7L362.5,872.7ZM133.5,343.7L131,344.5L133,339.7ZM919.4,727.9L922.6,722.6L919.2,728.8ZM920.7,724.8L917.7,729.4L916.3,731L920.8,724.4ZM912.6,736.7L911,739.1L908.8,741.3ZM924.2,718.3L924.8,718.5L923.7,720.1ZM670.6,322.7L681.4,312.8L684,312L689.6,313.4L691.7,312.2L688.4,310.4L685.9,311.2L687.2,303.7L692.9,300L697.1,301.9L698.5,307L701.6,307.5L702.9,310.3L707.3,311.2L701.7,319.1L698.2,319L696.9,321.7L697.5,325.9L690.7,326.4L692.9,329.2L696.9,329L700,332.1L670.1,323.2ZM442.2,337.4L438.5,338.4L438.5,336.3ZM445.1,339.5L445,342.1L440.5,341.4L439.3,342.6L437.7,341.6L438,339.6L441.2,339.9L441.6,340.8L443.6,339.2ZM444.5,385.7L429.4,385.8L426,387.6L421.6,388.6L412,393.4L408.9,390.1L407.1,389.7L408.5,386.3L411,386.3L416.2,383.4L419.4,382.4L422,380.3L423.2,381.3L427.9,379.4L432.3,380.2L433.7,379.1L436.4,381.2L439.5,381.7L447.1,379.9L448.4,381.2L447.7,384.2ZM408.7,391.4L410.1,393.7L404.3,396.9L401.4,400.3L399.8,405.2L399.9,411.8L398.2,412L393.4,407.2L392,403.9L394.8,403.6L395.6,399.7L392.4,397.4L395.2,393.5L396.7,394.2L403.1,391.1L404.8,389.1ZM499.4,359.6L501.1,361.9L500,364L500.2,366.3L496.5,367.2L495.5,368.1L492.4,365L495,361.8L494.9,360.2L498.5,358ZM501,367L501,370.2L502.3,367.8L504.5,369.9L503.9,377.5L500.9,377.7L499.7,376.4L496.5,375.5L495.7,373L494,372.1L497.1,367.4ZM509.1,373.8L508.7,377.2L510.5,374.5L513.1,376.9L513.8,379.4L511.4,381.7L507.2,382.6L505.4,384.4L504,384L505.4,378.7L506.3,377.8L506.5,374.4L508.1,372.5ZM579.9,373.7L581.7,374.1L580.3,370L584.5,369.7L584.9,368.8L588.8,368.3L590.2,373.1L586.6,373.2L585.2,370.9L583.8,372.1L587.7,374.6L585.6,379.5L584,379.8L584.8,382.3L579.2,381.7L576.1,377.6L576.2,372.8ZM592.2,367.3L594.1,364.7L595.1,365.4L597.5,363.2L600,363.8L599.7,366.4L597.4,368.4L592.4,369.2ZM655.4,322.1L652.3,321.1L650.2,317.8L654.5,318.9ZM699.4,504.1L706.8,510L711.9,517.6L722.7,526.7L732.5,533L726.9,533.1L725.1,536L729.5,547.2L737.6,552L734.1,553.7L735.5,560.5L732.2,558.1L726.8,546.8L722.3,543.2L719.7,537L711.1,525.3L708.3,524.5L701.2,513.8L703.1,510.9ZM650.3,315.1L653.1,312.5L654.5,313.5L654.5,318.9L650.2,317.8ZM453.8,345.5L452.7,347.3L452.2,344.6ZM376.3,408.8L373.2,409.5L370.5,408.3L373.6,404.2L376.1,404.8ZM457.2,351L456.8,349.6L461.2,349.1L460.6,350.8ZM448.3,350.8L449.3,347.8L450.7,349ZM456.5,349.3L453.3,351.3L451.8,349.4L453.7,347.6ZM443.9,346.7L443,345L444.5,344.8ZM448.6,348.6L447.2,350.3L445.8,349.1L447.4,347.9ZM455.6,341.7L455.8,342.6L453.1,344L451.7,342.4L454.9,341.2ZM450.3,342.1L451.5,346.3L448.7,345.8L448,343.4ZM493.6,370.6L491.4,368.6L492,367.5L495.3,368.9ZM591.5,383.7L589,383.9L589.8,382.3ZM594.1,382.7L597.8,382.9L599.9,384.6L596.4,387.1L593.3,387.9L592.4,384.5ZM575.7,381.4L575,382.1L573.1,378.8ZM658.8,349.4L655.6,352L654.8,350L656.7,348ZM728.6,409.9L726.1,407.6L726.1,403.8L728.4,405.1ZM758.1,414.7L753.7,416.4L754.4,414.2ZM761.5,480.4L760.7,484.3L759.4,477.2ZM763.4,538.7L760.6,547.9L761.2,542.2ZM758.1,553.3L759.8,552.2L758.5,559.8ZM536.3,409L535.6,411.8L532.3,410.4L533.1,408.5ZM438.4,411.5L436.7,410.8L438.5,408.4L440.4,408.6L440.7,411.8ZM451.8,423.7L450.1,423.1L452.6,421L454,422.7ZM457.3,421.6L455.7,419.7L457.4,418.4ZM402.3,421.6L401.3,423L398.7,419.5L399.5,416.2L401.6,415.7ZM685,804.8L690.7,804.4L693.8,802.4L693.6,807L696.8,808.8L695,815.1L691.3,818.1L690.4,822L694.1,827L699.3,823.9L705.2,824.5L705.6,822.6L710.9,826.4L706.4,827.9L699.5,826.2L701.6,828.8L694.4,828.1L690.4,831.4L686.1,832.2L687.7,826.9L684.1,829.4L681.1,828.3L678,821.1L682.2,820.1L680.6,812.4L681.5,806.8ZM664.1,867.8L676.3,854.1L679.4,847.9L681.3,851.6L674.7,856.9L672.4,861ZM701.5,837.7L706.5,835.9L704.1,840.7L698.6,844.9L698.6,838.8ZM707.9,847.9L703.4,847.8L705.6,839.7L710,838.3L707.6,844ZM716.9,832.2L719.5,830.8L722.7,835L719.3,837.1ZM720.8,824L723.2,824.7L725.2,829.1L721.9,830.9L713.9,827ZM686.9,833.7L693.2,833L691.8,838.5L684.6,834.4ZM728.7,836.8L731.3,837.9L734.1,844.2L731.5,847.4L728.6,846.6L725.8,850.5L728.1,853.1L725.4,855.9L717.3,857.1L715.4,855.1L716.7,851.9L711.3,852.5L703.9,856.3L700.2,861.2L701.1,856.9L706.8,852.8L710.4,848.6L713,850.5L720,844.8L720.7,842.5L725.3,840.1L724.9,836.5ZM709.4,845.3L709.2,842.8L713.1,834.3L713.7,837.6ZM718.2,839.6L713.5,842.6L714.9,839.4ZM710,830.4L706.2,834L706.2,830.5ZM894.8,757L891.7,757.4L895.3,754.5ZM890.1,761.9L892.4,759.1L890.1,763.7L890.5,764L881.6,777.4L877.7,782L871.7,787.7L871.5,787.3L884.7,771.5L888.6,765.4L888.5,763.6ZM831.5,818.4L846.2,807.7L851.8,803.5L858.2,799.8L857.8,801.8L868.2,792.9L868,794.1L864.3,798.1L864.1,799.7L868.4,796.5L869.8,796.6L873.2,792.8L872.6,794L876.2,790.2L875.3,791.8L878.9,787.8L876.7,790.9L874.3,793.5L864.6,804.2L860,807.3L857.4,808.3L849.4,815.3L843.8,822L840.8,825.1L841.7,825.5L837.3,830.3L827.7,838.5L822.4,840.9L815.7,846.5L817.6,843.7L815,844.2L812.5,842.4L806.7,845.5L799.7,849.5L794.7,852.9L791.7,853.5L786.9,856.4L784.9,856.4L780,861.8L778.8,860.1L773.7,861.8L784.8,853.8L787,850.9L776.1,858.5L773.6,857.8L767.2,861.3L769,858.2L778.4,850.5L787.5,845.9L789.3,846.8L788.5,850.2L791.6,849.2L794,850L797,847.9L803.1,840.1L808.1,835.5L812.3,830.5L824.4,823.6ZM906.8,744.4L904.1,748.5L902.2,749.6L903.8,746.5ZM349.3,342.1L346.3,340.4L347.1,339.1ZM330,326.5L327.5,327.3L327.3,325.3ZM340.7,334.1L336.7,334.2L337.9,332.6ZM336.2,330.9L333.3,333.1L331.6,331.5ZM327.3,328.9L326.1,329.7L323.8,325.6L327.6,327.8L332.9,327.5ZM408.5,316L404.5,319.9L403.5,323.2L398.7,321.4L400.7,320.5L399.2,318.2L403.2,317.8L407.4,314.4ZM421.4,311L420.3,313.2L423.2,312.5L421.7,313.8L423.6,314.8L423.2,318.5L421.4,319.7L416.7,319.3L414.3,317.7L415.5,315.6L414.6,313L415.7,310.9L417.4,312L416.7,309.6L419.7,307.5L420.9,309.6L422.7,308.9ZM417.5,306.5L417.5,307.6L412.1,311.1L412.3,312.6L409.6,315.3L408,313.3L402.8,312.7L390.6,313L395.2,307.8L397.8,306.8L400.5,311L401.4,310.5L399.6,307.3L401.5,305.4L404.9,309.5L407.4,308.9L405.5,307.3L408,306.6L406.9,305.5L404.9,306.2L403.1,304.2L406.8,301.5L408.4,302L411.4,300.5L410.1,300.2L415.5,298.9L415,300.9L416.4,302.5L414,302.5L412.2,303.7L416.1,303.8L409.8,307.6L415.4,305.6L418.1,305.4ZM604.5,911.5L616.4,911.4L617.5,907.1L621.4,904.6L631.9,900.5L639.8,892.6L647.4,889.1L648.3,888.9L651.5,887.1L660.3,875.9L670.4,876.7L680,876.2L679.4,877.8L672.7,880.7L674.7,882.6L667.5,885.9L669.2,887.4L664.5,889.2L671.7,892.1L669.5,894L678.9,894.7L675.4,896.6L670.6,897.2L667.6,901.5L668,904.8L657.7,911.9L659.6,913.7L655,918.7L644.9,923.4L643.7,921.3L637.9,923.2L631.9,923.1L628.3,925.5L622.1,927.4L622.1,925.9L609.8,928.4L607.6,923.6L601.6,922.5L601.5,919.7L598.9,919L600,914.5ZM668.1,885.7L669.9,885ZM135.7,809.5L135.8,809.5L144.1,818.9L149.8,824.4L149.6,823.4L153.2,826.8L152,824.8L153.8,826.1L156.1,828.8L156.1,828.8L159.1,832.5L165.6,840.6L165,840.4L161.3,836.6L164.1,839.9L163.3,839.2L164.5,840.5L164.5,840.5L152.8,828.6L141.6,816.3ZM750.2,565.2L755,562.4L755.4,557.8L756.9,562.3L761.1,564.2L756.6,570.7L755.6,575.5L756.5,580.6L748.2,582.5L742.4,589.9L748.2,590.1L745.1,596.4L739.3,589.5L739,583.5L743.3,580.7L739.3,569.3L736.6,567.2L736.6,563.6L742.7,565.1ZM723.6,680.1L728.7,679.8L730.1,693.6L727.2,698.4L723.7,698.4L721.7,693.3L723,688.3L720.3,686.2L718,690.4L715.3,687.9L721.7,679.1ZM739.7,664.3L743.1,665.6L741.6,671.4L737.8,671.8L734.2,680.2L731.1,676.8L731.7,671.8ZM750.2,592.5L759.7,599.4L761.8,603.9L761.5,615.1L765,620.8L765.1,625.3L769,629.1L767,638.1L762.4,638.6L762.7,644.1L759.6,642.5L759.1,647.2L751.7,651.1L753,654.2L750.6,657.2L750.2,662.7L747.7,664.6L740.3,659.6L732.9,668.5L721.2,678.6L728.3,661.5L735.2,656.6L739.8,651.7L743.2,651.3L744.7,639.5L751.3,630.2L753.5,620.1L752,609.6L748.8,607.5L746.9,596.7L751.6,596ZM128.7,420.7L124.4,420.6L120.5,423.4L120.5,419.4L124.1,403.7L126.1,404.2L125.9,410.4ZM139,377.8L137.3,379.7L130.8,382.3L128.3,379.4L129.7,375.8L133.1,374.7L138.9,369.7L140.9,374.4ZM504,924.1L507.8,925.9L505.7,927.4L500.7,924.3ZM518,935.6L513.4,933.7L515.6,932.7ZM658.8,931.4L656.7,932.9L654.4,932.4ZM649.7,933.1L651.6,933.2L647.7,935.4L642.1,935.3ZM575.1,930.2L577.7,932.5L581.4,932.3L580.2,934.1L574.7,934.2L573,932.3L567.6,932.5L571.3,930.2ZM710.2,901L707.1,905.6L705.5,905.9L708.5,901.4ZM706,904.9L703.3,906.2L706.6,902.7ZM592.8,931.8L587.9,933.3L588.4,931.2ZM796.8,839.1L803.2,836L799.7,838.7ZM797.3,842L806.4,836L803.6,838.4ZM766,857L767.3,857.5L762,860.1ZM747.2,873.6L741.7,876.4L743.6,874.4ZM766.9,880.5L765.4,881.1L769.6,876.7ZM735.4,897.4L728,901.9L729.5,900.4ZM495.8,908.7L504.6,908.8L510.9,913.5L522.8,916.8L532.4,921.3L533.7,920L545.6,924.8L552.8,925.1L556.5,926.4L553.5,927.6L555.9,929.9L561.2,929.8L562.5,932.4L566.7,933.7L571.3,933.5L575,935L573.3,936.9L572.9,943.2L562.9,945.1L556.6,943.4L546,941.7L538.1,939.2L532.1,936.2L527.6,931.9L521.7,928.8L518,928L513,922.3L505.8,920.6L504.9,918.7L499.7,915.7L495.4,914.7L487.5,910.6L485.3,907.1ZM705.6,913.9L697,918.2L683.8,923.3L684.1,922.2L689.5,919.6L695.6,918ZM684.4,924.3L690.2,923.5L687.1,925.3L678.1,926.7ZM671.4,926.5L677.1,924.6L678,925L661.9,931.6L660.4,930.8L666.1,928.6L667.8,928.7ZM723.6,876L720.2,879.6L715.2,882.5L710.2,884.1L690.3,892.2L686.9,896.1L691.8,898.4L694.6,897.4L698.4,894L712.4,887.2L705.8,892.6L697,898.3L700.7,898L704.7,899.2L703.5,901L708.2,901.3L700.7,905.9L697.5,906.5L698.6,904.5L693.4,905L694.6,901.9L688.4,905.3L689.7,906.9L688.1,911.9L689.2,912.7L683.7,915.1L681.1,915.3L683.4,910.3L682,909.1L677.7,910.4L677.2,908.6L681.4,904.3L681.4,902.5L684.5,898.8L684.6,896.6L689.2,890.9L693.7,887.9L708.7,883.3L715.8,880.2L724.2,873ZM585.6,942.2L593.1,941.7L596.1,942.6L610.2,940.2L612.8,938.3L627.1,936.2L629,937.4L639.1,934.9L641.9,934.8L642.7,936.7L632.4,938.4L627.8,939.8L611.3,943.1L605.3,943.5L594,945.6L577.9,947.2L578.5,946.2L570,946.7L575,943.6ZM744.2,866.2L751,859.7L748,864.5L752.6,863.9L746.1,866.6L744,870.3L742,865.8L743.4,862.7L746.2,863.2ZM758.3,871.3L762.6,869.2L765.3,870.3L758.8,872.5L756.1,874.4L744.9,879.9L747.3,877.5ZM737.6,883.3L740.2,883.7L736.2,886.4L731.6,886.7ZM791.2,858.9L791,860.2L787.1,862.6ZM789.4,862L786.1,865.2L786.7,863.2ZM813.7,848.4L808.3,852.9L810.9,849.2L815.8,844.7L816.9,844.5ZM637.5,933.9L628.8,936.3L629.7,935.4L638.6,933ZM465.1,877.9L463.6,876L466.4,868.5L467.4,872.9ZM322,241.8L318,243.3L314.6,246.6L311.2,246.2L308.5,243.2L307.1,236L307.9,232.3L307.1,229.4L310.7,224.9L315,222.4L316.8,218.2L318.7,222L322.8,220.4L326,216.2L323.5,222.4L325.6,221.2L326,223.3L328.7,220.7L329.3,217.7L332,217.8L330.5,220L333.3,219.4L331.2,222.8L334.1,221.6L333.5,223.5L329.2,225.5L323.6,224.9L327.5,228.3L324.6,230L326.4,231L325.3,234.1L322.9,235.9L323.1,239.2L324.6,241ZM143.5,462.7L143.3,467.7L141.4,470.6L142.4,462.4ZM127.7,479.6L130,490L130.5,495.6L126.9,487.7L126.6,478.3ZM149.6,371.3L146,373.6L141.6,373.8L142.7,371L146.9,367.5ZM260.3,381.3L260.2,384.4L256.6,381.4L258.6,378.9ZM457.2,262.8L453.1,264.6L452.8,264.2L455.3,259.4L452.2,263L451.8,264.7L449.4,264.3L447.8,265.5L445.9,265.8L444.9,262.8L447.6,257.5L446.4,256.5L445.7,258.5L443.7,260.7L441,260.4L442.5,262.5L441.9,264.3L438.5,263L434.8,259.1L434.9,260.7L437.5,264.1L434.9,266.2L437.3,269.2L434.8,272L432.8,272.7L430.2,269.6L430.2,268.4L428.6,267.9L428.3,264.9L426.8,265.5L425.6,263.9L427.6,261.1L424.7,259.1L423.2,259.8L419.3,258.8L416.2,254.7L411.4,251.5L411.5,253.1L409,254.5L409.2,252.5L407.1,252.5L404.4,255L401.3,253.7L404.2,250.2L402.8,248L400.2,247.9L398.6,249.9L391.9,249.1L390.7,247.8L392.5,247L391.3,245.6L388.4,245.4L389.6,247.1L385.3,247.3L384,246.6L384.6,243L387.1,241.3L384.6,241.1L381.9,243.8L379.5,242.7L379.9,239L381.4,237.7L385.6,236.7L384.7,234.8L384.6,230.2L383.8,235L382.8,236.2L377.2,238.4L372,236L376.9,233.5L381.3,233.8L381.8,229.2L380.3,233.1L377.2,232.2L369,235.8L360,234.1L361,231.3L364.2,229L368.1,229.4L373.1,227.5L370.3,226.7L370.2,224.1L373,221.1L370.5,220.4L370.7,218L366.3,223L366.2,220.1L364.5,225L360.3,228.5L358.3,231.5L357.1,229.2L355.9,221.7L355,218.6L358.9,207.8L360.5,206.1L364.1,205.1L361.1,204L360.9,200.8L357.7,195.9L357.8,188L361,184L362.6,187.6L363.4,186.4L362.1,182.4L365.4,178.7L362.9,179.4L363.1,176.9L365.6,175.3L360,175.1L360.3,172.9L357.2,171.8L356.3,164.9L349.1,157.1L349.4,154.7L347.1,153.9L349.2,150.8L355,149.1L359,149L360.8,151.3L362.6,147.8L367.2,145.2L371.3,145.2L377.3,147.6L380.7,147.1L382.3,148.3L389,149.7L392.7,153.9L392.7,151.3L398.8,155.9L401.8,155.1L403.5,158.4L405.2,157L406.1,160.9L409.6,161.1L410.4,162.5L408.6,165.7L404.1,167.3L404.2,168.4L408.1,166.5L410.8,163.2L411.7,167.1L406.9,168.6L407,170.4L412.6,167.2L412.9,169.1L408.9,170.8L408.8,172.2L411.5,177.6L411.7,179.5L416.7,177.1L422.4,176.6L424.3,178.4L420.7,179.8L416.4,179.9L418.9,183.4L422.9,181.6L423.6,183.5L425.5,183.1L427.6,180.6L430.4,180.5L431.8,183.7L433.7,185.2L433.3,188.3L436.3,188.6L436,189.8L438.8,190.6L439.7,192.6L442.4,193.6L442.6,195.7L450.2,198.5L451,200.3L457.9,201.1L462.2,200.8L465.5,198.4L468.6,197.7L467.4,196.8L470.5,196.6L473.6,198.4L471.9,200.4L476.3,200.3L477.7,202.5L474.3,203.3L473.9,204.4L469.9,205L471.4,207.3L475.5,204.9L481,206.9L482.6,208.1L482.5,210.5L477.6,213.8L475.7,216.2L473.6,216.8L473.3,218.3L474.1,223.7L475.5,222.5L477.5,222.7L477.8,225.5L476.3,229.3L474.2,229.1L475,231.2L472.9,231.4L474.4,235L473.7,237.1L468.7,235.5L473.2,237.8L469.9,242L466.2,239.9L468.1,242.6L464.2,241.2L462.9,242.1L466.8,244.5L464.5,245.3L458.4,244.3L457.8,244.9L460.3,247.8L463.2,249L463.1,249.6L460.1,251.7L463.4,250.3L464.3,249.4L464.1,253.1L461.8,253.4L462.4,255.2L459,254.8L461.5,256.3L461.5,257.4L459.2,261ZM417.4,175.9L415.1,176.2L414,174.6L416.8,171.5L418.6,172.6L422,172L422.9,175.7L420,176.4ZM433.6,187.6L433.9,185.9L436,186ZM459.3,245.9L462.4,246.2L464.3,247.6L463.7,248.3L460.9,247.7ZM368.1,226.7L366.3,226L368.8,220.3L371.4,221.9L369.5,226.2ZM423.2,262.1L423.7,260.3L425,260.8L424.7,262.8ZM396,251.9L399.3,252L400.5,253ZM390.9,251.5L387.4,251.3L388.5,249.4L391,249.8ZM232.5,350.2L225.3,349.8L231.4,343.6L234.4,349.5ZM230.6,342.5L227.3,344.3L227.3,340.8L229.7,339.4ZM147.9,531.7L155.7,539.3L151.4,539.3L146.1,535.8L145.8,530.5ZM607.8,820.3L609,822.1L605.3,828.3L598.4,832.9L591.9,832.3L591.4,827.6L595.8,823.3L606.1,819.8ZM713.5,167.2L710.2,164L715.8,163.5L717.3,166.8L714.6,168.6ZM715.3,162.5L718.7,158.9L718.2,165.1ZM711.3,142.6L706.1,136.4L706.6,132L704.8,129.5L706.8,126.6L711.3,132.4L712.4,138.1L713.8,141.9L716.2,144L715.2,146.7ZM542.4,219.1L543,217L546.2,218.1L548.2,220.1L542.9,220.1ZM545.4,216.4L544.9,215L547.1,215.1L547.2,212.9L550.7,213.2L551.9,215.2L550.4,217.3ZM556.3,216.3L558.6,215.6L560.6,212.9L563.6,212.2L564.3,213.8L562.3,215.3L565.2,215L567.6,213.4L567.2,214.8L570.1,212.9L571.1,214.9L573.7,216.1L571.3,218.2L569.9,217.6L561.9,219.3ZM549.2,203L549.6,201.4L545.7,201.6L545,199.2L547.5,196.2L550.9,195.7L553.7,197.9L561.4,197.4L564.3,198.2L565.8,201L557.3,200.7L562.9,202.4L561.9,204.6L564.2,203.2L567,203.9L569.1,207L567.3,208L565.4,207L565.8,209.2L560.4,211.4L558,210.2L558.4,208.5L556.5,207.5L556.1,202.5L552.6,200.6L552.6,203.1L551.4,203.8L551.8,206.2L548.6,207.8L547.2,207.1ZM574.8,190.5L572.2,189.8L569.4,190.5L567.3,187.5L570,186.3L565.1,186.1L564.8,188.4L563.5,187.6L562.3,183.7L563.8,179.3L561.1,179.2L561.2,180.9L559.2,186.6L557.9,187.7L554.2,183.9L555.1,174.8L556.8,172.5L556.3,170L554.3,168.6L550.4,163.5L551,161.7L554.3,163.5L556.1,162.3L557.7,163.7L558.3,160.9L554.7,161L555.3,158.8L558.8,158.7L564.7,161.3L567.4,165.6L570.9,164.2L575.8,164.7L582.9,166.6L588,168.8L586.7,172.9L592.8,178L591.3,181.9L584.4,179.4L580,176.5L577.2,175.7L580.8,180.2L586.5,182.6L590,185L590.2,187.7L588.5,187.8L582.9,186.2L581.5,186.7L586.9,188.7L585.7,190L588,191.7L583.8,194.6L579,195.4L571.7,194.6L571.2,193.5ZM578.3,204.2L575.5,203.4L573.3,201.5L572.4,196.8L573.1,195.8L583.5,196.5L588.2,195.9L592.6,193.3L595.2,194.7L599.2,194.9L598.6,199.2L600.6,203.3L595.7,204.5L592.8,206.4L587.3,207.9L585.8,211.7L579.7,208.7L577.4,204.6ZM486.4,241.2L483.2,241.3L484.7,239L483.6,239.4L481.6,241.6L480.2,241.4L478.9,240L477,239.9L476.2,238.7L476.5,236.9L478.3,234L480.4,232.6L481.6,229.8L479,232.1L478.2,230.8L480.8,225.8L482.1,222.4L482.9,219L485.9,218.4L485.4,216.8L488.5,215.8L490.8,216.2L486.6,213.6L488.9,213.7L493,213.1L491.8,212.3L489.3,212.9L486.1,211.4L486.6,210.2L489,209.7L486.9,208.7L487.7,206.5L491.3,205.7L491.1,202.9L492.2,201.7L496.5,201L491.2,199.4L490.9,196.7L495.4,194L495.8,195.4L497.7,196.1L501.7,195.7L504.2,194.8L506.7,196.7L507.2,195.4L512.8,196.6L512.3,198.7L510,200.3L507.1,200.5L509,204.2L507,205.2L504.7,202.3L504.4,205.3L502.8,207L503.4,207.8L505.5,206.4L504.9,208.1L507.8,207.2L506.2,211L503.6,211.7L500.4,210.8L499.1,211.7L500.9,212.7L503.1,216.5L505,218.1L504.6,221.3L501,220.6L498.3,217.2L497,217L499.9,220.9L496,222.7L495.4,223.6L491.9,225.4L494.1,225.5L494,227.2L497.3,223.5L499.8,222.9L499,224.3L501.5,222.8L504.9,223.7L502.9,225.8L503.6,226.2L505.9,223.8L507.9,224.9L507.1,226.1L504.5,226.2L502.5,227.8L505.5,226.6L508.6,226.5L508.9,227.5L506.7,230L509.1,229.1L508.3,230.5L510.5,230.9L508.8,232.4L506.4,233.4L502.7,233.1L504.1,234.1L502.1,235.8L499.6,234.4L495.8,231.8L498.9,234.6L499.1,237.1L498.1,237.9L495.5,237.6L497.1,239.1L494.5,239.2L492.4,236.8L492,237.4L494,240L491.3,240.3L490.2,239.7L489.8,241ZM521.9,206.5L518.6,205.8L518.9,203.8L523.3,204.7ZM522.6,188.4L523.1,186.4L525.7,186.5L529,189.9L526.2,192.4L523.6,192.3ZM538.7,185L537.3,183.3L533.4,183.3L532.5,181.7L533.7,180.2L537.2,178.5L535,177.9L534.8,175.6L533.3,175.7L535.1,170.7L537.9,170.1L539.9,171.5L539.9,169.4L542.5,169.6L544.3,175L546.6,176.8L547.7,180.1L545.2,181.1L544.6,178.9L541.2,179.3L541.3,181.3L543.1,182.9L541,184.8ZM506.7,130L505.6,131L496.6,126.7L495.2,124.1L492.1,123.9L490,122.3L492.7,120.7L497.7,121.8L498,123L502.1,123.6L506.1,119.9L509.4,119.1L510.4,122.1L515.5,121.8L511.8,124.3L512.1,126.6L510.2,132.5L508.7,133.6ZM528.4,199L529.8,192.4L531.1,190.8L536.6,191.4L536.8,193.8L533.8,195L540,195.8L537.8,197.7L536.8,196.5L537.2,200.2L536.2,201L534,196.9L534.3,200.7L529.8,200.9ZM530.9,219.4L530.9,216.3L529,217.2L527.1,213.1L527.9,211.4L528,208.3L530.3,209.2L530.3,211.3L532.5,213.2L535.3,213.5L535.6,215.4L533.7,214.7L532.9,217.8L534.5,217L534.9,218.8L533.7,220.5ZM511.4,227.5L510.4,223.7L506.5,221.8L507.1,220L505.8,218.5L506.5,216.4L504,216.5L503.2,214.3L507.6,210.5L508.1,212.5L508.4,209.3L509.5,210L509.9,207.4L511.6,210.4L511.1,207.4L515.1,208.3L517.7,213.8L512.8,215.6L514.9,216.5L518.6,216L519,217.8L517.1,218.4L519.2,219L519.5,222.1L516.7,220.9L518.6,223L517.4,223.2L517.6,225.5L514.9,224.1L516.5,226.3L515.9,227.4L513.2,228.3L512.9,229.4ZM521.2,200.5L519.2,198.2L516.8,198.3L512.7,194.6L516.5,194.8L514.5,193.9L512.4,189.8L508.8,190.6L506.4,189.7L501.9,191.6L498.3,191.7L494.5,190.5L492.8,187.8L494.3,186.8L492.2,186.1L494,183.9L497.3,183.1L499.8,183.7L512.1,183.7L511.7,185.5L515.2,184.4L519.5,186.5L519.8,190.3L518.7,193.1L519.8,196.6L524.1,196.8L526.3,200.4L523.8,202ZM521.7,211.5L519.9,209.8L520.8,207.6L524.4,207.1L525.2,211.6L524.3,214ZM523,183L521.2,181.5L517,180.3L522.5,174.1L527.5,175L526.4,172.7L528.2,170.6L531.2,171.1L530.7,175.7L529.3,181.2L527.5,180.6L527.7,182.7ZM541.5,158.8L538.8,156.4L538.1,152.7L540.7,151.7L543.7,152.8L545.6,155L548.7,156.3L548.2,157.4L545,157.8L543.6,160ZM376.1,72.2L372.6,74.7L369.3,74.8L371.5,72.9L376.2,71L378.1,71.5L376.7,74.8L374.8,76.2L373.7,73.8ZM362.5,99L364.6,97.1L362.6,96.8L364,92.1L358.3,94.5L359.3,91.7L351.8,95.6L346.4,96.7L348.1,94.4L346.5,93.7L342.4,96.8L343.7,92.7L337,95.1L336.5,91.9L339.1,90.7L340.3,91.8L342.5,89.8L342.5,91.7L345.5,92L348.3,87.1L350.6,85.9L348,89.7L352.8,87.3L353.6,88L358.4,84.9L365.7,82.2L369.4,80.3L371.3,81.1L367.9,84.4L370,83.8L368.7,92.7L367.7,95.5ZM509.7,162.3L505.6,163L504.5,165.8L507.5,168L505.9,169.5L506.4,173L504.8,176.1L501.9,176.6L499.2,178.5L496.3,177.9L493.3,172.6L495.5,169.9L494.5,167.5L492.5,170.5L488.1,170.6L488.4,172L484.9,173L480.7,172L479.3,169.9L477.4,169.4L478.3,167.4L473.7,168.1L470.1,167.7L469.1,165.4L467.3,165.8L467.6,162.1L464.6,164.7L459.6,163.6L463.5,160.3L458.7,162.8L455,160.2L458.3,158.5L454.8,158.7L452.6,157.4L457.9,156.4L455,156L454.9,153.2L448.9,153.1L448.5,150.6L444.7,152.9L439.4,149.9L436.9,150.5L437.8,147.8L433,150.5L429.9,149.4L430.4,145.6L432.3,145L431.5,143L433.6,142.1L432.7,138.5L436.4,138.4L440.7,140.8L440.1,142.8L442.6,141.6L446.9,143.6L447.1,140.6L448.8,138.7L443.1,135.7L440.5,135.9L434.2,133L431.8,129.6L435.4,131.2L431.8,127.8L432.8,126L437.6,127.1L448.4,127.5L434.8,123.1L435.1,121.2L446.7,121.1L449.1,122.4L455.9,122.5L465.7,128.1L471.4,129.3L470.1,128.2L477.3,125.7L481.2,126L482.7,128.9L480.4,131.8L474.7,131.6L467.4,133.5L471.2,136.5L465.4,143.6L470.3,149.1L474,149.8L475.9,151.8L480.6,149.7L480.8,151.4L478.8,153.4L481.3,155.3L484.5,155.9L485.3,158.1L489.1,160L489.8,158.6L488,156.8L489.4,155.9L494.6,156.8L497.5,155.3L509.4,157.2L510.1,158.8L513.8,158.1L516.2,159.9L517.4,163.3L511.4,162.3L513.1,163.7L518.1,165.9L517.3,171.4L515.2,175.2L511,178.9L508.7,179.4L504.6,178.3L507.4,175.8L509.1,172.8L507.9,166.8L505.4,164.2ZM386.8,79.3L396.5,77.2L401.8,77.2L400.5,78L393.6,79.3ZM391.8,68.6L382.9,71.6L385.8,69ZM496.2,118.1L496.6,116.5L500.1,114.3L502.7,114.1L503.5,115.7L501.4,117.8ZM486.7,115.7L485.6,114.9L486.8,111.9L489.2,114.3ZM477.5,147.9L475.8,147.6L475,143.8L476.8,142.1L480.7,141.6L482,143.8L480.7,147ZM491.9,178.2L489,178.5L486.3,177.7L483.7,175.4L483.8,173.8L487.3,173.9L491.4,172.8L494.8,176.4L494.9,178.7ZM488.6,73.3L495.2,74.3L490.7,75ZM481.2,87.8L486,86.1L482.9,89.1ZM512.5,201.6L514.8,202.6L514.5,204.1L512.8,203.8ZM539.1,206.8L540.1,207.4L539.8,211.2L538.5,208ZM522.6,221.7L523.2,220.2L524.5,221.6L523.7,223.1ZM553.2,182.9L555.1,187.4L553.8,188.4L551.2,187.9L549.7,186.3ZM538,198.6L540.8,197.8L541.6,201L538,200.4ZM539.8,203.1L538.4,201.7L541,201.8ZM568.8,209.8L570.4,211.1L565.4,211.9ZM552,217L552.8,219.1L551.3,219.2ZM470.6,145.7L473.6,145.6L474.2,146.8L470.2,146.9ZM480.9,121.4L480.9,119.6L483.3,121.1ZM535,183.6L537.5,184.4L533.2,184.7ZM489.7,155.2L491.2,153.5L493.6,154.4ZM488.6,149.9L487.1,153L486,152.7ZM544.5,194.1L545.7,195.3L543.8,196.5L543.1,194.6ZM624.8,961.4L623,961.9L626.5,960.8L626.7,960.5L630.6,959.1L630.2,959.5L636.2,957.5L650.8,952.4L655.9,950.8L682.2,940.4L694.7,934L694,933.6L700.8,929.7L703.8,929.5L706.1,927.8L704.4,928.2L711.5,924.8L712.3,923.4L721.4,917.7L723.5,916.9L726.1,914.6L728.7,913.6L731.5,911.5L739.4,908.7L750.6,902.5L747.9,903.5L754.9,897.5L763.4,890.9L764.1,890.8L772.3,885.2L773,884.1L767.6,886.9L789,874.2L793,870.9L795.4,870L797.7,867.5L799.8,866.6L795.7,870.8L792.3,873.5L791,875.5L787.6,878.9L799.3,871.3L801.8,869.6L806.1,866.3L806.8,866L810.8,862.9L815.9,858.4L819.4,855L824.3,849.7L825.2,847.7L828.4,843.2L832.8,837.2L834.7,835L837.4,834.4L837.4,834.4L837.3,837.1L841.5,833L844.8,830.2L843,832.7L844.5,831.4L844.3,831.6L844.3,831.6L832.5,843.4L820.3,854.8L807.7,865.8L794.8,876.3L781.4,886.4L767.8,895.9L753.8,905.1L739.5,913.7L724.9,921.8L710.1,929.4L695,936.4L679.6,943L664,949L648.3,954.4L632.3,959.3ZM796.6,870.9L797.1,871.2L793.7,873.6ZM759.4,892.1L765.6,888.4L761.2,892Z" fill="#2b2b2b"/>
<path d="M62.4,692.3L60.7,688.3L61.5,689.8L66.9,701.1L72,711.9L75.9,719.5L80.1,728L79.1,726.3L81.5,730.9M128,682.1L130.4,682.7L131.8,679.6L141.3,690.4L152.3,704.7L158.1,703.5L164.4,706.5L180.3,718.9L182.4,736.5M560.8,881.1L565.5,878.2L571.4,876.9L573.2,872.7L584.3,868.4L585.6,862L583.1,858.7L584.4,855.4L585.3,852.2L581.3,849.6L582.9,848.2L577.5,846.7L575.5,844.2L560.8,835.5L554.1,833.1L562,828.1L559,824.6L554.8,823.3L547.5,824.4L539.5,815.9L541.7,813.5L546.2,814.9L548.4,812.7L553.1,813.6L563.2,807.3L567.7,809.4L574.9,809.2L574.4,814.3L584.7,815.6M145.8,390.4M339.7,653.5M340.4,662.4M343.9,663.4M701.1,161L703.5,161.6M641,224.4L671.5,213.8L700.8,205.2L699.3,201.8L696.3,199.3L698.1,199.1L699.3,192.6L700.8,191.5L697.2,189.3L694,189.4L690.7,187.3L692.2,184.6L692.5,180L697.3,168.6L695.2,163L696.1,162.3M700.7,125.3L668.4,106.8L635.1,90.7L600.9,77.2L566.1,66.3L564,67L563.5,65L558.8,63.4L554.9,63.1L547.3,60.2L543.5,60.1L534.9,58.6L529.8,59L510.7,53.6L509,52.3L497.4,49L494.8,44.3L497.2,42L500.9,40.5L496.5,39.8L489.3,41.1L483,41.7L475.1,43.5L476.8,44.7L474.2,45.3L462.7,46.3L460.9,47.5L453.9,50.6L451.3,51.2L432.7,54.1L429.5,55.5L426.9,57.9L426.3,60.4L423.1,63.5L417.5,64.4L414.7,64.2L412.4,60.5L407.8,60.1M605,33.7L606.7,34.1L618.7,37.1L620.4,37.9L625.1,39.5L626.7,40.4L632.1,42.5L637.3,44.1L644.8,45.9L652.2,49L653.9,50.4L661.8,54.6L673.1,59.2L673.9,59L692,67.1L712.6,79.6L711.5,79.3L726.1,87.5M227.1,272.7L230.1,268.9L228.6,267.8L231.5,264.4L234.8,267.8M218,707.1L214.3,705.1L206,714.5L205.4,714.6L191.7,700.8L189.6,688.6M218.7,699.6L219,702.9M217.9,705.2M205.4,490.7L205.9,488.1L203.6,482.4M189.6,467.9L187.4,463.4L187.4,459.7L192.3,460.6L195.4,459.4L195.9,463.5L198.7,461.5L200.7,455.2L203.5,452.5L203.3,443.1L200.2,439.7L197.8,438.7L194,433.8L193.3,423.8L192,423.1L193.7,417.7L198.3,417.1L201.3,415.8L211.5,417.3L215,412.4L218.3,414.3L221.1,421L221.6,428.2L225.1,436.3L224.1,438.2L227.8,442.4L231.4,442.2L233.4,445.2L236.2,447.3L239.2,452.2L237.4,457.7L233.9,459.7L235.7,463.3L232.8,468.1L234.1,474.9L237.3,477.2L237.6,482.5L240.3,492.2L236.1,494L233,499.2L230.1,500.6L227.7,497L224.3,495.9L221.7,498.1M307.3,667.2L303.5,663.4L297,663.4L293.2,667.7L283.9,666.6L282.6,668.8L277.6,668.1L273.1,661.4L275.2,654.2L271,651.5L268.1,642.1L255.9,626.6L248,623.5L245,624.7L240.4,622.3M250.1,588.9L255.2,589.1L259.6,591.6L261.6,597.2L262.1,603.9L264.4,605.1M205.1,543.4L209.9,549L210.3,554.5L207.2,561.1L209.3,568.6L209.3,569.1L205,567L202.4,574.7L199.6,576.2L198.8,583.2L191.8,572.4L189.1,571.9L182.8,563.8L176.2,559.2L173,552.1L169.3,549.6L167.4,544.7L164.9,547.5L161.1,545.2M157.6,469.5L162.3,469.6L163.3,466.7L167.2,470.2L168.2,474.4M101.2,413.6L97.7,416.2L92.9,410.5L90,413.5L87.4,410.8L95.2,401.7L97.2,395.7L100.4,389.6L104.1,385.8L107.3,388.3L109.5,387.7L115.8,382.7L118.1,383.5M27.1,434.5L28.4,426.9L29.9,423L31.8,415.6L32.8,413.8L34.5,407.7L33.4,415.2L32.6,416.3L31.6,421.8L30,427.1L26.9,437.3M721.8,908.5L721.1,907.6M717.5,909.8L714.4,911.6M514,885.6L514.4,883.2L521.3,877.4L517.1,870.6L517.3,867.4L510.1,861.7L514.6,854L511.5,849.6L506.3,845.6L503.8,841L506,840.2L508,833.5L515,833.2L519.2,829.5L524.4,829.5L527.7,830.7L528.5,834.2L533.1,833.7L533.8,837L531,845.3L532.6,845.8L540.8,841L545.3,842.4L549.7,839L555.7,839.5L562.1,844.1L561.8,847.8L569,852.2L568.2,858.8L565.9,860.1L550,861.9L543.1,866.8L548.4,875.9M542.3,902.6L540.4,904.6L534.1,905.9L533.6,903.2L526.3,901.7L525.8,902.8M66.9,701.1L64.5,695L62,688.9L59.6,680.9L59.4,679.5L60.4,681.7L63.3,685L62,681.1L62.2,680.3L62.8,679.1L61.7,675.2M73.8,698L61.7,675.2L58.8,670L59.1,665.6L59.9,664.5L64.5,668.9L62.8,663.7L63.6,660.6L64.8,661.6L68.2,669.4L71.3,673.7L73.1,677.5L75.2,678.9L76.6,684.4L78,691.8L78,695.4L73.9,694L73.8,698L89.3,729.8L90.3,733L97,745.4M107.9,771L106.2,769.1L100.5,761.5L98.9,759.1L96.2,755.2L92.7,749.8L89.4,744.4L86.4,739.4L84.2,735.5L82.3,731.4L75.9,719.5M339.8,659.3L329.7,656.9L328.6,660.1L341.3,665.1L342.5,668.3L353.6,671.4L352.9,677.8L358.3,680.7L358.5,689.5L356.8,690.1L348.6,685.2L336.8,686.5L335.5,682.5L338,677.2L335.2,671.8L329.7,675.7L325,674.4L315.2,674.5L313.9,672.1M337.4,661.6M189.1,571.9L183.1,570.5L175.2,578.8L171.6,578.6L160.6,573.7L149.5,568.5L147.6,560.7L150.5,557.6L156.3,557.5L155.9,552.2M201.1,374.3L201,372.1L196.4,364.7L194.6,364.3L190.8,368.2L187.2,376L182.8,372.9L178.7,376L179.7,371.2L176.5,362.8L177.5,358.2L176,358.9L174.7,359.8L173.8,364.8L170.6,363.5L171.1,359.7L167.1,359.9L170.7,355.2L167.5,353.6L167.5,349.6L170.5,347L170.6,343.3L176,346L177.7,348.4L178.8,353L177.5,358.2M254.8,337.2L258.9,337L262.9,338.8L269.3,336L272,337.2L274.5,333.8L278.6,333L286,329.6L291,330.4L292.1,334.5L296.2,332.1L302,333L308.2,331.2L316.2,334.4L318.8,332.7L324.6,334.3L323.9,336.3L328.7,335.9L328.2,340.8L333.8,340.5L330.9,345.7L330.6,348.2L328.1,352L324.2,353.2L320,356.8L317.3,357.1L312.8,360.8M63.6,660.6L60.4,648.3L55.6,639L53.8,630.5L53.3,625.7L52,620.5L52.1,617.3L49.8,605.6L49.6,600.7L48.5,593.7L49.7,595.5L52.9,593.6L55,598.3L55.8,607.1L59.7,616.1L59.8,618.3L62.2,623.8L67.1,627.8L68.8,635L70.5,638.1L76.2,640.7L76.5,634.5L80.8,641L78.7,646.7L80.4,654.2L80.2,658.5L79.2,662.2L75.8,657.3L74.6,657.6L76.7,663.1L79.7,674.1L80.9,682.5L75.2,678.9M48.5,593.7L47.2,588.7L48.7,585.5L48.5,575.6L50.3,565L49.4,560.8L51.2,561.5L57.9,558L60.1,563.8L69.1,548.4L70.4,546.3L72.8,552.9L78.4,544.5L95.2,582.6L115.7,619.9M112.8,649.4L110.3,649.1L104.3,644L102.3,646.8L98.1,649.1L96.9,653.6L92.6,657.7L90.3,655.2L87.3,655.2L85.3,658.1L82.3,655.3L80.2,658.5M156.8,308.3L154.6,310.6L149.8,327.5L149.1,329.2L148,337.7M131.1,288.2L133.3,286.9L134.8,288.9L137.4,286.3L139.8,287.3L143.8,283.2L143.3,286L146.2,286.2L149.9,284.5L151.7,287.6L154.5,284.7L155,280.6L157.8,273.1M686.8,666.8L687.8,662.5L693.4,658.9L694.4,655.8M106.4,749.6L103.7,743.3L104,729.4L108.8,730.6L119.8,739.7L124.4,745.2L133.1,747.4L142.6,749.9L149.3,748.8L151.3,740.7M142.6,749.9L137,743.7L123.1,722.8L120.8,717.9L118.3,707.5L120,707.4L122.2,707.1M193.7,417.7L192.2,409.4L189,408L184.4,398.8L185.2,394.9L188.6,391.9L196.2,397.8L197.5,400.4L195.4,403.3L199.1,411.5L198.3,417.1M167.8,385.5L173.3,382.4L173.3,386.9L177.3,393.5L175.5,396.9L172.9,393.4L168.3,394.3L167.3,385M56.7,321.3L56.1,322.8L52.8,331.5L48.6,342.8L48.6,342.8M178.9,469.3L178,459.8L172.1,453.9L169.2,441.3L170.3,437.1L165.7,439.5L164.9,442.8L162.2,441.5L159.1,443L157.5,439.1L160.1,438.4L161.9,430.8L158.9,430.3L161.3,421.5L164.7,421.6L168.6,415.5L174.7,411.1L177.4,417.2L174.5,422.3L173.6,427.3L171.8,427.7L171.1,432.7L172.6,434.2L170.3,437.1M78.4,277.8L78.9,277.9L75.4,285.7L73.2,290.6L70.1,296.8L66.2,304.1L63.8,309.3L60.9,314.3L57.9,321L57,322.6L59.2,316.6L63.8,305.7L68.2,295.6L72.5,286.4M73.8,284L71,290L69.6,293.4L66.3,300.5L65.3,302.9L69.4,294.2L74.1,283.8M132,572.8L135.1,579.7L140.1,580.5L143.2,583.9L146.9,584.2L146.9,573.5L157.2,582.2L161.2,589.7L165,603.3L169.8,627L177.9,637.1L181.7,642.2L181.5,645.9L185.2,649.7M186.8,682.1L188.8,685.4M206,714.5L207.1,720.5L199.3,728.3L180.3,718.9M157.2,384.3M62.2,680.3L60.1,675.8L60.1,676.7L57.4,670.8L56.8,668.7L58.8,670M696.1,623.4L694.5,622.2L695.6,614.2L689.7,604.1L692,598.9L698.3,597.6L698.3,586.3L695.8,578.2L696.9,573.5L692.4,570.4L686.9,578.1L686.9,579.8L679.9,584.8L673.8,577.7L667.2,576.8L659.7,579.3L649.7,570.7L642.8,562.6L637.8,559.2L633.8,560.3L627.2,559.7L616.2,566.7L613.4,572.1L616.6,572.8L618.3,577.3L616.3,581.3L614.9,592.1L616.2,594.5L610.6,601.3L603.9,600.9L596.4,602.1L590.8,601L585.7,607.9L574.7,614.2L562.7,615.4L558.4,611.2L551.5,609.2L544.3,608.9L535.4,612.7L528,609.7L526.6,603.6L515.1,601L509.7,598.3L504.9,604.7L504.3,607.6L506.8,611.2L505.9,615L501.1,617.8L499.9,616.6L487.2,615.2L485.4,610.8L479.4,610.1L475.6,607.7L460.6,614.1L456.8,617.2L452.4,616.8L450.1,618.8L447.4,619L444.2,614.2L436.8,612.5L436.1,609.1L432.9,607L431.7,602.3L429,599.9L424.2,601.1L419,599.7L417,594.7L411.6,597.5L407.8,580.7L405.8,573.7L401.8,567.6L404.2,564.1L391.3,566.4L385.9,566L388.6,562.9L383.2,557.8L377.9,556L379.4,553.2L379.6,547L376.8,547L372.4,543L365.4,544.2L355.3,541.2L338.4,537.5L336.4,535.3L333.3,537.4L334.7,544.8L331,542.1L328.5,546L323.1,546.5L326.4,553.8L324.3,557.9L321.8,557.9L318.4,554.2L316.6,555.4L313.1,552L312.4,547.9L308,546.4L304.7,542.6L300.2,543.2L297.4,536.9L295.9,539.2L294.5,529.6L291.6,525L287.1,523.1L286.3,519.7L282.3,520.6L273.3,519.1L271.2,523.6L268.8,523.3L268.9,517.3L267.1,516.5L260.9,520.1L260.3,522.5L255.8,525.3L254.8,531.8L257.8,534.8L255.6,547.8M233.6,572.6L228,573.4L226,570.2L225.2,563.2L223.4,558L225,556.7L223,551.4L218.7,548.5L216.1,537.9L213.2,534.2L211.5,528.3L208.7,525.8M233.4,445.2L239.3,438.6L240.1,442.1L242.8,443.2L244.4,440.4L243.7,437.1L247.8,428.8L252.9,425.6L253.4,421.8L251.6,412.3L255.4,407.4L258.3,406.5L259.4,403.4L262.1,403.6L268.3,398.4L273.4,397.7M280.2,392.6L287.5,394.4L299.3,395.4L302.1,394.6L305.4,386.3L308,386.7L312.5,382.2L313.3,380L321.5,376.2L326.7,370.4L332.9,369.8L335,364.4L336.9,362.7L341.3,361.9L348.9,363.4M236,388L236.3,394.3L231.9,397.7L228.8,384M235.8,386.5L235.8,386.8M177.4,417.2L179.3,420.7L189.9,421.2L192,423.1M200.2,439.7L200.3,441.8L194.1,454.5L187.4,459.7M196.2,397.8L198.2,395.3L198.1,391.7L200.5,382.8L201.1,374.3L203.8,374.1L207.2,370.4L211.8,368.3L213.7,365.1L219.5,363.2M220.4,362.6L220.9,362.3M231.9,397.7L230.2,402.4L222.5,408.9L219,407.7L218.3,410.5L215,412.4M827.7,838.5L831.5,818.4M249.4,727.6L253.3,722.5L262.2,724.9L264,722.6L260.9,719.7L263,713.6L258.5,708.6L255.4,696.5L264,705.5L273.8,711.5L287.5,715.8L291.2,709.6L295.3,708.8L304.1,709.4L308.1,712.7L311.3,711.9L314.9,705.3L320.2,705.7L319.1,700.5L326.7,702.8L327.2,699.2L332.6,696.5L331.7,689.4L335.2,687.8L342.1,687.6L354.2,690.8L361.6,696.4L362,702.9L365.7,705.4L366.6,709.8L363.1,711.5L357,711.2L348.5,706.1L344.6,708L345.2,714.4L343.7,715.9L346.8,722.4L350.8,725.7L344.5,727.5L344.1,732.4L334,736.6L329.4,741.2L325.2,741.5L320.7,745.3L313.7,744L311.1,740.7L304.1,743.5L302.8,745.6L306.8,749.7L305.6,752L308.4,757.8L309.5,765.2L300.1,762.5L293.6,758.8L289.2,759.4M341.3,361.9L346.2,359.8L347.7,355.3L345.3,352.5L342.9,352.2L337.7,353.9L334,353.2L334.6,349.7L332.8,346.2L336.3,342.4L333.8,340.5M668.3,657.6L670.1,652.9L675.1,646.8L677.7,638.1L685.5,637.3L683.2,633.4L687.7,630.5L690.6,625.1L689.9,620.9L694.5,622.2M26.3,444.8L29.2,435.8L29.1,437.6L30.9,438.1L32.8,432.5L34.2,430L35.7,430.5L36.1,438.8L35.4,446.2L34.3,453.3L34.9,457.4L34.3,466L34.4,472.7L35.5,475.1L36.3,483.7L36.5,492.4L38.7,498.4L37.9,504L36.8,507.6L36.8,511.8L35.7,513.6L34.4,510.1L29.5,508.7L27.4,510.2L26.3,507.4L26.6,501.1L26.3,497.9L24.9,493.4L23.8,494.2M32.8,432.5L34.3,425L33.8,423L35.4,418.2L35.7,414.5L36.9,408.9L37.3,409.4L38.5,404L40.5,398L41.3,397.1L41.2,403.7L39.9,419.3L40.6,420.6L43.4,418.9L49,411.7L49.5,421.9L53.4,428.7L63.4,450.5L63.4,462.1L62.3,469.3L64.2,473L59.9,480L57.2,490L55.8,490L47.7,499.6L43.7,496.2L39.9,494.7L38.7,498.4M214.2,332.9L205.1,333.9L204.2,330.5L202.4,332.3L197.6,332.9L200.1,331.3L202.6,325.6L202,323.3L202.2,319.2M86.1,739.1L85.1,737.3L86.4,739.4M85.8,738.6M86.3,739.4M114,323.2L111.9,326.6L105.1,330.7L100.7,336.7L99.2,336.3L100.7,328.8L100.4,321.3L97.6,324L97,317L95.6,315.1L97,305.5L96.4,297.6L92.4,299.9L90.6,300.4L91.6,295L94.8,287L95.4,284.3L93.5,284L94,282.2L90.9,282.3L90.4,278.6L91.1,275.5L87.8,276.6L87,274.6L93.5,260.8M92.4,299.9L91,300.7L86.4,303.8L93.8,282.3L85.5,288.1L86.6,282.7L81.6,286.8L93.1,261.2L92,261.9M158.9,430.3L157,429.9L156.8,427.3L152.3,428.5M154.3,421.9L154.9,421L157.2,419.6L161.3,421.5M603.9,600.9L601.9,617.2L604.2,618.7L608.4,615.8L612,616.5L613.4,613.2L617.2,611.9L625.5,615.9L626.8,620L619.1,621.9L610.6,628.3L607.4,636.1L601.1,638.7L596.9,644.9L586.8,644.9L585,650.9L589,655.3L584.2,659.3L581.3,664.5L576,668.1L560,672.2L550.9,677.8L541.7,678.8L530.7,676.2L529,674.4L518.3,673.4L515.2,674.4L501.3,672.9L496.2,673.5L493.4,669.6L490.1,661.2L486.4,660.5L480.3,655.9L464.1,652.3L463,649.6L465.3,645.8L465.2,638.4L462.5,632.4L455.8,629L450.4,623.8L450.1,618.8M154.6,357.2L154.7,357.5M91,300.7L76,331.7L78.9,319.9L64.7,334.6L52.9,350.2L51.8,353L50.3,354.3L57.6,328.7L61,318.4L60.9,317.8L63.5,312.2L63.8,309.3M76,331.7L65.4,357.4L56.4,383.7L53.8,389.7L51.2,402.3L49.5,403.7L49,411.7M41.3,397.1L42.6,389.6L43.1,379.9L42.9,376.6L42.3,377.1L43.6,371.4L42.3,372.1L42.9,367.6L41.1,370.5L41.7,367.5L42.9,364.2L43.5,360.9L45.2,355.1L45.5,353.6L48.3,346.7L49.6,342.9L51.3,339L54.4,329.1L57,322.6M667.5,885.9L654.4,889.4L651.9,891.9L651.1,895.9L645.9,900.5L644,904.1L636.7,907.1L631.2,907.2L625.2,909.2L621.8,911.7L611.6,914.5L604.7,913.1L604.5,911.5M639.8,892.6L644.2,893.8L647.4,889.1L648.3,888.9M669.9,885L668.1,885.7M159.1,443L157,449L154.9,450.1L149.1,441.4L150.7,437.1L154,435.2L157.5,439.1M241.2,384.3L244.6,387.3L246.3,396L248.3,398.6L246,408.2L243.9,410.4L240,408.3L235.8,409.5L232.3,407.6L230.2,402.4M176,358.9L174.7,359.8M113.4,504L106.4,507.5L103,513.6L78.4,544.5M69.1,548.4L66.8,513.3L66.8,478.2L64.2,473M63.4,450.5L65.7,444.5L66.1,435L68.6,430.7L71,424.4L72.9,425.5L82.3,417.2L86.9,409.9L87.4,410.8M48.6,342.8L46.6,348.7L46,350.5M43.5,358.2L43.4,358.7L43,359.8M150.5,557.6L146.7,555.2M257.3,390.6L259.7,392.8L258.2,400.3L259.4,403.4M251.6,412.3L248.5,411.6L246,408.2M584.4,855.4L579,858.4L576.4,857.3L571.8,861.5L565.9,860.1M524.4,829.5L528.8,823.6L532.1,821.5L536.7,823.7L536,815.6L539.5,815.9M344.6,644.8L338.7,647.8L344.5,654L347.3,654.7L353.4,660.5L343.8,661.7L339.8,659.3L337,656.3L338.8,652.4L333.8,653.1L323.9,657.7L319.9,655L316.9,656.6L320.4,660.7L319.2,667.7L313.9,672.1L307.3,667.2L309.4,663.5L304.5,658.4L298.4,649L293,638L292.9,627.2L285.9,621.5L286.5,612.3L282,604.8L276.2,606L271,605.2L269.1,609.3L264.4,605.1L278.1,581.1L291.4,585.8L299.3,601.8L301.1,611.1L307.6,613.9L313.6,618.1L316.4,618.3L318.6,626.7L320.5,626.8L317.1,633.4L319.7,634.9L319,641.8L325.3,644.6L327.5,650.2L331.9,646.4L344.6,644.8L347.5,642.1L353.2,644.3L359.2,649.6L360.9,645.3L365.1,645L372.3,651.1L380.1,652.5L392.3,657.8L397.7,664L385.4,667L383.4,668.8L375.5,667L372.5,670.2L367.5,669.7L367.5,667.3L357,667.9L353.6,671.4M177.9,637.1L183.6,635.1L187.4,639.3M154,435.2L157,429.9M80.9,682.5L82.7,686.2L83.5,691.9L86.9,697.4L91.5,708L97.6,717.8L99.3,718.4L103.7,722.5L105.7,726.6L108.8,730.6M447.4,619L444.2,619.2L442.6,622.8L438.1,623.2L436.2,632L430.8,634.4L422.5,629.8L415.2,641.1L415.4,645L411.3,642.2L401.5,642.4L403.3,645L401.7,649.8L402.6,657.6L398.2,660.4L397.7,664M160.6,573.7L157.2,582.2M132.8,571.9L141.6,565.1L145.5,561.1L147.6,560.7M173.8,364.8L175.8,372.9L173.6,375.2L173.3,382.4M154.8,357.7L156.7,357.9L158.1,353L162.7,349.6L164.4,351.6L167.5,349.6M145.5,561.1L142.6,559L141.6,565.1M132.3,571.9L136.5,559.6L138.7,559.1M136.5,559.6L136.8,558.8M198.8,583.2L196.8,592.5L199.5,597.4L196.7,601.2L193.6,600.9L189.3,604.2L189.9,614.9L192.6,622.5L192.6,628.3L189.3,632.1L190.1,642.2M273.1,661.4L268.6,666.6L264.5,668.5L265.3,673.8L262.3,674.9L259.6,686.4L264,690.1L263.3,694L255.4,696.5M209.3,569.1L209.5,576.5L211.3,579.5L212.9,581L221.3,582.3L222.6,586.2L219,588.3L221.2,594.3M366.6,709.8L372,708.6L373.8,715.6L377.7,719.9L375.5,724.7L376.9,732.4L371.4,730.7L372.9,735.2L372.1,739.6L386.2,751.8M434.7,777.3L433.4,786.8L427.7,786.4L413.4,781.4L405.3,774.7L399.4,774.3L389.6,768.7L378.1,759L382.7,752.7L386.2,751.8L393.5,752.5L403.2,762.7L406.9,763.2L413.4,770.7L419.1,774.4L423.5,774.1L427.6,776.4L434.7,777.3L438.5,776.3L440.1,781.7L439.7,784.1L446.2,786.6L463.2,787.1L460.4,780.9L468.1,780.2L472.2,776.1L482.7,771.7L488.5,773.7L493,771.1L497.1,777.8L502.4,779.5L499.7,783L500.3,787L493,786.2L486,790.1L486,793.8L481.5,798.9L482.7,800.2L478.1,807.6L471.9,806.3L472.1,812L468.8,818.8L465.8,818.8L463.7,807.9L458.7,812L455.5,807.9L457.2,804.8L461.1,804.4L465.1,799.5L462.7,798.3L450.6,797.2L446.1,795.9L446.3,791.6L436.9,786.7L433.3,790.4L438.2,793.6L432.2,798.4L437.3,801.4L435.8,805.1L438.8,815.4M174.7,411.1L172.6,406L175.5,396.9M177.3,393.5L178.5,394.9L183,392.8L185.2,394.9M63.8,305.7L62.3,308.5L64.8,302.7L65,301.9M45.5,353.6L44.9,354.8L42.6,361.6L43.4,358.7M141.7,440.5L142.7,442.3L149.1,441.4M154.9,450.1L158.9,457.8L158.7,463L161.2,467.1L163.3,466.7M31.3,406.3L31.3,406.3M31.2,406.8L30.9,408.2L32.9,399.4L33.4,399.8L35.3,394.1L37.7,388L35,403.5L34.5,407.7M177.7,348.4L180.6,347L186.3,347.5L187.4,340.2L189.3,337.6M193.6,335L189.3,337.6L189.9,334.7L193.6,335L197.6,332.9M225.3,335.8L225,340.6M225.2,563.2L221.8,568.2L218.8,560.8L217,560.5L210.3,554.5M22.6,515.7L23.4,528.8L23.7,524.5L23.8,524.1L25.2,539.2L25,542.4L25.9,548.7L26.1,552.3L25.4,552L26.1,558.2L26.2,562.1L26.1,562L25.5,557.1L24.4,547.7L24.6,549.3L24.1,544.5M149.1,329.2L149.8,327.5M200.7,315.9L192.9,326L193.8,328.9L191.6,329.7L189.9,334.7M96.9,653.6L100.2,657.3L100.9,660.7L103.5,659.5L105.3,665.2L108.1,667.8L112.7,675.7L114.7,680.4L119.5,697.6L115.3,697.9L114.7,700.8L120,707.4M123.3,700.9L119.5,697.6M23,512.6L23.7,524.5M188.6,391.9L189.3,381L186.7,380.8L187.2,376M151.4,539.3L147.9,531.7M168.6,415.5L169.4,413L168.7,403.2L166.5,400.9L167,397.6L164.6,398.8L156,415M155.9,415.6L154.9,421M41.1,370.5L37.9,381.7L36.6,388.9L35.3,394.1M28.5,578.4L28.9,580.8L28.5,576.7L29.3,578.6L30.4,582.2L31.2,575.1L32.6,573.6L33,570.4L35.2,573.9L36.7,584.1L40.4,598.8L41.5,599.3L45.4,609.2L47.8,615.7L48.7,616.5L53.8,630.5M57.4,670.8L58.1,673.4L59.4,679.5M25.2,539.2L26.4,548L27.8,558.2L28.2,561.5L28.5,560.2L29.5,558.6L30.9,564.2L32.6,573.6M532.1,821.5L525,822.5L522.6,819.1L516.9,818.8L518,812.7L514.3,812.2L514,806.5L504.8,808L504,804.1L506.2,799.1L512.2,795.3L512.2,783.7L509.6,783.9L504.8,777.5L502.4,779.5M460.4,780.9L460.3,779.6L445.2,777L440.1,781.7M372,708.6L365.7,705.4M354.2,690.8L356.8,690.1M631,798.6L629.2,799.3M625.8,801.9L625.5,802.3M48.5,575.6L47.8,572.7L40.8,564.6L38.5,556.4L36.4,556.1L34.8,549.5L33,544.8L33.1,541.9L31.3,535.4L32.1,528.8L32.3,516.2L33,517L34.6,527.3L35.6,518.5L36.8,516.1L38.2,507.7L37.9,504M28.5,560.2L28.6,557L27.9,546.6L28.2,537L29.3,534.6L31.3,535.4M463.6,825.9L462.6,822.8L466.1,823L465.8,818.8M33.8,423L33.3,421.7L33.7,417.5L33.4,415.2M209.3,568.6L211.9,575L211.3,579.5M212.9,581L214.6,575.7L213.6,570.7L216.3,570.9L217,560.5M216.2,566.8M215.9,562.1" fill="none" stroke="rgba(255,255,255,0.055)" stroke-width="1"/>
<circle cx="500" cy="500" r="478" fill="none" stroke="rgba(255,255,255,0.09)" stroke-width="1.5"/>
<path d="M255,427L261.9,419.6L269.3,425.5L275.9,425.1L276.1,427.6L282.1,430.6L286.2,432.1L285,435.7L292,440.2L293.2,446.2L300.6,446.2L306.7,455.9L315.1,459.3L313.3,463.9L304.5,466.2L300.4,461.6L294,461.5L290.2,464L285,463.7L275.5,468.3L276,472.1L269.9,477.3L269.2,476.9L266.2,487.4L264.3,488.3L258.3,490.7L257.5,494.3L254.2,490.6L249.9,490.2L247.6,494.1L243.3,495.2L240.3,492.5L239.2,487.3L236.3,482.3L237.3,477.2L234.1,474.9L232.8,468.1L234.9,465.6L233.9,459.7L237.4,457.7L239.2,452.2L233.4,445.2L239.3,438.6L243.3,442.8L243.7,437.1L247.8,428.8L252.9,425.6Z" fill="rgba(220,60,60,0.18)"/>
<path d="M235.8,386.5L235.4,396L231.9,397.7L228.8,384.2ZM408.1,439.8L406,447.6L401,450.3L393.8,451.1L387.3,453.8L379.9,457L376.4,456L367.1,467.8L363.3,475L361.5,476.9L358.6,476.7L352.6,472L344.2,472.4L339.1,465.6L333.5,466L333.1,469.7L322.8,466.8L320.6,469.3L319.5,462.6L325.4,455.4L321.8,451.6L317.7,454.3L315.1,459.3L306.7,455.9L300.6,446.2L293.2,446.2L292,440.2L285,435.7L286.2,432.1L282.1,430.6L276.1,427.6L275.9,425.1L269.3,425.5L261.9,419.6L255,427L252.9,425.6L253.4,421.8L251.3,413.2L259.4,403.4L262.1,403.6L269.5,398.6L275,396.7L279.2,401.5L280.4,399.8L282.2,394.5L287.6,394.4L299.3,395.4L302.1,394.6L305.4,386.3L308,386.7L313.3,380L321.5,376.2L326.7,370.4L332.9,369.8L335,364.4L339.8,361L347.1,362.5L351.5,365.4L351.2,368.5L348.6,368.3L351.3,377.8L349.6,387.9L349.7,397.1L347.1,400.7L340.8,402.7L334.5,399.3L331.8,390.1L331.7,377.1L327.1,390.7L323.3,391.8L318.5,397L317.5,404.6L318.1,408L322.4,406.9L323.2,400.3L326,399.7L327.4,410.5L330,411.3L334,405.4L344.4,406.5L345,413.9L347.7,412L351.7,406.7L359.3,401.1L359.7,397.9L363.5,404L361.3,409.4L358.5,407.3L354.8,408.3L353.9,413.6L358.7,416.3L362.2,413.5L382.7,416.6L380,420.5L380.9,423.7L384.1,422.4L388,425.5L394.7,425.8L392.1,429.7L399.1,428.9L400.1,423.5L403.3,423L408,427.7L410.4,433L407.6,435.2ZM450.2,342L451.5,346.4L448.7,345.8L448,343.4ZM455.2,341.5L455.7,343L453.1,344L451.7,342.4ZM419.3,389.9L410.6,393.1L407.1,389.7L408.5,386.3L411,386.3L422.6,380.4L427.9,379.4L432.3,380.2L433.7,379.1L439.5,381.7L447.1,379.9L447.7,384.2L445.3,385.7L429.4,385.8ZM395.2,393.5L396.7,394.2L403.1,391.1L404.1,389.4L408.2,390.2L410.1,393.7L404.3,396.9L401.4,400.3L399.8,405.2L399.9,411.8L398.2,412L393.4,407.2L392,403.9L394.9,403.6L395.6,399.7L392.4,397.4ZM458.2,349.1L461,348.6L460.6,350.8L457.2,351ZM447.8,350.2L449.3,347.8L450.7,349ZM440,338.6L438.5,336.3L442.2,337.4ZM445.1,341.6L443.5,342.3L437.7,341.6L438,339.6L443.6,339.2ZM456.6,349L453.3,351.3L451.8,349.4L453.7,347.6ZM376.1,404.8L376.5,408.1L370.5,408.3L371.5,405.7ZM402.3,421.3L398.7,419.5L401.6,415.7Z" fill="rgba(220,60,60,0.18)"/>
<path d="M268,516.4L256.9,523.7L254.8,531.8L257.8,534.8L255.6,547.8L245.6,546L239.5,548.2L236.1,541.9L232.2,522.9L227,519.2L225,517.1L221,520.7L219.6,527.9L211.6,528.5L208.7,525.8L208.9,515.4L206.9,501.5L211.1,504.7L217.3,504.7L218,498.6L221.9,501.2L224.3,495.9L230.1,500.6L240.3,492.5L243.3,495.2L247.6,494.1L249.9,490.2L254.2,490.6L257.5,494.3L257.7,497.2L263.7,503L261.6,506.9L266.7,511.2Z" fill="rgba(220,60,60,0.18)"/>
<path d="M227,519.2L232.2,522.9L236.1,541.9L239.5,548.2L234.2,560.8L233.6,572.6L228,573.4L223.4,557.9L224.9,556.7L223.4,552.7L222,550.5L218.1,544.1L216,537.7L211.6,528.5L219.6,527.9L221,520.7L225,517.1Z" fill="rgba(220,60,60,0.18)"/>
<path d="M333.1,469.7L333.5,466L339.1,465.6L344.2,472.4L352.6,472L358.6,476.7L361.5,476.9L358,483.2L352.5,488.3L348.2,489.9L349.7,494.1L347.8,499.4L332.8,505.1L331.1,509.2L336.3,514.5L333.9,519.9L329.6,521.9L327.1,516.3L323.6,518.8L324.7,523.9L334.1,526.5L330.2,530.4L326.1,530.2L319.9,539.8L325.2,543.6L323.1,546.5L326.4,553.8L324.3,557.9L313.1,552L312.4,547.9L304.7,542.6L300.2,543.2L297.6,537.2L295.9,539.2L294.5,529.6L286.3,519.7L273.3,519.1L268.8,523.3L268,516.4L266.7,511.2L261.6,506.9L263.7,503L257.7,497.2L257.5,494.3L258.3,490.7L264.3,488.3L266.2,487.4L269.2,476.9L269.9,477.3L276,472.1L275.5,468.3L285,463.7L290.2,464L294,461.5L300.4,461.6L304.5,466.2L313.3,463.9L315.1,459.3L317.7,454.3L321.8,451.6L325.4,455.4L319.5,462.6L320.6,469.3L322.8,466.8Z" fill="rgba(220,60,60,0.18)"/>
<path d="M363.3,475L367.1,467.8L376.4,456L379.9,457L387.3,453.8L393.8,451.1L401,450.3L406,447.6L408.1,439.8L407.6,435.2L410.4,433L413.9,438.6L415.4,444.6L419.8,440.9L418.8,435.5L416.4,432.6L421.8,425.3L423.1,420.8L427.8,419.5L433.2,413L435.4,411.9L439.5,413.6L441.7,416.5L435.9,424.4L436.2,428.1L429.3,443.9L430.5,448.9L427.2,454L416.4,461.4L414.3,457.7L411.4,458.8L418.4,464.9L426.4,461.4L431.6,456.5L433.9,448.6L439.8,448.7L440.7,453.5L438.7,458.9L442.3,455.8L443,450.4L439.3,446.3L433.4,445.2L434.1,440.2L438.8,434.2L438.3,426.3L445.1,422.7L446.6,417.3L447.3,422.1L443.5,429.2L450.6,432.2L446.7,428.1L446.9,425.4L452.4,426.8L451.1,424.3L454.1,423.5L457.4,428.8L453.3,431.7L456,435.7L454.8,440.3L448.9,443.9L450.3,448.7L456.2,450.2L458,456.3L452.5,467.4L454.7,470.9L454.4,479.9L457.2,483.8L455.4,487.7L460.6,490.2L459.9,496.1L456.1,499.8L457.1,504L451.5,510.4L451.8,513.6L456.4,516.6L448.7,521.1L444.6,518.7L439.7,521.8L420.9,513.8L415.8,523.2L410.9,524.6L407.5,528.5L407.1,529L402.2,531.1L390.3,526.8L390.1,522.6L386.5,526.4L385.4,532.6L388.3,536.3L382.8,539.5L378.4,546.7L371.4,543L365.4,544.2L355.3,541.2L353.1,542.3L344.8,539.4L336.4,535.3L333.3,537.4L334.7,544.8L331,542.1L328.5,546L323.1,546.5L325.2,543.6L319.9,539.8L326.1,530.2L330.2,530.4L334.1,526.5L324.7,523.9L323.6,518.8L327.1,516.3L329.6,521.9L333.9,519.9L336.3,514.5L331.1,509.2L332.8,505.1L347.8,499.4L349.7,494.1L348.2,489.9L352.5,488.3L358,483.2L361.5,476.9ZM440.9,410.4L436.8,411.3L438.5,408.4Z" fill="rgba(220,60,60,0.18)"/>
<path d="M398.2,564.9L385.9,566L388.6,562.9L383.2,557.8L377.9,556L378.4,546.7L382.8,539.5L388.3,536.3L385.4,532.6L386.5,526.4L390.1,522.6L390.3,526.8L402.2,531.1L407.1,529L407.5,528.5L410.9,524.6L415.8,523.2L420.9,513.8L439.7,521.8L444.6,518.7L448.7,521.1L456.4,516.6L451.8,513.6L451.5,510.4L457.1,504L456.1,499.8L459.9,496.1L460.6,490.2L455.4,487.7L457.2,483.8L454.4,479.9L454.7,470.9L452.5,467.4L458,456.3L456.2,450.2L450.3,448.7L448.9,443.9L454.8,440.3L456,435.7L453.3,431.7L457.4,428.8L454.1,423.5L456.3,424.3L460,430.7L463.7,431.5L461.1,435.1L459.5,440.8L462.2,438.4L461.2,443.5L463.5,441.7L462.9,436.8L465,433.1L462.7,427.2L459.9,424.3L461.8,415.6L477.4,416.3L475.4,409.5L485.9,403.2L493,401.6L491.9,399.8L498.1,399.9L499,401.5L503.3,398.6L503.5,396.6L507.5,396.1L507.5,392.3L512.4,385.9L516.4,388.1L513.4,390.9L519.6,391.5L518.2,395.1L521,392.9L526.8,391.7L531.8,394.5L534.6,400.5L533.9,404.4L528.7,411.4L526.1,417.2L521.9,421.1L525.8,421.6L532,415.9L533.8,424.5L537.9,427.9L539.4,433.7L541.6,435.7L536.8,439.5L534.4,445L535,448.5L526.8,453.2L529.6,457.2L531.3,469.7L529.5,473.7L532.3,483.7L534.2,484.7L531.5,489.3L531.5,493.4L539.8,494.7L549.5,508.3L550.8,517.2L553.7,518L551.6,532.9L553.8,535.8L562.9,532L565.9,533.3L572.2,521.4L575.3,517.8L579.2,518.1L583.1,523.5L588,521.8L594.7,531.5L587.8,533.2L588,538.7L591.8,544.5L583.6,546.2L580.6,545.7L577.1,551.7L566.9,551.1L558.6,552.5L553.4,556.8L556.1,573.4L557.9,574L554.9,584.9L546.6,592.4L535.6,604.6L528.3,596.3L518.1,591.2L516.2,587.7L511.3,591.4L509.9,598.4L504.9,604.7L505.9,615L501.1,617.8L487.2,615.2L485.4,610.8L475.6,607.7L460.6,614.1L456.8,617.2L447.4,619L444.2,614.2L437.1,613.1L432.1,603.6L429,599.9L419,599.7L417,594.7L411.6,597.5L406,574.2L401.8,567.6L404.2,564.1ZM531.9,415.5L532.8,414.3ZM493.6,368.1L495.3,368.9L492.8,370.5L491.4,368.6ZM504,375.2L503.9,377.5L500.9,377.7L496.5,375.5L494,372.1L497.1,367.4L500.8,366.9L504.5,369.9ZM513.1,376.9L513.8,379.4L511.4,381.7L504,384L506.5,374.4L508.1,372.5L509.4,375.4L510.7,374.5ZM501.2,362.1L500.2,366.3L495.5,368.1L492.4,365L495,361.8L494.9,360.2L498.5,358Z" fill="rgba(220,60,60,0.65)"/>
<path d="M706.4,400.1L709.1,412.4L706.4,412.2L701.9,406.5L696.5,415.4L700.3,430.5L703.6,437.6L708,436.1L703.7,441.8L704.2,444.8L700.7,450.1L701,445.2L691.3,450.2L688.5,459.5L686.3,460.7L675.8,471.2L674.2,476.8L673.2,499.3L673.6,507.5L670,522.2L677.1,520.3L687.2,520.6L685.5,516.9L689.3,514.2L700.4,516.2L705.4,522.4L706.7,531.2L713.3,542.4L716.6,550.5L716.6,561.9L717.2,576.8L714.4,592.5L714,600.7L707.3,612.8L698.7,613.4L697.5,619.7L689.7,604.1L692.1,598.9L698.3,597.6L697.4,583.3L696.9,573.5L692.5,570.3L686.6,580.4L679.9,584.8L673.8,577.7L667.2,576.8L659.7,579.3L649.7,570.7L643,562.8L637.8,559.2L627.9,559.7L620.4,563.6L616.2,566.7L613.4,572.1L618.3,577.3L616.3,581.3L616.2,594.5L610.6,601.3L600.7,600.3L590.8,601L585.7,607.9L574.7,614.2L562.7,615.4L557.3,611.1L544.3,608.9L535.4,612.7L528,609.7L526.6,603.6L515.1,601L509.9,598.4L511.3,591.4L516.2,587.7L518.1,591.2L528.3,596.3L535.6,604.6L546.6,592.4L554.9,584.9L557.9,574L556.1,573.4L553.4,556.8L558.6,552.5L566.9,551.1L577.1,551.7L580.6,545.7L583.6,546.2L591.8,544.5L588,538.7L587.8,533.2L594.7,531.5L588,521.8L583.1,523.5L579.2,518.1L575.3,517.8L572.2,521.4L565.9,533.3L562.9,532L553.8,535.8L551.6,532.9L553.7,518L550.8,517.2L549.5,508.3L539.8,494.7L531.5,493.4L531.5,489.3L534.2,484.7L532.3,483.7L529.5,473.7L531.3,469.7L529.6,457.2L526.8,453.2L535,448.5L534.4,445L536.8,439.5L541.6,435.7L539.4,433.7L537.9,427.9L533.8,424.5L532,415.9L531.9,415.5L532.8,414.3L536,412.8L537.9,416.6L542.2,413.3L549.4,412L550.3,414.6L554.1,415.6L561.8,412.7L560,408.2L561.5,405.5L567.6,406.4L567.8,404.4L573,404.9L575.8,408L573.9,411.6L583.7,418.6L588.5,419.4L586.4,409.1L590.1,411L593.3,409.9L594.6,406.5L600.6,406.2L599.4,403.6L603.5,401.1L598.3,398.1L597.3,395.3L599.5,392.4L597.2,391.1L607.4,385.5L612.7,389.6L611.6,383.7L616.2,380.6L617.8,383.5L625,381.4L629.3,381.9L632.6,373.7L635.9,369.4L639.3,367.7L643.5,368.4L646.9,371.1L652,368.9L651.1,365.7L657.2,355.5L656.1,352.8L665.1,351.1L664.3,346.7L659.3,346.9L655.9,344.5L660.2,338.5L661.6,331.2L666.6,325.3L670.2,323.2L700,332.1L702.8,337.9L698.6,344.7L704.4,339.4L717.5,339.3L719.9,341.8L716.8,347.3L720.3,359.4L721.4,366L723.8,369L726.3,377.6L729.2,380.2L723.5,381.8L722.4,390.9L724.5,394.9L720.4,392.3L720.1,405.2L723.4,408.1L727,415.9L740.3,419.9L744,423.6L740.7,424.1L745.7,431.9L750.2,433.3L748.7,439.5L751.3,446.8L755.6,449.3L753.8,456.2L758.7,463.7L760,473.5L746.8,465.4L731.9,455.1L724.9,446.4L722.6,438.9L720.4,438.1L721.8,431.8L713.9,407.4L713.4,399.4L704.9,391.9L705.3,387.2L701.8,393.5L708.1,399.1ZM654.5,318.9L655.4,322.2L652.3,321.1L650.2,317.8ZM654.8,350L656.7,348L658.6,350.2ZM670.2,323.2L681.4,312.8L684,312L689.6,313.4L691.7,312.3L685.9,311.2L687.3,303.7L692.9,300L697.1,301.9L698.5,307L702.9,310.3L707.3,311.2L701.7,319.1L698.2,319L697.5,325.9L690.7,326.4L692.9,329.2L696.9,329L700,332.1ZM650.2,317.8L650.8,314L654.5,313.5L654.5,318.9ZM598.7,362.6L599.7,366.4L597.4,368.4L592.4,369.2L592.2,367.3ZM584.9,368.8L588.8,368.3L590.2,373.1L585.6,379.5L584.8,382.3L579.2,381.7L576.1,377.6L576.2,372.8L582.1,373.9L580.3,370ZM597.8,382.9L599.9,384.6L593.3,387.9L593.5,382.9ZM533.1,408.5L536.3,409L535.6,411.8L532.3,410.4ZM698.5,506.2L699.4,504.1L706.8,510L711.9,517.6L722.7,526.7L732.5,533L726.9,533.1L725.1,536L729.5,547.2L737.6,552L734.1,553.7L735.5,560.5L732.2,558.1L726.8,546.8L722.3,543.2L719.7,537L711.1,525.3L708.3,524.5L701.2,513.8L703.1,510.9ZM726.1,403.8L728.4,405.1L728.9,410.9Z" fill="rgba(220,60,60,0.18)"/>
<path d="M378.4,546.7L382.8,539.5L388.3,536.3L385.4,532.6L386.5,526.4L390.1,522.6L390.3,526.8L402.2,531.1L407.1,529L407.5,528.5L410.9,524.6L415.8,523.2L420.9,513.8L439.7,521.8L444.6,518.7L448.7,521.1M239.5,548.2L236.1,541.9M387.3,453.8L379.9,457L376.4,456L367.1,467.8L363.3,475L361.5,476.9L358.6,476.7L352.6,472L344.2,472.4L339.1,465.6L333.5,466L333.1,469.7L322.8,466.8L320.6,469.3L319.5,462.6L325.4,455.4L321.8,451.6L317.7,454.3L315.1,459.3L306.7,455.9L300.6,446.2L293.2,446.2L292,440.2L285,435.7L286.2,432.1L282.1,430.6L276.1,427.6L275.9,425.1L269.3,425.5L261.9,419.6L255,427L252.9,425.6M264.3,488.3L266.2,487.4L269.2,476.9L269.9,477.3L276,472.1L275.5,468.3L285,463.7M240.3,492.5L243.3,495.2L247.6,494.1L249.9,490.2L254.2,490.6L257.5,494.3L257.7,497.2L263.7,503L261.6,506.9L266.7,511.2L268,516.4M264.3,488.3L258.3,490.7L257.5,494.3M323.1,546.5L325.2,543.6L319.9,539.8M387.3,453.8L393.8,451.1L401,450.3L406,447.6L408.1,439.8M331.1,509.2L332.8,505.1L347.8,499.4L349.7,494.1L348.2,489.9L352.5,488.3L358,483.2L361.5,476.9M532.8,414.3L531.9,415.5M532,415.9L533.8,424.5L537.9,427.9L539.4,433.7L541.6,435.7L536.8,439.5L534.4,445L535,448.5L526.8,453.2L529.6,457.2L531.3,469.7L529.5,473.7L532.3,483.7L534.2,484.7L531.5,489.3L531.5,493.4L539.8,494.7L549.5,508.3L550.8,517.2L553.7,518L551.6,532.9L553.8,535.8L562.9,532L565.9,533.3L572.2,521.4L575.3,517.8L579.2,518.1L583.1,523.5L588,521.8L594.7,531.5L587.8,533.2L588,538.7L591.8,544.5L583.6,546.2L580.6,545.7L577.1,551.7L566.9,551.1L558.6,552.5L553.4,556.8L556.1,573.4L557.9,574L554.9,584.9L546.6,592.4L535.6,604.6L528.3,596.3L518.1,591.2L516.2,587.7L511.3,591.4L509.9,598.4M211.6,528.5L219.6,527.9L221,520.7L225,517.1L227,519.2L232.2,522.9L236.1,541.9M315.1,459.3L313.3,463.9L304.5,466.2L300.4,461.6L294,461.5L290.2,464L285,463.7M410.4,433L407.6,435.2L408.1,439.8M454.1,423.5L457.4,428.8L453.3,431.7L456,435.7L454.8,440.3L448.9,443.9L450.3,448.7L456.2,450.2L458,456.3L452.5,467.4L454.7,470.9L454.4,479.9L457.2,483.8L455.4,487.7L460.6,490.2L459.9,496.1L456.1,499.8L457.1,504L451.5,510.4L451.8,513.6L456.4,516.6L448.7,521.1M331.1,509.2L336.3,514.5M336.3,514.5L333.9,519.9L329.6,521.9L327.1,516.3L323.6,518.8L324.7,523.9L334.1,526.5L330.2,530.4L326.1,530.2L319.9,539.8" fill="none" stroke="rgba(255,255,255,0.1)" stroke-width="1"/>
</svg>